<svg width="199" height="199" viewBox="0 0 199 199" fill="none" xmlns="http://www.w3.org/2000/svg">
<path d="M159.826 169.565C138.63 190.76 109.714 199.541 82.008 195.756C62.6292 193.182 43.856 184.401 29.0191 169.565C14.1822 154.728 5.40121 135.803 2.82746 116.424C-0.806061 88.87 7.82356 59.9532 29.0191 38.7577C50.2147 17.5621 79.1315 8.78107 106.686 12.566C122.734 14.6856 138.328 21.0442 151.651 31.642C154.527 33.913 157.101 36.1839 159.826 38.909C162.551 41.6342 164.822 44.2079 167.093 47.0845C177.691 60.4074 184.05 76.0013 186.169 92.0493C189.803 119.301 181.022 148.369 159.826 169.565Z" fill="#FFB800"/>
<path d="M94.5745 198.633C90.3354 198.633 86.0963 198.33 81.7058 197.724C61.1158 194.999 42.3426 185.612 27.5057 170.927C12.8202 156.09 3.58498 137.317 0.85984 116.727C-3.07648 87.2045 6.61292 58.2876 27.6571 37.3949C48.7012 16.3507 77.6181 6.66131 106.989 10.5976C123.794 12.8686 139.691 19.53 152.862 29.9764C155.739 32.2474 158.464 34.6697 161.189 37.3949C163.763 39.9686 166.337 42.8452 168.608 45.7217C179.054 59.0446 185.867 74.7899 188.138 91.595C192.074 121.117 182.385 150.034 161.341 170.927C143.324 188.792 119.555 198.633 94.5745 198.633ZM94.1203 13.6256C70.1996 13.6256 47.4901 23.0122 30.3822 40.12C10.2464 60.2558 0.859839 87.9614 4.64476 116.121C7.21851 135.954 16.1509 153.819 30.3822 168.05C44.6135 182.282 62.4784 191.063 82.3114 193.788C110.623 197.573 138.328 188.186 158.464 168.05C178.6 147.915 187.986 120.209 184.201 91.8978C182.082 75.8497 175.572 60.5586 165.58 47.8413C163.46 45.1161 161.038 42.391 158.464 39.9686C155.89 37.3949 153.316 35.1239 150.591 32.853C137.723 23.0122 122.583 16.5021 106.535 14.3826C102.296 13.9284 98.208 13.6256 94.1203 13.6256Z" fill="black"/>
<path d="M195.556 82.2087L82.0087 195.756C62.6299 193.183 43.8567 184.402 29.0198 169.565C14.1829 154.728 5.40187 135.803 2.82812 116.424L116.376 2.87673C118.193 1.05997 121.372 1.05997 123.189 2.87673L195.708 75.3958C197.524 77.364 197.524 80.3919 195.556 82.2087Z" fill="#4AC2FF"/>
<path d="M82.009 197.27H81.8576C61.2676 194.545 42.6458 185.31 27.9603 170.624C13.2748 155.787 4.0396 137.166 1.31445 116.576C1.31445 116.121 1.46585 115.667 1.76864 115.364L115.316 1.81676C117.739 -0.605587 121.826 -0.605587 124.249 1.81676L196.768 74.3359C199.19 76.7582 199.19 80.8459 196.768 83.2683L83.2202 196.816C82.9174 197.119 82.4632 197.27 82.009 197.27ZM4.34239 117.03C7.06753 136.56 15.9999 154.425 30.0799 168.505C44.1598 182.585 61.8732 191.517 81.5548 194.242L194.497 81.3001C195.859 79.9375 195.708 77.9694 194.497 76.6068L121.978 3.93632C120.615 2.57375 118.647 2.57375 117.284 3.93632L4.34239 117.03Z" fill="black"/>
<path d="M17.2105 122.48L108.806 30.885C110.622 29.0683 113.65 29.0683 115.618 30.885L167.699 82.9656C169.516 84.7823 169.516 87.8103 167.699 89.7784L76.1039 181.374C74.2871 183.19 71.2592 183.19 69.291 181.374L17.2105 129.293C15.2423 127.325 15.2423 124.297 17.2105 122.48Z" fill="#FDF7F4"/>
<path d="M72.6218 184.25C70.9564 184.25 69.4424 183.644 68.2313 182.433L16.1507 130.353C13.7284 127.93 13.7284 123.843 16.1507 121.42L107.746 29.8251C110.168 27.4027 114.256 27.4027 116.678 29.8251L168.759 81.9056C171.181 84.3279 171.181 88.4157 168.759 90.838L77.1637 182.433C75.9525 183.644 74.2871 184.25 72.6218 184.25ZM18.2703 123.54C17.0591 124.751 17.0591 126.87 18.2703 128.233L70.3508 180.314C71.562 181.525 73.6816 181.525 75.0441 180.314L166.639 88.7184C167.85 87.5073 167.85 85.3877 166.639 84.0251L114.407 31.9446C113.196 30.7334 111.077 30.7334 109.714 31.9446L18.2703 123.54Z" fill="black"/>
<path d="M178.752 85.2366L169.214 94.7746L148.775 74.1847L137.572 62.9813L128.488 53.8975L103.811 29.3712L111.835 21.3472L113.349 19.9846C114.863 18.4706 117.285 18.4706 118.647 19.9846L128.488 29.8254L137.572 38.9092L140.6 41.9371L148.775 33.7617L150.289 32.2477C154.831 27.7058 162.098 27.7058 166.489 32.2477C171.031 36.7896 171.031 44.0567 166.489 48.4472L156.951 57.9852L178.903 79.9378C180.266 81.3003 180.266 83.7227 178.752 85.2366Z" fill="#FDF7F4"/>
<path d="M169.213 96.1371C168.759 96.1371 168.456 95.9857 168.154 95.6829L102.75 30.4308C102.145 29.8252 102.145 28.9169 102.75 28.3113L112.288 18.7733C114.408 16.6537 117.738 16.6537 119.858 18.7733L140.751 39.666L149.229 31.1878C154.225 26.1917 162.552 26.1917 167.548 31.1878C172.544 36.1839 172.544 44.5107 167.548 49.5068L159.07 57.985L179.811 78.7264C180.871 79.7862 181.325 80.9974 181.325 82.5113C181.325 84.0253 180.719 85.2365 179.811 86.2963L170.273 95.8343C169.97 95.9857 169.668 96.1371 169.213 96.1371ZM105.929 29.371L169.213 92.6549L177.692 84.1767C178.146 83.7225 178.297 83.1169 178.297 82.5113C178.297 81.9058 177.994 81.3002 177.692 80.846L155.739 59.0448C155.133 58.4392 155.133 57.5309 155.739 56.9253L165.277 47.3873C169.213 43.4509 169.213 37.2437 165.277 33.3074C161.341 29.371 155.133 29.371 151.197 33.3074L141.659 42.8454C141.053 43.4509 140.145 43.4509 139.54 42.8454L117.587 20.8928C116.679 19.9844 115.316 19.9844 114.408 20.8928L105.929 29.371Z" fill="black"/>
<path d="M156.798 46.0251C159.139 46.0251 161.037 44.1272 161.037 41.786C161.037 39.4448 159.139 37.5469 156.798 37.5469C154.457 37.5469 152.559 39.4448 152.559 41.786C152.559 44.1272 154.457 46.0251 156.798 46.0251Z" fill="#4AC2FF"/>
<path d="M156.798 47.5391C155.284 47.5391 153.77 46.9335 152.71 45.8738C151.651 44.814 151.045 43.3 151.045 41.786C151.045 40.2721 151.651 38.7581 152.71 37.6983C154.981 35.4274 158.615 35.4274 160.886 37.6983C161.945 38.7581 162.551 40.2721 162.551 41.786C162.551 43.3 161.945 44.814 160.886 45.8738C159.826 46.9335 158.312 47.5391 156.798 47.5391ZM156.798 38.9095C156.041 38.9095 155.435 39.2123 154.83 39.6665C154.376 40.1207 154.073 40.8777 154.073 41.6347C154.073 42.3916 154.376 43.1486 154.83 43.6028C155.89 44.6626 157.706 44.6626 158.766 43.6028C159.22 43.1486 159.523 42.3916 159.523 41.6347C159.523 40.8777 159.22 40.1207 158.766 39.6665C158.161 39.2123 157.404 38.9095 156.798 38.9095Z" fill="black"/>
<path d="M129.397 69.1884L125.612 77.2125L134.09 80.2404L125.612 83.2683L129.397 91.4438L121.221 87.5074L118.345 95.9857L115.317 87.5074L107.142 91.4438L111.078 83.2683L102.6 80.2404L111.078 77.2125L107.142 69.1884L115.317 72.9733L118.345 64.4951L121.221 72.9733L129.397 69.1884Z" fill="#4AC2FF"/>
<path d="M118.344 97.4999C117.739 97.4999 117.133 97.0457 116.982 96.4401L114.559 89.6272L107.898 92.8066C107.292 93.1094 106.687 92.958 106.232 92.5038C105.778 92.0496 105.627 91.2926 105.93 90.8384L109.109 84.1769L102.296 81.7546C101.691 81.6032 101.236 80.9976 101.236 80.392C101.236 79.7864 101.691 79.1809 102.296 79.0295L109.109 76.6071L105.93 69.9456C105.627 69.3401 105.778 68.7345 106.232 68.2803C106.687 67.8261 107.444 67.6747 107.898 67.9775L114.559 71.1568L116.982 64.344C117.133 63.7384 117.739 63.2842 118.344 63.2842C118.95 63.2842 119.555 63.7384 119.707 64.344L122.129 71.1568L128.791 67.9775C129.396 67.6747 130.002 67.8261 130.456 68.2803C130.91 68.7345 131.062 69.4915 130.759 69.9456L127.579 76.6071L134.392 79.0295C134.998 79.1809 135.452 79.7864 135.452 80.392C135.452 80.9976 134.998 81.6032 134.392 81.7546L127.579 84.1769L130.759 90.8384C131.062 91.444 130.91 92.0496 130.456 92.5038C130.002 92.958 129.245 93.1094 128.791 92.8066L122.129 89.6272L119.707 96.4401C119.555 97.0457 118.95 97.4999 118.344 97.4999ZM115.316 85.9937C115.468 85.9937 115.77 85.9937 115.922 86.1451C116.376 86.2965 116.679 86.5993 116.83 87.0535L118.344 91.444L119.858 87.0535C120.01 86.5993 120.312 86.2965 120.767 86.1451C121.221 85.9937 121.675 85.9937 121.978 86.1451L126.217 88.1133L124.249 83.8742C124.097 83.42 124.097 82.9658 124.249 82.663C124.4 82.2088 124.703 81.906 125.157 81.7546L129.548 80.2406L125.157 78.7267C124.703 78.5753 124.4 78.2725 124.249 77.8183C124.097 77.3641 124.097 76.9099 124.249 76.6071L126.217 72.368L121.978 74.3361C121.524 74.4875 121.069 74.4875 120.767 74.3361C120.312 74.1848 120.01 73.882 119.858 73.4278L118.344 69.0373L116.83 73.4278C116.679 73.882 116.376 74.1848 115.922 74.3361C115.468 74.4875 115.013 74.4875 114.711 74.3361L110.472 72.368L112.44 76.6071C112.591 77.0613 112.591 77.5155 112.44 77.8183C112.288 78.2725 111.985 78.5753 111.531 78.7267L107.141 80.2406L111.531 81.7546C111.985 81.906 112.288 82.2088 112.44 82.663C112.591 83.1172 112.591 83.5714 112.44 83.8742L110.472 88.1133L114.711 86.1451C114.862 85.9937 115.013 85.9937 115.316 85.9937Z" fill="black"/>
<path d="M76.8613 94.7744L70.0485 87.9616C69.1401 87.0532 69.1401 85.5392 70.0485 84.7822L76.8613 77.9694C77.7697 77.061 79.2837 77.061 80.0407 77.9694L86.8535 84.7822C87.7619 85.6906 87.7619 87.2046 86.8535 87.9616L80.0407 94.7744C79.1323 95.6828 77.7697 95.6828 76.8613 94.7744Z" fill="#4AC2FF"/>
<path d="M78.527 97.0457C77.6186 97.0457 76.5588 96.7429 75.8019 95.9859L68.989 89.173C67.475 87.6591 67.475 85.2367 68.989 83.7227L75.8019 76.9099C77.3158 75.3959 79.7382 75.3959 81.2521 76.9099L88.065 83.7227C89.579 85.2367 89.579 87.6591 88.065 89.173L81.2521 95.9859C80.3438 96.5915 79.4354 97.0457 78.527 97.0457ZM78.527 78.878C78.3756 78.878 78.0728 78.878 77.9214 79.1808L71.1086 85.8423C70.8058 86.1451 70.8058 86.5993 71.1086 86.9021L77.9214 93.7149C78.2242 94.0177 78.6784 94.0177 78.9812 93.7149L85.794 86.9021C86.0968 86.5993 86.0968 86.1451 85.794 85.8423L78.9812 79.0294C78.8298 78.8781 78.6784 78.878 78.527 78.878Z" fill="black"/>
<path d="M116.073 125.66C115.619 125.66 115.316 125.509 115.013 125.206L89.2755 99.4683C88.6699 98.8627 88.6699 97.9543 89.2755 97.3487C89.8811 96.7431 90.7895 96.7431 91.395 97.3487L117.133 123.086C117.738 123.692 117.738 124.6 117.133 125.206C116.83 125.509 116.527 125.66 116.073 125.66Z" fill="black"/>
<path d="M61.4189 110.217L54.6061 103.404C53.6977 102.496 53.6977 100.982 54.6061 100.225L61.4189 93.4118C62.3273 92.5034 63.8413 92.5034 64.5983 93.4118L71.4111 100.225C72.3195 101.133 72.3195 102.647 71.4111 103.404L64.5983 110.217C63.8413 111.125 62.3273 111.125 61.4189 110.217Z" fill="#4AC2FF"/>
<path d="M63.0836 112.337C62.1752 112.337 61.1154 112.034 60.3585 111.277L53.697 104.464C52.183 102.95 52.183 100.528 53.697 99.0138L60.5099 92.2009C62.0238 90.6869 64.4462 90.6869 65.9601 92.2009L72.773 99.0138C74.287 100.528 74.287 102.95 72.773 104.464L65.9601 111.277C65.0518 112.034 64.1434 112.337 63.0836 112.337ZM63.0836 94.1691C62.9322 94.1691 62.6294 94.1691 62.478 94.4719L55.6652 101.285C55.3624 101.588 55.3624 102.042 55.6652 102.344L62.478 109.157C62.7808 109.46 63.235 109.46 63.5378 109.157L70.3507 102.344C70.6534 102.042 70.6534 101.588 70.3507 101.285L63.5378 94.4719C63.5378 94.3205 63.235 94.1691 63.0836 94.1691Z" fill="black"/>
<path d="M100.781 140.951C100.327 140.951 100.024 140.8 99.721 140.497L73.9835 114.759C73.3779 114.154 73.3779 113.245 73.9835 112.64C74.5891 112.034 75.4975 112.034 76.103 112.64L101.841 138.377C102.446 138.983 102.446 139.891 101.841 140.497C101.538 140.8 101.084 140.951 100.781 140.951Z" fill="black"/>
<path d="M45.0684 126.567L38.2555 119.755C37.3471 118.846 37.3471 117.332 38.2555 116.575L45.0684 109.762C45.9767 108.854 47.4907 108.854 48.2477 109.762L55.0606 116.575C55.9689 117.484 55.9689 118.998 55.0606 119.755L48.2477 126.567C47.3393 127.476 45.9767 127.476 45.0684 126.567Z" fill="#4AC2FF"/>
<path d="M46.734 128.839C45.8256 128.839 44.7659 128.536 44.0089 127.779L37.196 120.966C35.6821 119.452 35.6821 117.03 37.196 115.516L44.0089 108.703C45.5229 107.189 47.9452 107.189 49.4592 108.703L56.272 115.516C57.786 117.03 57.786 119.452 56.272 120.966L49.4592 127.779C48.5508 128.384 47.6424 128.839 46.734 128.839ZM46.734 110.671C46.5826 110.671 46.2798 110.671 46.1284 110.974L39.3156 117.635C39.0128 117.938 39.0128 118.392 39.3156 118.695L46.1284 125.508C46.4312 125.811 46.8854 125.811 47.1882 125.508L54.0011 118.695C54.3039 118.392 54.3039 117.938 54.0011 117.635L47.1882 110.822C47.0368 110.822 46.8854 110.671 46.734 110.671Z" fill="black"/>
<path d="M84.2798 157.453C83.8256 157.453 83.5228 157.301 83.22 156.999L57.4825 131.261C56.8769 130.656 56.8769 129.747 57.4825 129.142C58.0881 128.536 58.9965 128.536 59.6021 129.142L85.3395 154.879C85.9451 155.485 85.9451 156.393 85.3395 156.999C85.0367 157.301 84.7339 157.453 84.2798 157.453Z" fill="black"/>
<path d="M128.488 29.674V54.0489L111.834 37.3953V21.1958L113.348 19.8332C114.862 18.3193 117.284 18.3193 118.647 19.8332L128.488 29.674Z" fill="#4AC2FF"/>
<path d="M148.775 33.6104V74.1847L137.571 62.9813V38.6064L140.599 41.6344L148.775 33.6104Z" fill="#4AC2FF"/>
<path d="M169.213 96.1371C168.759 96.1371 168.456 95.9857 168.154 95.6829L102.75 30.4308C102.145 29.8252 102.145 28.9169 102.75 28.3113L112.288 18.7733C114.408 16.6537 117.738 16.6537 119.858 18.7733L140.751 39.666L149.229 31.1878C154.225 26.1917 162.552 26.1917 167.548 31.1878C172.544 36.1839 172.544 44.5107 167.548 49.5068L159.07 57.985L179.811 78.7264C180.871 79.7862 181.325 80.9974 181.325 82.5113C181.325 84.0253 180.719 85.2365 179.811 86.2963L170.273 95.8343C169.97 95.9857 169.668 96.1371 169.213 96.1371ZM105.929 29.371L169.213 92.6549L177.692 84.1767C178.146 83.7225 178.297 83.1169 178.297 82.5113C178.297 81.9058 177.994 81.3002 177.692 80.846L155.739 59.0448C155.133 58.4392 155.133 57.5309 155.739 56.9253L165.277 47.3873C169.213 43.4509 169.213 37.2437 165.277 33.3074C161.341 29.371 155.133 29.371 151.197 33.3074L141.659 42.8454C141.053 43.4509 140.145 43.4509 139.54 42.8454L117.587 20.8928C116.679 19.9844 115.316 19.9844 114.408 20.8928L105.929 29.371Z" fill="black"/>
</svg>
