<svg width="191" height="198" viewBox="0 0 191 198" fill="none" xmlns="http://www.w3.org/2000/svg">
<path d="M188.996 102.638C188.996 124.356 181.501 144.545 168.96 160.299C151.829 182.018 125.369 195.936 95.5443 195.936C65.7193 195.936 39.1063 182.018 22.129 160.299C14.9404 151.275 9.58725 141.028 6.06943 129.862C3.46931 121.297 2.09277 112.12 2.09277 102.638C2.09277 51.0939 43.8477 9.18604 95.5443 9.18604C126.899 9.18604 154.582 24.6338 171.56 48.3408C182.572 63.6357 188.996 82.2954 188.996 102.638Z" fill="#FFB800" stroke="black" stroke-width="3.97666"/>
<path d="M52.4137 135.063V156.935C52.4137 158.77 50.8842 160.147 49.2018 160.147H22.1299C14.9413 151.276 9.58813 141.028 6.07031 129.863C6.52916 129.71 6.988 129.71 7.44685 129.71H46.9075C49.9665 129.71 52.4137 132.157 52.4137 135.063Z" fill="#4AC2FF" stroke="black" stroke-width="3.05897" stroke-linecap="round" stroke-linejoin="round"/>
<path d="M188.995 51.5527V102.638C188.995 124.356 181.5 144.545 168.959 160.299H141.887C140.051 160.299 138.675 158.77 138.675 157.087V51.5527C138.675 49.7174 140.204 48.3408 141.887 48.3408H185.63C187.465 48.3408 188.995 49.7174 188.995 51.5527Z" fill="#4AC2FF" stroke="black" stroke-width="3.05897" stroke-linecap="round" stroke-linejoin="round"/>
<path d="M117.417 160.299H73.6738C71.8384 160.299 70.4619 158.77 70.4619 157.087V105.85C70.4619 104.014 71.9914 102.638 73.6738 102.638H117.417C119.252 102.638 120.629 104.167 120.629 105.85V157.087C120.629 158.77 119.252 160.299 117.417 160.299Z" fill="#4AC2FF" stroke="black" stroke-width="3.05897" stroke-linecap="round" stroke-linejoin="round"/>
<path d="M129.04 23.7163L121.851 68.3772C121.698 69.6008 120.628 70.3656 119.404 70.3656C118.792 70.3656 118.027 70.0597 117.569 69.4479L106.709 56.6002L36.353 115.944C35.8942 116.403 35.2824 116.556 34.6706 116.556H34.5176C33.7529 116.556 32.9881 116.25 32.5293 115.638L16.7756 97.1315C16.3168 96.5198 16.0109 95.755 16.1638 94.9903V80.3072L77.4961 30.1401L81.1669 26.4694L76.7314 21.1162C76.2725 20.5044 76.1196 19.8926 76.1196 19.2808V3.83301L116.957 8.72736L117.722 8.88031L128.887 6.43313V22.1868C129.04 22.6457 129.04 23.2575 129.04 23.7163Z" fill="#4AC2FF" stroke="black" stroke-width="3.05897" stroke-linecap="round" stroke-linejoin="round"/>
<path d="M129.04 23.7163L121.851 68.3772C121.698 69.6008 120.627 70.3655 119.404 70.3655V55.0707L116.804 39.0111L117.568 25.0928L116.957 8.72733L117.721 8.88028L128.887 6.43311V22.1868C129.04 22.6456 129.04 23.2574 129.04 23.7163Z" fill="black" stroke="black" stroke-width="3.05897" stroke-linecap="round" stroke-linejoin="round"/>
<path d="M106.711 41.3057V56.6005L36.3544 115.944C35.8956 116.403 35.2838 116.556 34.672 116.556H34.519V101.261L30.6953 84.896L41.2488 73.8837L56.3906 57.8241L88.3569 41.9175L106.711 41.3057Z" fill="black" stroke="black" stroke-width="3.05897" stroke-linecap="round" stroke-linejoin="round"/>
<path d="M123.687 2.15062L78.567 1.84473C76.4257 1.84473 75.355 4.2919 76.7316 5.82139L87.5909 18.6691L17.2346 78.013C16.164 78.9307 16.0111 80.6132 16.9287 81.8368L32.5295 100.344C33.4472 101.414 35.1296 101.567 36.3532 100.649L106.709 41.3054L117.569 54.1531C118.945 55.6826 121.545 55.0708 121.851 52.9295L129.04 8.26856C129.499 5.20959 127.052 2.30357 123.687 2.15062Z" fill="#FDF7F4" stroke="black" stroke-width="3.05897" stroke-linecap="round" stroke-linejoin="round"/>
<path d="M146.02 55.0713H181.809" stroke="#FDF7F4" stroke-width="3.05897" stroke-linecap="round" stroke-linejoin="round"/>
<path d="M77.6504 109.826H108.546C111.299 109.826 113.44 111.967 113.44 114.721V118.697" stroke="#FDF7F4" stroke-width="3.05897" stroke-linecap="round" stroke-linejoin="round"/>
<path d="M24.8838 138.122H39.108C41.8611 138.122 44.0023 140.263 44.0023 143.016V146.993" stroke="#FDF7F4" stroke-width="3.05897" stroke-linecap="round" stroke-linejoin="round"/>
</svg>
