<svg width="26" height="21" viewBox="0 0 26 21" fill="none" xmlns="http://www.w3.org/2000/svg">
<path fill-rule="evenodd" clip-rule="evenodd" d="M25.1193 2.40621C24.1996 2.81475 23.21 3.08989 22.1719 3.21412C23.2316 2.5788 24.0454 1.57329 24.4281 0.375187C23.4376 0.963816 22.3379 1.38987 21.1698 1.62082C20.2335 0.623648 18.8986 0 17.4237 0C14.5898 0 12.292 2.29782 12.292 5.13175C12.292 5.53362 12.3378 5.92548 12.4254 6.30151C8.15987 6.08807 4.3788 4.04454 1.84753 0.939639C1.40564 1.69752 1.15301 2.57881 1.15301 3.51928C1.15301 5.29934 2.05763 6.87014 3.43582 7.7906C2.59373 7.76392 1.80333 7.53297 1.11049 7.14861V7.2128C1.11049 9.69989 2.88054 11.7734 5.22673 12.2462C4.79651 12.3629 4.34295 12.4263 3.87521 12.4263C3.54421 12.4263 3.22238 12.3937 2.90889 12.3337C3.56172 14.3722 5.45768 15.8563 7.70297 15.898C5.94709 17.2737 3.73431 18.095 1.32976 18.095C0.914553 18.095 0.506016 18.0708 0.10498 18.0224C2.37612 19.4781 5.07332 20.3286 7.97144 20.3286C17.4104 20.3286 22.5721 12.5088 22.5721 5.72788C22.5721 5.50527 22.568 5.2835 22.5571 5.06422C23.561 4.33886 24.4314 3.43507 25.1193 2.40621Z" fill="black"/>
</svg>
