<svg width="28" height="21" viewBox="0 0 28 21" fill="none" xmlns="http://www.w3.org/2000/svg">
<path d="M22.9453 1.82118C21.2178 1.05372 19.3652 0.48829 17.4283 0.164444C17.393 0.158194 17.3577 0.173814 17.3396 0.205053C17.1013 0.615325 16.8374 1.15056 16.6526 1.57125C14.5693 1.26928 12.4966 1.26928 10.456 1.57125C10.2712 1.14121 9.99769 0.615325 9.75837 0.205053C9.74019 0.174856 9.70496 0.159237 9.66968 0.164444C7.73379 0.487255 5.88124 1.05268 4.1526 1.82118C4.13764 1.82743 4.12481 1.83785 4.1163 1.85138C0.602394 6.93404 -0.360211 11.8918 0.112011 16.788C0.114147 16.812 0.128036 16.8349 0.147267 16.8495C2.46564 18.4979 4.71138 19.4986 6.91542 20.1619C6.95069 20.1723 6.98807 20.1598 7.01052 20.1317C7.53188 19.4424 7.99663 18.7155 8.39511 17.9512C8.41863 17.9064 8.39618 17.8533 8.34812 17.8356C7.61094 17.5648 6.90901 17.2348 6.23379 16.8599C6.18038 16.8297 6.17611 16.7557 6.22524 16.7203C6.36733 16.6172 6.50946 16.51 6.64514 16.4017C6.66968 16.3819 6.70389 16.3777 6.73275 16.3902C11.1686 18.351 15.971 18.351 20.3545 16.3902C20.3834 16.3767 20.4176 16.3809 20.4432 16.4007C20.5789 16.5089 20.721 16.6172 20.8641 16.7203C20.9133 16.7557 20.9101 16.8297 20.8567 16.8599C20.1814 17.242 19.4795 17.5648 18.7413 17.8346C18.6932 17.8523 18.6718 17.9064 18.6953 17.9512C19.1024 18.7144 19.5671 19.4413 20.0789 20.1306C20.1002 20.1598 20.1387 20.1723 20.174 20.1619C22.3887 19.4986 24.6344 18.4979 26.9528 16.8495C26.9731 16.8349 26.9859 16.813 26.9881 16.7891C27.5532 11.1285 26.0415 6.21138 22.9806 1.85241C22.9731 1.83785 22.9603 1.82743 22.9453 1.82118ZM9.05754 13.8067C7.72203 13.8067 6.62162 12.6196 6.62162 11.1618C6.62162 9.70394 7.70069 8.51686 9.05754 8.51686C10.425 8.51686 11.5148 9.71436 11.4934 11.1618C11.4934 12.6196 10.4143 13.8067 9.05754 13.8067ZM18.0639 13.8067C16.7285 13.8067 15.628 12.6196 15.628 11.1618C15.628 9.70394 16.7071 8.51686 18.0639 8.51686C19.4314 8.51686 20.5212 9.71436 20.4998 11.1618C20.4998 12.6196 19.4314 13.8067 18.0639 13.8067Z" fill="black"/>
</svg>
