<svg width="276" height="176" viewBox="0 0 276 176" fill="none" xmlns="http://www.w3.org/2000/svg">
<path d="M260.752 34.2182C252.754 24.6297 249.147 9.1693 236.993 9.1693C224.839 9.1693 224.525 27.3799 203.196 22.1769C172.536 14.6696 157.402 3 128.075 3C121.253 3 115.215 5.15554 110.04 8.57468C92.789 11.5478 63.4621 9.98694 54.5228 6.12183C45.5836 2.25672 27.0779 -2.05439 11.395 25.373C-4.28782 52.8004 4.49457 64.0241 17.4329 71.0111C29.6655 77.552 50.2101 90.7826 70.9898 110.257C63.3052 114.494 57.7378 122.298 64.9519 132.333C71.0683 140.732 80.0075 138.502 86.2022 132.555C81.1053 137.759 81.7326 147.198 88.8683 151.881C94.4357 155.523 103.924 155.597 110.354 149.874C106.511 154.706 107.374 164.368 118.038 169.274C124.468 172.247 133.8 166.227 138.897 158.868H139.053C136.544 164.443 138.348 169.497 142.739 171.504C147.757 173.734 159.049 173.808 162.891 163.774H162.97L163.048 163.922L169.321 164.517C179.594 165.409 186.808 162.51 185.239 147.124C192.61 148.09 199.197 147.57 202.177 142.739C204.216 139.394 203.745 134.86 203.196 131.887L202.726 132.035L202.961 131.738C209.313 134.414 227.113 129.805 222.565 113.304C222.565 113.304 232.837 115.534 238.561 106.986C244.364 98.4385 237.542 89.6676 237.542 89.6676C237.542 89.6676 245.069 78.89 253.225 73.9099C261.458 68.8555 288.511 67.4433 260.752 34.2182Z" fill="#4AC2FF"/>
<path d="M97.3363 21.4336C87.7698 22.2512 61.8146 20.616 43.2305 15.1899" stroke="white" stroke-width="5.5" stroke-linecap="round" stroke-linejoin="round"/>
<path d="M260.752 34.2182C252.754 24.6297 249.147 9.1693 236.992 9.1693C224.838 9.1693 224.524 27.3799 203.196 22.1769C172.536 14.6696 157.402 3 128.075 3C98.7481 3 83.7709 42.989 90.9851 48.4894C98.1992 53.9154 111.686 53.0234 120.469 43.212C129.33 33.4006 134.505 26.4136 146.345 31.0964C158.186 35.7791 220.761 69.0042 237.541 89.5933C237.541 89.5933 245.069 78.8156 253.224 73.8356C261.379 68.8555 288.51 67.4433 260.752 34.2182Z" fill="#4AC2FF" stroke="black" stroke-width="5.5" stroke-linecap="round" stroke-linejoin="round"/>
<path d="M110.04 8.57487C92.7885 11.548 63.4616 9.98713 54.5224 6.12202C45.5831 2.25691 27.0774 -2.0542 11.3945 25.3732C-4.28831 52.8006 4.49408 64.0243 17.4324 71.0113C30.3708 77.9982 52.7188 92.3437 74.8317 113.899" stroke="black" stroke-width="5.5" stroke-linecap="round" stroke-linejoin="round"/>
<path d="M191.512 96.8779C191.512 96.8779 213.076 101.784 222.564 113.305C222.564 113.305 232.836 115.535 238.56 106.987C244.363 98.4388 237.541 89.668 237.541 89.668" stroke="black" stroke-width="5.5" stroke-linecap="round" stroke-linejoin="round"/>
<path d="M182.259 121.926C182.259 121.926 196.609 129.062 202.961 131.738C209.312 134.414 227.112 129.805 222.564 113.304" stroke="black" stroke-width="5.5" stroke-linecap="round" stroke-linejoin="round"/>
<path d="M203.274 131.812C203.823 134.785 204.372 139.394 202.255 142.664C197.236 150.84 181.945 146.827 170.183 143.779" stroke="black" stroke-width="5.5" stroke-linecap="round" stroke-linejoin="round"/>
<path d="M185.317 147.124C186.885 162.584 179.593 165.483 169.399 164.517L163.126 163.922" stroke="black" stroke-width="5.5" stroke-linecap="round" stroke-linejoin="round"/>
<path d="M88.3189 107.73C81.34 103.196 51.8562 114.048 65.1082 132.333C78.3603 150.618 105.1 118.582 88.3189 107.73Z" fill="#4AC2FF" stroke="black" stroke-width="5.5" stroke-linecap="round" stroke-linejoin="round"/>
<path d="M86.986 132.035C81.2617 137.09 81.6538 147.124 89.1032 151.956C96.5525 156.787 110.902 155.3 115.842 142.218C120.783 129.062 117.254 127.353 113.647 124.9C110.04 122.373 100.63 119.92 86.986 132.035Z" fill="#4AC2FF" stroke="black" stroke-width="5.5" stroke-linecap="round" stroke-linejoin="round"/>
<path d="M112.078 148.462C106.746 152.55 106.354 163.848 118.273 169.274C130.192 174.7 151.913 149.651 139.053 141.698C129.016 135.603 112.078 148.462 112.078 148.462Z" fill="#4AC2FF" stroke="black" stroke-width="5.5" stroke-linecap="round" stroke-linejoin="round"/>
<path d="M140.778 156.415C136.309 162.956 137.955 169.348 142.974 171.653C148.071 173.883 159.519 173.957 163.205 163.551C166.89 153.145 164.616 148.313 159.598 147.273C154.501 146.306 148.071 145.712 140.778 156.415Z" fill="#4AC2FF" stroke="black" stroke-width="5.5" stroke-linecap="round" stroke-linejoin="round"/>
<path d="M115.372 16.9736C105.962 23.8119 100.16 36.2992 100.16 36.2992" stroke="white" stroke-width="5.5" stroke-linecap="round" stroke-linejoin="round"/>
<path d="M187.121 28.3461C167.596 21.5078 141.562 11.399 126.585 12.6626" stroke="white" stroke-width="5.5" stroke-linecap="round" stroke-linejoin="round"/>
<path d="M199.981 74.1328C216.526 85.3565 231.268 95.0193 229.386 99.1073" stroke="white" stroke-width="5.5" stroke-linecap="round" stroke-linejoin="round"/>
<path d="M103.375 130.177C103.375 130.177 108.001 131.367 109.334 135.083" stroke="white" stroke-width="5.5" stroke-linecap="round" stroke-linejoin="round"/>
<path d="M77.6548 114.271C77.6548 114.271 85.9667 115.98 84.7905 122.298" stroke="white" stroke-width="5.5" stroke-linecap="round" stroke-linejoin="round"/>
</svg>
