<svg width="123" height="202" viewBox="0 0 123 202" fill="none" xmlns="http://www.w3.org/2000/svg">
<path d="M68.038 62.3037H18.3862V194.758H68.038V62.3037Z" fill="#4AC2FF"/>
<path d="M101.155 36.1827C103.951 20.7102 96.0974 6.33897 83.6144 4.08363C71.1314 1.8283 58.7457 12.5429 55.9503 28.0154C53.1548 43.4878 61.0081 57.8591 73.4912 60.1144C85.9742 62.3698 98.3598 51.6551 101.155 36.1827Z" fill="#FFB800" stroke="black" stroke-width="5.5" stroke-linecap="round" stroke-linejoin="round"/>
<path d="M80.9712 13.4697C81.4915 13.4697 82.0118 13.5441 82.4578 13.6184C89.1474 14.8077 93.3841 23.9501 91.6745 33.6129" stroke="white" stroke-width="5.5" stroke-linecap="round" stroke-linejoin="round"/>
<path d="M18.7578 61.8579C10.9532 71.6693 3 95.083 3 118.422C3 141.762 3 193.569 3 193.569C3 193.569 20.0957 198.623 48.3407 195.502" fill="#4AC2FF"/>
<path d="M18.7578 61.8579C10.9532 71.6693 3 95.083 3 118.422C3 141.762 3 193.569 3 193.569C3 193.569 20.0957 198.623 48.3407 195.502" stroke="black" stroke-width="5.5" stroke-linecap="round" stroke-linejoin="round"/>
<path d="M26.7109 44.2417C19.724 44.762 15.1899 47.0662 15.1899 53.8301C15.1899 60.5941 22.2512 65.7228 32.6573 72.2637C43.0633 78.8047 54.8073 82.6698 52.5774 102.739C50.4219 122.807 48.3407 157.445 48.3407 195.501C48.3407 195.501 79.1129 202.265 119.622 194.832C119.622 194.832 119.102 117.53 118.805 98.2789C118.507 79.0277 120.143 45.2823 67.4432 48.0325L48.192 47.1405L36.7454 44.2417L26.9339 44.8363" fill="#FFB800"/>
<path d="M26.7109 44.2417C19.724 44.762 15.1899 47.0662 15.1899 53.8301C15.1899 60.5941 22.2512 65.7228 32.6573 72.2637C43.0633 78.8047 54.8073 82.6698 52.5774 102.739C50.4219 122.807 48.3407 157.445 48.3407 195.501C48.3407 195.501 79.1129 202.265 119.622 194.832C119.622 194.832 119.102 117.53 118.805 98.2789C118.507 79.0277 120.143 45.2823 67.4432 48.0325L48.192 47.1405L36.7454 44.2417L26.9339 44.8363" stroke="black" stroke-width="5.5" stroke-linecap="round" stroke-linejoin="round"/>
<path d="M52.1627 60.6849C64.6457 58.4296 72.499 44.0583 69.7036 28.5859C66.9081 13.1134 54.5225 2.39881 42.0395 4.65415C29.5565 6.90948 21.7032 21.2807 24.4986 36.7532C27.2941 52.2256 39.6797 62.9402 52.1627 60.6849Z" fill="#4AC2FF" stroke="black" stroke-width="5.5" stroke-linecap="round" stroke-linejoin="round"/>
<path d="M34.6645 33.836C33.1036 25.1395 36.82 16.6659 42.6177 15.551C42.9893 15.4767 43.4353 15.4023 43.8813 15.4023" stroke="white" stroke-width="5.5" stroke-linecap="round" stroke-linejoin="round"/>
<path d="M98.3643 62.6758C103.567 70.0344 105.723 78.6565 105.723 95.3062C105.723 111.956 105.277 122.288 105.277 122.288" stroke="white" stroke-width="5.5" stroke-linecap="round" stroke-linejoin="round"/>
<path d="M105.018 58.4738C108.825 53.8976 108.943 47.7192 105.282 44.674C101.621 41.6288 95.5675 42.8699 91.761 47.446C87.9545 52.0222 87.8364 58.2006 91.4974 61.2458C95.1583 64.291 101.212 63.05 105.018 58.4738Z" fill="#4AC2FF" stroke="black" stroke-width="5.5" stroke-linecap="round" stroke-linejoin="round"/>
<path d="M49.9762 85.9404C56.2942 88.0216 65.6597 77.9129 69.2275 74.1221C73.3156 69.7367 82.3837 63.2701 86.9921 68.1015C93.9047 75.3857 87.9583 82.3726 79.7821 92.3327C71.6803 102.218 62.3149 114.631 46.7801 110.32C31.2453 106.009 28.4951 104.077 28.4951 104.077" fill="#4AC2FF"/>
<path d="M49.9762 85.9404C56.2942 88.0216 65.6597 77.9129 69.2275 74.1221C73.3156 69.7367 82.3837 63.2701 86.9921 68.1015C93.9047 75.3857 87.9583 82.3726 79.7821 92.3327C71.6803 102.218 62.3149 114.631 46.7801 110.32C31.2453 106.009 28.4951 104.077 28.4951 104.077" stroke="black" stroke-width="5.5" stroke-linecap="round" stroke-linejoin="round"/>
<path d="M101.189 51.1548C101.189 51.1548 99.4792 53.905 97.3979 54.7226" stroke="white" stroke-width="5.5" stroke-linecap="round" stroke-linejoin="round"/>
<path d="M14.9673 122.288C14.9673 125.261 15.0416 128.383 15.1903 131.802" stroke="white" stroke-width="5.5" stroke-linecap="round" stroke-linejoin="round"/>
<path d="M21.8057 79.6968C18.9812 86.6837 16.008 95.9005 15.1904 112.773" stroke="white" stroke-width="5.5" stroke-linecap="round" stroke-linejoin="round"/>
<path d="M80.451 76.3521C79.1874 79.2509 67.2204 95.9006 56.8887 101.178" stroke="white" stroke-width="5.5" stroke-linecap="round" stroke-linejoin="round"/>
</svg>
