<svg width="203" height="203" viewBox="0 0 203 203" fill="none" xmlns="http://www.w3.org/2000/svg">
<path d="M188.026 108.284C188.026 159.387 146.476 200.936 95.3732 200.936C93.0985 200.936 90.9756 200.936 88.8526 200.785C42.9055 197.6 6.20844 160.903 3.02398 114.956C2.87234 112.833 2.7207 110.559 2.7207 108.436C2.7207 57.3327 44.2702 15.7832 95.3732 15.7832C97.4961 15.7832 99.7707 15.7832 101.894 16.0865C147.841 18.9677 184.538 55.6647 187.722 101.763C187.874 103.886 188.026 106.009 188.026 108.284Z" fill="#FFB800" stroke="black" stroke-width="3.94266"/>
<path d="M198.641 90.8453L88.853 200.633C42.9059 197.449 6.20887 160.752 3.02441 114.804L112.661 5.01664C116.3 1.37727 122.062 1.37727 125.702 5.01664L198.641 77.9558C202.129 81.4435 202.129 87.2059 198.641 90.8453Z" fill="#4AC2FF" stroke="black" stroke-width="3.03281" stroke-linecap="round" stroke-linejoin="round"/>
<path d="M125.701 5.01664L198.641 77.9558C202.28 81.5952 202.28 87.3575 198.641 90.9969L138.288 151.198L52.459 65.218L112.66 5.01664C116.3 1.37727 122.062 1.37727 125.701 5.01664Z" fill="#FDF7F4" stroke="black" stroke-width="3.03281" stroke-linecap="round" stroke-linejoin="round"/>
<path d="M70.96 84.0213L82.1814 89.4803L86.4273 77.6523L90.6733 89.4803L102.046 84.0213L96.5873 95.3943L108.415 99.6402L96.5873 103.735L102.046 115.108L90.6733 109.8L86.4273 121.628L82.1814 109.8L70.96 115.108L76.2674 103.735L64.4395 99.6402L76.2674 95.3943L70.96 84.0213Z" fill="black" stroke="black" stroke-width="3.03281" stroke-linecap="round" stroke-linejoin="round"/>
<path d="M101.743 114.653L71.4146 84.3251L71.1113 83.7185L82.4844 89.1776L86.7303 77.3496L90.9763 89.1776L102.349 83.7185L96.8902 95.0916L108.718 99.3375L96.8902 103.583L102.349 114.805L101.743 114.653Z" fill="#4AC2FF" stroke="black" stroke-width="3.03281" stroke-linecap="round" stroke-linejoin="round"/>
<path d="M48.6693 152.563C58.0492 152.563 65.6531 144.959 65.6531 135.579C65.6531 126.2 58.0492 118.596 48.6693 118.596C39.2894 118.596 31.6855 126.2 31.6855 135.579C31.6855 144.959 39.2894 152.563 48.6693 152.563Z" fill="black" stroke="black" stroke-width="3.03281" stroke-linecap="round" stroke-linejoin="round"/>
<path d="M60.6481 147.559C53.8243 154.383 53.8243 165.605 60.6481 172.428L73.0827 184.863L97.8001 159.994L85.3656 147.559C78.5417 140.735 67.472 140.735 60.6481 147.559Z" fill="black" stroke="black" stroke-width="3.03281" stroke-linecap="round" stroke-linejoin="round"/>
<path d="M98.1035 138.612L161.641 75.2266" stroke="black" stroke-width="3.03281" stroke-linecap="round" stroke-linejoin="round"/>
<path d="M107.808 148.469L144.201 112.227" stroke="black" stroke-width="3.03281" stroke-linecap="round" stroke-linejoin="round"/>
<path d="M149.509 67.6445L129.037 88.116C127.824 89.3291 125.853 89.3291 124.64 88.116L99.6188 63.0953C98.4057 61.8822 98.4057 59.9109 99.6188 58.6977L120.09 38.2263C121.303 37.0131 123.275 37.0131 124.488 38.2263L149.509 63.247C150.722 64.3084 150.722 66.4314 149.509 67.6445Z" fill="#4AC2FF" stroke="black" stroke-width="3.03281" stroke-linecap="round" stroke-linejoin="round"/>
</svg>
