<svg width="28" height="21" viewBox="0 0 28 21" fill="none" xmlns="http://www.w3.org/2000/svg">
<path d="M23.5615 1.82118C21.834 1.05372 19.9814 0.48829 18.0445 0.164444C18.0092 0.158194 17.974 0.173814 17.9558 0.205053C17.7175 0.615325 17.4536 1.15056 17.2688 1.57125C15.1855 1.26928 13.1128 1.26928 11.0722 1.57125C10.8874 1.14121 10.6139 0.615325 10.3746 0.205053C10.3564 0.174856 10.3212 0.159237 10.2859 0.164444C8.35 0.487255 6.49745 1.05268 4.76881 1.82118C4.75385 1.82743 4.74102 1.83785 4.73251 1.85138C1.21861 6.93404 0.256 11.8918 0.728222 16.788C0.730358 16.812 0.744247 16.8349 0.763478 16.8495C3.08185 18.4979 5.32759 19.4986 7.53163 20.1619C7.5669 20.1723 7.60428 20.1598 7.62673 20.1317C8.14809 19.4424 8.61284 18.7155 9.01132 17.9512C9.03484 17.9064 9.01239 17.8533 8.96433 17.8356C8.22715 17.5648 7.52522 17.2348 6.85 16.8599C6.7966 16.8297 6.79232 16.7557 6.84145 16.7203C6.98354 16.6172 7.12567 16.51 7.26135 16.4017C7.28589 16.3819 7.3201 16.3777 7.34896 16.3902C11.7848 18.351 16.5872 18.351 20.9707 16.3902C20.9996 16.3767 21.0338 16.3809 21.0594 16.4007C21.1951 16.5089 21.3372 16.6172 21.4804 16.7203C21.5295 16.7557 21.5263 16.8297 21.4729 16.8599C20.7977 17.242 20.0957 17.5648 19.3575 17.8346C19.3094 17.8523 19.288 17.9064 19.3116 17.9512C19.7186 18.7144 20.1833 19.4413 20.6951 20.1306C20.7165 20.1598 20.7549 20.1723 20.7902 20.1619C23.0049 19.4986 25.2506 18.4979 27.569 16.8495C27.5893 16.8349 27.6021 16.813 27.6043 16.7891C28.1694 11.1285 26.6577 6.21138 23.5968 1.85241C23.5893 1.83785 23.5765 1.82743 23.5615 1.82118ZM9.67375 13.8067C8.33825 13.8067 7.23783 12.6196 7.23783 11.1618C7.23783 9.70394 8.31691 8.51686 9.67375 8.51686C11.0412 8.51686 12.131 9.71436 12.1096 11.1618C12.1096 12.6196 11.0306 13.8067 9.67375 13.8067ZM18.6801 13.8067C17.3447 13.8067 16.2442 12.6196 16.2442 11.1618C16.2442 9.70394 17.3233 8.51686 18.6801 8.51686C20.0477 8.51686 21.1374 9.71436 21.116 11.1618C21.116 12.6196 20.0477 13.8067 18.6801 13.8067Z" fill="#FFB800"/>
</svg>
