<svg width="124" height="124" viewBox="0 0 124 124" fill="none" xmlns="http://www.w3.org/2000/svg">
<path d="M61.8076 115.667C91.3073 115.667 115.222 91.7526 115.222 62.2529C115.222 32.7531 91.3073 8.83887 61.8076 8.83887C32.3078 8.83887 8.39355 32.7531 8.39355 62.2529C8.39355 91.7526 32.3078 115.667 61.8076 115.667Z" fill="#4AC2FF"/>
<path d="M61.8071 116.705C54.4611 116.705 47.3226 115.266 40.613 112.43C34.1247 109.691 28.3005 105.762 23.3064 100.754C18.3122 95.7461 14.3833 89.9357 11.6303 83.4474C8.79423 76.7378 7.35547 69.5993 7.35547 62.2534C7.35547 54.9074 8.79423 47.7689 11.6303 41.0593C14.3694 34.571 18.2984 28.7468 23.3064 23.7526C28.3144 18.7585 34.1247 14.8296 40.613 12.0765C47.3226 9.24052 54.4611 7.80176 61.8071 7.80176C69.153 7.80176 76.2915 9.24052 83.0011 12.0765C89.4894 14.8157 95.3136 18.7446 100.308 23.7526C105.302 28.7606 109.231 34.571 111.97 41.0593C114.806 47.7689 116.245 54.9074 116.245 62.2534C116.245 69.5993 114.806 76.7378 111.97 83.4474C109.231 89.9357 105.302 95.7599 100.308 100.754C95.3136 105.748 89.4894 109.677 83.0011 112.43C76.2915 115.266 69.153 116.705 61.8071 116.705ZM61.8071 9.87689C32.9212 9.87689 9.43061 33.3674 9.43061 62.2534C9.43061 91.1393 32.9212 114.63 61.8071 114.63C90.693 114.63 114.184 91.1393 114.184 62.2534C114.184 33.3674 90.693 9.87689 61.8071 9.87689Z" fill="black"/>
<path d="M61.8085 107.75C86.9473 107.75 107.326 87.3707 107.326 62.2318C107.326 37.0929 86.9473 16.7139 61.8085 16.7139C36.6696 16.7139 16.2905 37.0929 16.2905 62.2318C16.2905 87.3707 36.6696 107.75 61.8085 107.75Z" fill="white"/>
<path d="M29.3098 45.5273C28.9087 45.2783 28.798 44.7664 29.047 44.3652L30.4719 42.124C30.9976 41.3078 31.634 40.8098 32.3257 40.6576C32.9206 40.5331 33.5431 40.6576 34.1518 41.045L34.1657 41.0588C35.1756 41.709 35.4799 42.6082 35.3001 43.6043L37.1262 43.383C37.389 43.3553 37.5966 43.3553 37.8179 43.4936C38.2191 43.7426 38.2606 44.2407 38.0393 44.5865C37.8317 44.9047 37.5412 45.0154 37.223 45.0569L34.5945 45.3198L33.8751 46.4542L35.2862 47.3534C35.6874 47.6024 35.7981 48.1143 35.5491 48.5155C35.3001 48.9167 34.7882 49.0273 34.387 48.7783L29.3098 45.5273ZM33.557 44.2268C33.9997 43.5351 33.889 42.8988 33.3356 42.5529L33.3218 42.5391C32.7131 42.1517 32.132 42.3731 31.6893 43.0648L30.7901 44.4759L32.6439 45.6518L33.557 44.2268ZM34.8297 49.1242C34.6499 49.1242 34.4562 49.0688 34.2902 48.9582L29.1992 45.7071C28.964 45.5549 28.798 45.3198 28.7426 45.0431C28.6873 44.7664 28.7288 44.4897 28.881 44.2545L30.3059 42.0134C30.8454 41.1695 31.5372 40.6299 32.2842 40.4639C32.9344 40.3256 33.6123 40.4639 34.2625 40.879L34.2763 40.8928C35.2032 41.4877 35.6459 42.3454 35.5491 43.3691L37.1124 43.1754C37.3752 43.1478 37.6519 43.1339 37.9424 43.3276C38.4543 43.6596 38.4958 44.2822 38.2329 44.711C38.0254 45.0431 37.7072 45.2229 37.2645 45.2644L34.7329 45.5134L34.1795 46.385L35.4107 47.1735C35.6459 47.3257 35.8119 47.5609 35.8673 47.8376C35.9226 48.1143 35.8811 48.391 35.7289 48.6261C35.5214 48.9582 35.1756 49.1242 34.8297 49.1242ZM32.8376 40.8236C32.6854 40.8236 32.5332 40.8375 32.381 40.8651C31.7308 41.0035 31.1498 41.4738 30.6518 42.2347L29.2268 44.4759C29.13 44.6142 29.1023 44.7941 29.1438 44.9601C29.1853 45.1261 29.2822 45.2644 29.4205 45.3613L34.5115 48.6123C34.8159 48.806 35.1894 48.723 35.3831 48.4186C35.4799 48.2803 35.5076 48.1004 35.4661 47.9344C35.4246 47.7684 35.3277 47.6301 35.1894 47.5332L33.5985 46.5233L34.4839 45.1261L37.223 44.8494C37.5412 44.8217 37.7349 44.711 37.8871 44.4759C38.0393 44.2268 38.0254 43.8672 37.7211 43.6735C37.5551 43.5628 37.4167 43.5628 37.1677 43.5905L35.0649 43.8395L35.1202 43.5628C35.3001 42.5667 34.9404 41.792 34.0688 41.2387L34.055 41.2248C33.6538 40.9758 33.2388 40.8375 32.8376 40.8236ZM32.6992 45.9423L30.4996 44.5312L31.5095 42.9403C31.7585 42.5529 32.049 42.2901 32.3672 42.1932C32.7131 42.0825 33.0728 42.1379 33.4186 42.3592L33.4325 42.3731C34.0965 42.7881 34.2072 43.5628 33.7091 44.3237L32.6992 45.9423ZM31.0806 44.4067L32.5886 45.3613L33.3909 44.1023C33.7506 43.5351 33.6953 43.0094 33.2388 42.7189L33.2249 42.7051C32.9759 42.5529 32.7407 42.5114 32.5194 42.5806C32.298 42.6636 32.0629 42.8573 31.8692 43.1616L31.0806 44.4067ZM37.3475 40.1596L34.9819 37.4481C34.6775 37.0884 34.7052 36.5765 35.0649 36.2583C35.4246 35.954 35.9364 35.9816 36.2546 36.3413L38.5926 39.0113C39.4088 39.9521 40.3081 40.0212 41.0828 39.3434C41.8575 38.6655 41.9128 37.7939 41.1243 36.8809L38.7448 34.1694C38.4404 33.8097 38.4681 33.2978 38.8278 32.9796C39.1875 32.6753 39.6994 32.7029 40.0176 33.0626L42.3417 35.7326C43.8635 37.4757 43.6283 39.1912 42.0927 40.5469C40.5571 41.9027 38.8278 41.8474 37.3475 40.1596ZM39.7962 41.6952C38.8831 41.6675 37.9978 41.1971 37.1954 40.2841L34.8297 37.5726C34.6499 37.3651 34.553 37.0884 34.5669 36.8117C34.5807 36.535 34.719 36.2722 34.9265 36.0923C35.3692 35.705 36.0195 35.7465 36.4068 36.1892L38.7448 38.8592C39.1183 39.2742 39.4919 39.5232 39.8792 39.5647C40.2389 39.6062 40.5986 39.4817 40.9444 39.1773C41.65 38.5548 41.6638 37.8078 40.9583 37.0054L38.5788 34.2939C38.3989 34.0863 38.3021 33.8097 38.3159 33.533C38.3298 33.2563 38.4681 32.9934 38.6756 32.8136C38.8831 32.6338 39.1598 32.5369 39.4365 32.5507C39.7132 32.5646 39.9761 32.7029 40.1559 32.9104L42.48 35.5804C44.0156 37.3374 43.905 39.1912 42.2034 40.6853C41.4286 41.3908 40.5986 41.7228 39.7962 41.6952ZM37.5136 40.0212C38.8693 41.5707 40.4464 41.6952 41.9543 40.3809C43.4761 39.039 43.573 37.4481 42.1895 35.871L39.8654 33.201C39.7547 33.0764 39.6025 32.9934 39.4365 32.9796C39.2705 32.9658 39.1045 33.0211 38.98 33.1318C38.8555 33.2425 38.7725 33.3946 38.7586 33.5606C38.7448 33.7267 38.8001 33.8927 38.9108 34.0172L41.2903 36.7287C42.148 37.7109 42.1204 38.707 41.235 39.4955C40.8061 39.8691 40.3219 40.0351 39.8515 39.9797C39.3673 39.9244 38.897 39.6339 38.4543 39.1358L36.1163 36.4658C36.0056 36.3413 35.8534 36.2583 35.6874 36.2445C35.5214 36.2307 35.3554 36.286 35.2309 36.3967C35.1064 36.5073 35.0234 36.6595 35.0096 36.8255C34.9957 36.9915 35.0511 37.1575 35.1617 37.2821L37.5136 40.0212ZM44.2232 33.8927L44.2093 33.8788C43.3239 31.9005 44.1402 29.5764 46.243 28.6218C47.2944 28.1515 48.1106 28.0684 48.9268 28.2345C49.1205 28.276 49.3833 28.4143 49.5217 28.7048C49.7154 29.1199 49.5217 29.6179 49.1067 29.7977C48.8853 29.8946 48.7055 29.8807 48.5671 29.8531C48.0137 29.7424 47.488 29.7701 46.824 30.0606C45.7034 30.5586 45.2607 31.942 45.8003 33.1318L45.8141 33.1456C46.3813 34.4184 47.6817 34.9717 48.9268 34.4045C49.4802 34.1555 49.9229 33.7958 50.1857 33.3393L49.743 32.3432L48.7055 32.8136C48.3319 32.9796 47.9031 32.8274 47.7371 32.4539C47.5711 32.0804 47.7371 31.6515 48.1106 31.4855L49.8675 30.697C50.2964 30.5033 50.7806 30.697 50.9743 31.1258L51.7352 32.8274C51.9427 33.2701 51.9012 33.6575 51.6383 34.0448C51.2233 34.6535 50.5593 35.3729 49.5078 35.8433C47.3359 36.8117 45.1501 35.9678 44.2232 33.8927ZM47.5987 36.452C47.156 36.4382 46.7272 36.3552 46.326 36.203C45.3299 35.8295 44.5137 35.0409 44.0433 33.9895L44.0295 33.9757C43.573 32.9519 43.5315 31.8314 43.9188 30.8076C44.3062 29.7701 45.1086 28.9262 46.1738 28.4558C47.2114 27.9993 48.0414 27.8748 48.9821 28.0546C49.1482 28.0961 49.5355 28.2206 49.7292 28.6495C49.8399 28.8985 49.8537 29.189 49.7569 29.438C49.66 29.7009 49.4663 29.9084 49.2173 30.0191C48.9406 30.1436 48.7193 30.1159 48.5533 30.0882C47.9861 29.9776 47.5019 30.0329 46.9347 30.2819C45.9386 30.7246 45.5236 31.9835 46.0078 33.0764L46.0216 33.0903C46.2845 33.6575 46.6995 34.0863 47.2114 34.3077C47.7232 34.5152 48.3043 34.5014 48.8438 34.2524C49.328 34.031 49.7154 33.7267 49.9505 33.3531L49.6324 32.6476L48.7885 33.0349C48.5533 33.1318 48.3043 33.1456 48.0691 33.0626C47.8339 32.9796 47.6541 32.7998 47.5434 32.5784C47.3359 32.108 47.5434 31.5547 48.0137 31.3333L49.7707 30.5448C50.3102 30.3096 50.9189 30.5309 51.1541 31.0705L51.915 32.7721C52.1502 33.284 52.1087 33.7543 51.7905 34.197C51.2233 35.0271 50.4762 35.6634 49.577 36.0646C48.9406 36.3275 48.2628 36.4658 47.5987 36.452ZM44.4168 33.8097C44.8457 34.7642 45.5789 35.4698 46.4781 35.8156C47.3912 36.1615 48.4288 36.0923 49.4248 35.6496C50.2549 35.2761 50.9466 34.6951 51.4723 33.9342C51.7075 33.6021 51.7213 33.2978 51.5553 32.9104L50.7944 31.2088C50.6423 30.8906 50.2826 30.7385 49.9505 30.8906L48.1936 31.6792C48.0691 31.7345 47.9722 31.8452 47.9169 31.9697C47.8616 32.0942 47.8754 32.2464 47.9307 32.3709C47.9861 32.4954 48.0829 32.5922 48.2213 32.6337C48.3458 32.6753 48.4979 32.6753 48.6225 32.6199L49.8537 32.0665L50.4347 33.3531L50.3794 33.45C50.1027 33.9342 49.6324 34.3354 49.0236 34.5982C48.3734 34.8887 47.6817 34.9164 47.0592 34.6536C46.4505 34.4045 45.9386 33.8927 45.6481 33.2286L45.6343 33.2148C45.0532 31.9144 45.5513 30.4064 46.7687 29.8669C47.405 29.5764 47.9722 29.521 48.6363 29.6456C48.7746 29.6732 48.8991 29.6732 49.0513 29.6041C49.2035 29.5349 49.3142 29.4104 49.3833 29.2582C49.4387 29.106 49.4387 28.94 49.3695 28.7878C49.2588 28.525 49.0098 28.4558 48.913 28.4281C48.0691 28.2621 47.3082 28.3866 46.3536 28.8017C45.3991 29.2305 44.6659 29.9914 44.32 30.9183C43.9741 31.8452 44.0156 32.8551 44.4168 33.7682V33.8097ZM57.8222 26.5328C57.8222 26.0625 58.1958 25.689 58.6661 25.689H61.3223C62.2907 25.689 63.0516 25.9656 63.5496 26.4637C63.9785 26.8925 64.2137 27.4874 64.2137 28.2068V28.2345C64.2137 29.438 63.6188 30.1851 62.6919 30.5586L63.8678 31.9835C64.0338 32.1911 64.1445 32.3709 64.1445 32.6337C64.1445 33.1041 63.7571 33.4085 63.3421 33.4085C62.9547 33.4085 62.7057 33.2286 62.512 32.9658L60.8658 30.8906H59.5238V32.5646C59.5238 33.0349 59.1503 33.4085 58.68 33.4085C58.2096 33.4085 57.8361 33.0349 57.8361 32.5646L57.8222 26.5328ZM61.2116 29.4104C62.0278 29.4104 62.4982 28.9677 62.4982 28.3313V28.3036C62.4982 27.5842 62.0002 27.2107 61.1701 27.2107H59.4962V29.4104H61.2116ZM58.6385 33.616C58.0712 33.6021 57.6147 33.1456 57.6147 32.5646L57.6009 26.5328C57.6009 25.938 58.0574 25.4814 58.6523 25.4814H61.3085C62.3184 25.4814 63.1346 25.772 63.688 26.3115C64.1583 26.7819 64.4073 27.4321 64.4073 28.2068V28.2206C64.4073 29.3274 63.9231 30.1574 63.0101 30.6278L64.0061 31.8452C64.1721 32.0527 64.3243 32.2741 64.3243 32.6199C64.3243 32.8966 64.2137 33.1595 64.0061 33.3393C63.8263 33.5053 63.5634 33.6021 63.3144 33.6021C62.9132 33.6021 62.595 33.4361 62.3184 33.0903L60.7551 31.0981H59.7175V32.5646C59.7175 32.8413 59.6068 33.1179 59.4132 33.3116C59.2195 33.5053 58.9566 33.616 58.6661 33.616C58.6661 33.616 58.6523 33.616 58.6385 33.616ZM61.4468 25.8965C61.4053 25.8965 61.3638 25.8965 61.3223 25.8965H58.6661C58.3064 25.8965 58.0297 26.1732 58.0297 26.5328L58.0436 32.5646C58.0436 32.9243 58.3203 33.201 58.68 33.201C58.846 33.201 59.012 33.1318 59.1365 33.0211C59.261 32.8966 59.3163 32.7444 59.3163 32.5646V30.6831H60.9626L62.6642 32.8413C62.8579 33.0903 63.0654 33.201 63.3283 33.201C63.4804 33.201 63.6326 33.1456 63.7433 33.0488C63.8263 32.9796 63.9231 32.8413 63.9231 32.6337C63.9231 32.4401 63.854 32.3156 63.688 32.1219L62.346 30.4894L62.6089 30.3788C63.5358 29.9914 64.0061 29.272 64.0061 28.2345V28.2206C64.0061 27.5566 63.7986 27.0032 63.4113 26.6159C62.9547 26.1732 62.2769 25.9241 61.4468 25.8965ZM59.3025 29.6179V27.0032H61.184C61.6405 27.0032 62.014 27.1139 62.2769 27.3214C62.5535 27.5427 62.7057 27.8886 62.7057 28.3036V28.3175C62.7057 29.106 62.1247 29.604 61.2116 29.6179H59.3025ZM59.7037 27.4182V29.2029H61.1978C61.8757 29.2029 62.2769 28.8708 62.2769 28.3313V28.3175C62.2769 28.0269 62.18 27.8056 62.0002 27.6673C61.8065 27.5151 61.516 27.4321 61.1563 27.4321L59.7037 27.4182ZM65.7631 32.4262L70.0102 27.3906C70.3007 27.0447 70.7019 26.8925 71.1446 27.0309L71.2414 27.0585C71.6841 27.1831 71.9193 27.5151 71.9885 27.9716L72.8601 34.5014C72.8739 34.6259 72.8739 34.7504 72.8462 34.8472C72.7217 35.2761 72.279 35.5251 71.8502 35.4006C71.4766 35.2899 71.283 34.9994 71.2414 34.612L71.0893 33.3116L67.8521 32.3709L66.9805 33.4223C66.7592 33.699 66.4271 33.8097 66.0951 33.7128C65.6801 33.5883 65.4449 33.1595 65.5694 32.7444C65.6109 32.6199 65.6801 32.5231 65.7631 32.4262ZM70.9094 31.7069L70.6051 28.9815L68.8758 31.112L70.9094 31.7069ZM72.0577 35.6358C71.9747 35.6358 71.8778 35.6219 71.7948 35.5943C71.366 35.4698 71.1031 35.1239 71.0339 34.6397L70.8956 33.4776L67.9212 32.6061L67.1465 33.5606C66.856 33.9065 66.4548 34.031 66.0398 33.9203C65.7769 33.8512 65.5694 33.6713 65.4449 33.45C65.3204 33.2148 65.2927 32.9519 65.3757 32.6891C65.4172 32.5231 65.5279 32.3986 65.6109 32.2879L69.858 27.2522C70.2177 26.8234 70.7019 26.6712 71.1999 26.8234L71.2968 26.851C71.7948 27.0032 72.113 27.3767 72.196 27.9301L73.0676 34.4599C73.0952 34.6259 73.0814 34.7642 73.0537 34.8887C72.9707 35.1516 72.8047 35.3591 72.5695 35.4974C72.4035 35.5943 72.2375 35.6358 72.0577 35.6358ZM67.7829 32.1357L71.283 33.1595L71.449 34.5982C71.4905 34.9302 71.6426 35.1239 71.9193 35.2069C72.0715 35.2484 72.2375 35.2346 72.3759 35.1516C72.5142 35.0686 72.611 34.9441 72.6664 34.7919C72.6802 34.7227 72.694 34.6397 72.6664 34.529L71.7948 27.9993C71.7395 27.6119 71.5458 27.3629 71.1999 27.2522L71.1031 27.2246C70.6604 27.1001 70.3699 27.3214 70.19 27.5289L65.9429 32.5646C65.8738 32.6337 65.8184 32.7168 65.7908 32.7998C65.7493 32.9519 65.7631 33.1041 65.8323 33.2425C65.9014 33.3808 66.0259 33.4776 66.1781 33.5191C66.4271 33.5883 66.6761 33.5191 66.856 33.2978L67.7829 32.1357ZM71.1446 31.9974L68.5161 31.2227L70.7573 28.4696L71.1446 31.9974ZM69.2355 31.0013L70.6742 31.4163L70.4529 29.4934L69.2355 31.0013ZM77.702 30.5586C77.9649 30.1713 78.4768 30.0606 78.8641 30.3234L80.6487 31.4993C82.6547 32.8274 83.1251 35.1239 81.9492 36.9085L81.9353 36.9224C80.7456 38.7208 78.4353 39.1912 76.4293 37.8769L74.6447 36.701C74.2573 36.4382 74.1466 35.9263 74.4095 35.5389L77.702 30.5586ZM77.2732 36.618C78.4214 37.3789 79.708 37.116 80.4551 35.9816L80.4689 35.9678C81.2159 34.8334 80.9669 33.533 79.8187 32.7721L78.7396 32.0527L76.1941 35.8986L77.2732 36.618ZM78.7258 38.8453C77.9096 38.8177 77.0795 38.5548 76.3186 38.0568L74.534 36.8809C74.2988 36.7287 74.1328 36.4935 74.0775 36.2168C74.0221 35.9401 74.0775 35.6634 74.2296 35.4283L77.5222 30.4479C77.8404 29.9637 78.4906 29.8254 78.9748 30.1574L80.7594 31.3333C81.7693 31.9974 82.4472 32.9381 82.6962 33.9895C82.9314 35.0271 82.7239 36.1061 82.1152 37.033L82.1013 37.0469C81.4926 37.9738 80.5796 38.5963 79.5282 38.7762C79.2653 38.8315 79.0025 38.8453 78.7258 38.8453ZM78.4214 30.3788C78.2139 30.3788 78.0064 30.4756 77.8819 30.6693L74.5893 35.6496C74.4925 35.788 74.4648 35.9678 74.4925 36.12C74.5202 36.286 74.617 36.4243 74.7692 36.5212L76.5538 37.6971C77.4669 38.3058 78.5044 38.541 79.459 38.3611C80.3997 38.1951 81.2159 37.6417 81.7693 36.8117L81.7831 36.7979C82.3365 35.9678 82.5164 34.9994 82.3088 34.0725C82.0875 33.1318 81.465 32.2741 80.5519 31.6654L78.7673 30.4894C78.6566 30.4203 78.5321 30.3926 78.4214 30.3788ZM78.5598 37.2544C78.1032 37.2406 77.619 37.0884 77.1625 36.7979L75.9036 35.9678L78.6704 31.776L79.9294 32.6061C80.5381 33.0073 80.9254 33.5606 81.0499 34.197C81.1744 34.8196 81.0223 35.4974 80.6349 36.0923L80.6211 36.1061C80.123 36.867 79.3622 37.2682 78.5598 37.2544ZM76.4846 35.8433L77.3977 36.452C78.4491 37.1437 79.6112 36.9085 80.2891 35.871L80.3029 35.8571C80.6349 35.3453 80.7594 34.7919 80.6626 34.28C80.5519 33.7543 80.2337 33.2978 79.708 32.9519L78.795 32.3432L76.4846 35.8433ZM85.9888 36.7702C86.3208 36.4382 86.8465 36.452 87.1785 36.7979C87.5105 37.1299 87.4967 37.6556 87.1508 37.9876L82.7515 42.2209C82.4195 42.5529 81.8938 42.5391 81.5618 42.1932C81.2298 41.8612 81.2436 41.3355 81.5895 41.0035L85.9888 36.7702ZM82.1567 42.6636C81.88 42.6497 81.6171 42.5391 81.4235 42.3454C81.0084 41.9165 81.0223 41.2663 81.4511 40.8651L85.8504 36.6318C86.0579 36.4382 86.3208 36.3275 86.5975 36.3413C86.5975 36.3413 86.5975 36.3413 86.6113 36.3413C86.888 36.3552 87.1508 36.4658 87.3445 36.6595C87.5382 36.867 87.6489 37.1299 87.635 37.4066C87.635 37.6832 87.5105 37.9461 87.3168 38.1398L82.9176 42.3731C82.71 42.5529 82.4472 42.6636 82.1567 42.6636ZM86.5975 36.7425C86.5975 36.7425 86.5836 36.7425 86.5975 36.7425C86.4315 36.7425 86.2654 36.7979 86.1409 36.9224L81.7416 41.1556C81.4788 41.4047 81.4788 41.792 81.7278 42.0549C81.8523 42.1794 82.0045 42.2486 82.1705 42.2486C82.3365 42.2486 82.5025 42.1932 82.627 42.0687L87.0263 37.8354C87.1508 37.7109 87.22 37.5587 87.22 37.3927C87.22 37.2267 87.1647 37.0607 87.0402 36.9362C86.9157 36.8117 86.7635 36.7425 86.5975 36.7425ZM86.8741 42.0272L86.888 42.0134C88.7556 40.9066 91.1628 41.4738 92.3663 43.5075C93.5699 45.5411 92.9197 47.8929 91.0521 48.9997L91.0383 49.0135C89.1706 50.1202 86.7635 49.553 85.5599 47.5194C84.3563 45.4858 85.0065 43.1339 86.8741 42.0272ZM90.1252 47.5056L90.139 47.4917C91.2734 46.8277 91.7161 45.4443 91.0244 44.2684C90.3327 43.1063 88.9355 42.8434 87.801 43.5075L87.7872 43.5213C86.6528 44.1853 86.2101 45.5688 86.9018 46.7447C87.5935 47.9206 88.9908 48.1834 90.1252 47.5056ZM88.9355 49.7744C87.5382 49.7329 86.1824 48.972 85.3801 47.6301C84.7713 46.6063 84.5915 45.4581 84.8682 44.379C85.131 43.3138 85.8089 42.4146 86.7773 41.8474L86.7911 41.8335C88.7971 40.6438 91.3288 41.3355 92.56 43.3968C93.1687 44.4205 93.3486 45.5688 93.0719 46.6478C92.809 47.7131 92.1312 48.6123 91.1628 49.1795L91.1489 49.1933C90.4434 49.6084 89.6825 49.7882 88.9355 49.7744ZM86.9848 42.207C86.1133 42.7189 85.5046 43.5351 85.2694 44.4759C85.0204 45.4443 85.1864 46.4957 85.7397 47.4087C86.8465 49.2763 89.1291 49.8989 90.9414 48.8337L90.9553 48.8198C91.8268 48.3079 92.4355 47.4917 92.6707 46.551C92.9197 45.5826 92.7537 44.5312 92.2003 43.6181C91.0936 41.7505 88.8109 41.128 86.9987 42.1932L86.9848 42.207ZM88.7833 48.0866C87.9532 48.0589 87.1923 47.6301 86.7358 46.8554C86.3761 46.2466 86.2793 45.5549 86.473 44.8909C86.6528 44.2545 87.0955 43.7011 87.6904 43.3415L87.7042 43.3276C88.977 42.5806 90.4849 42.9403 91.2043 44.1577C91.564 44.7664 91.6608 45.4581 91.4671 46.1221C91.2873 46.7585 90.8446 47.3119 90.2497 47.6716L90.2359 47.6854C89.7655 47.9621 89.2675 48.1004 88.7833 48.0866ZM89.143 43.3691C88.7418 43.3553 88.3129 43.466 87.9256 43.7011L87.9117 43.715C87.3999 44.0193 87.0402 44.4759 86.8741 45.0154C86.7081 45.5688 86.7911 46.136 87.0955 46.6478C87.7042 47.6716 88.9631 47.9621 90.0284 47.3396L90.0422 47.3257C90.5541 47.0214 90.9138 46.5648 91.0798 46.0253C91.2458 45.4719 91.1628 44.9047 90.8584 44.3929C90.4711 43.7426 89.8347 43.383 89.143 43.3691Z" fill="black"/>
<path d="M25.8365 71.9238L31.2042 70.1115C31.6331 69.9731 32.0758 70.1945 32.2141 70.6095L33.5007 74.4278C33.6252 74.8013 33.4177 75.2025 33.0442 75.3408C32.6707 75.4653 32.2695 75.2578 32.145 74.8843L31.1074 71.8131L29.7101 72.2835L30.5955 74.912C30.72 75.2855 30.5125 75.6867 30.139 75.825C29.7655 75.9495 29.3643 75.742 29.2398 75.3685L28.3544 72.74L26.9156 73.2242L27.967 76.3369C28.0915 76.7104 27.884 77.1116 27.5105 77.25C27.137 77.3745 26.7358 77.167 26.6113 76.7934L25.3108 72.9337C25.1863 72.5048 25.4077 72.0621 25.8365 71.9238Z" fill="black"/>
<path d="M27.3034 77.4987C27.165 77.4987 27.0267 77.4711 26.8883 77.4019C26.667 77.2912 26.5148 77.0975 26.4318 76.8623L25.1314 73.0026C24.9515 72.4631 25.2282 71.9097 25.7678 71.7298L31.1354 69.9176C31.3983 69.8345 31.6611 69.8484 31.9102 69.9729C32.1453 70.0974 32.3252 70.3049 32.422 70.5539L33.7086 74.3722C33.7916 74.6074 33.7639 74.8564 33.6533 75.0777C33.5426 75.2991 33.3489 75.4651 33.1276 75.5481C32.6572 75.7141 32.1315 75.4513 31.9655 74.9671L30.9971 72.0895L30.001 72.4216L30.8173 74.8564C30.9003 75.0916 30.8726 75.3406 30.7619 75.5619C30.6512 75.7833 30.4576 75.9493 30.2362 76.0323C30.001 76.1153 29.752 76.0876 29.5307 75.977C29.3093 75.8663 29.1571 75.6726 29.0741 75.4374L28.2579 73.0026L27.2065 73.3623L28.1887 76.2813C28.3548 76.7655 28.0919 77.2912 27.6077 77.4572C27.497 77.4849 27.4002 77.4987 27.3034 77.4987ZM25.8369 71.9235L25.9061 72.1172C25.5879 72.2279 25.4219 72.5461 25.5326 72.8642L26.833 76.724C26.8745 76.8485 26.9713 76.9592 27.082 77.0145C27.2065 77.0699 27.331 77.0837 27.4694 77.0422C27.7322 76.9592 27.8844 76.6687 27.7876 76.392L26.667 73.0718L28.5069 72.4492L29.4615 75.2714C29.503 75.3959 29.5998 75.5066 29.7105 75.5619C29.835 75.6173 29.9595 75.6311 30.0979 75.5896C30.2224 75.5481 30.3331 75.4513 30.3884 75.3267C30.4437 75.2022 30.4576 75.0639 30.4161 74.9394L29.4615 72.1172L31.2461 71.5085L32.339 74.7734C32.422 75.0362 32.7125 75.1884 32.9754 75.0916C33.0999 75.0501 33.2106 74.9532 33.2659 74.8287C33.3213 74.7042 33.3351 74.5659 33.2936 74.4414L32.007 70.6231C31.9517 70.4709 31.8548 70.3464 31.7165 70.2772C31.5781 70.2081 31.4121 70.1942 31.2599 70.2496L25.8923 72.1172L25.8369 71.9235Z" fill="black"/>
<path d="M28.8669 79.8508C28.8807 79.6295 29.0052 79.4081 29.2266 79.2836C29.5862 79.0623 30.0289 79.1729 30.2503 79.5326C30.361 79.7125 30.3748 79.8647 30.361 80.003C30.3056 80.6809 30.4163 81.3311 30.776 81.926C31.1218 82.4793 31.5507 82.6868 31.9104 82.4517L31.9242 82.4378C32.2701 82.2303 32.3116 81.8983 31.9381 80.7085C31.4815 79.2698 31.3294 78.246 32.5606 77.499L32.5744 77.4852C33.695 76.7934 34.9954 77.2361 35.7701 78.4951C36.2405 79.2421 36.448 80.0168 36.4342 80.7915C36.4342 80.9991 36.3512 81.2619 36.0883 81.4279C35.7286 81.6493 35.286 81.5386 35.0646 81.1789C34.9816 81.0406 34.9539 80.9161 34.9539 80.7777C34.9401 80.169 34.8294 79.6433 34.5666 79.2283C34.2484 78.7026 33.8334 78.5781 33.5428 78.7717L33.529 78.7856C33.1278 79.0346 33.1555 79.3805 33.5428 80.6255C33.9855 82.0781 33.9717 83.0604 32.9065 83.7244L32.8926 83.7382C31.6614 84.4991 30.4025 83.9873 29.5724 82.6592C29.0605 81.8291 28.7977 80.8469 28.8669 79.8508Z" fill="black"/>
<path d="M31.7166 84.2779C31.4815 84.2779 31.2324 84.2364 30.9972 84.1534C30.3747 83.932 29.8213 83.4478 29.3786 82.7423C28.8391 81.8707 28.5901 80.847 28.6593 79.8371C28.6731 79.5465 28.8529 79.256 29.1158 79.1039C29.3371 78.9655 29.5862 78.924 29.8352 78.9932C30.0842 79.0485 30.2917 79.2007 30.4162 79.422C30.5269 79.6019 30.5822 79.7956 30.5684 80.0031C30.5131 80.7086 30.6376 81.2897 30.9557 81.8015C31.0526 81.9675 31.4261 82.4932 31.7996 82.2719L31.8135 82.2581C32.0072 82.1336 32.1178 81.9675 31.7443 80.764C31.3154 79.3805 31.0664 78.1631 32.4498 77.3054L32.4637 77.2916C33.6673 76.5445 35.0922 76.9872 35.9499 78.3706C36.4203 79.1315 36.6555 79.9477 36.6416 80.7778C36.6416 81.0268 36.5309 81.3727 36.1851 81.5802C35.9637 81.7185 35.7147 81.76 35.4657 81.6908C35.2167 81.6355 35.0092 81.4833 34.8847 81.262C34.7878 81.1098 34.7463 80.9438 34.7325 80.7501C34.7187 80.1276 34.608 79.6711 34.3728 79.2975C34.1376 78.924 33.8471 78.7718 33.6258 78.9102L33.6119 78.924C33.3629 79.0762 33.3076 79.2422 33.7088 80.5149C34.0961 81.7739 34.276 83.0604 32.9755 83.8628L32.9617 83.8767C32.5744 84.1534 32.1455 84.2779 31.7166 84.2779ZM29.6138 79.3805C29.517 79.3805 29.4201 79.4082 29.3371 79.4635C29.185 79.5604 29.0881 79.7126 29.0881 79.8786C29.019 80.7916 29.2541 81.7462 29.7522 82.5347C30.1395 83.1573 30.6237 83.5861 31.1494 83.7798C31.689 83.9597 32.2423 83.8905 32.7819 83.5585L32.7957 83.5446C33.6811 83.0051 33.8194 82.2304 33.3491 80.681C32.9894 79.5327 32.851 78.9655 33.4321 78.6058L33.4459 78.592C33.8056 78.3706 34.3451 78.4536 34.7602 79.1177C35.023 79.5465 35.1614 80.0861 35.1752 80.7778C35.1752 80.9023 35.2029 80.9853 35.2582 81.0821C35.3412 81.2067 35.4519 81.2897 35.5902 81.3312C35.7286 81.3588 35.8669 81.345 35.9914 81.262C36.2266 81.1098 36.2404 80.8746 36.2404 80.8055C36.2543 80.0446 36.0329 79.3114 35.6041 78.6058C34.8708 77.4161 33.6949 77.0425 32.685 77.6651L32.6712 77.6789C31.6198 78.3291 31.6613 79.1177 32.1317 80.6533C32.4775 81.76 32.5467 82.2996 32.021 82.6177L32.0072 82.6316C31.6336 82.8529 31.0803 82.8253 30.5822 82.0367C30.2087 81.4418 30.0704 80.7778 30.1257 79.9892C30.1257 79.9201 30.1257 79.7956 30.0427 79.6572C29.9597 79.5327 29.849 79.4497 29.7107 79.4082C29.6968 79.3805 29.6553 79.3805 29.6138 79.3805Z" fill="black"/>
<path d="M38.3024 84.4164L37.2233 83.3235C36.9466 83.0329 36.9466 82.5626 37.2371 82.2859C37.5277 82.0092 37.998 82.0092 38.2747 82.2997L41.5396 85.6476C41.8163 85.9381 41.8163 86.4085 41.5258 86.6852C41.2352 86.9619 40.7649 86.9619 40.4882 86.6713L39.4091 85.5784L35.7984 89.1062C35.4802 89.4244 34.9822 89.4105 34.664 89.0923C34.3458 88.7742 34.3596 88.2761 34.6778 87.9579L38.3024 84.4164Z" fill="black"/>
<path d="M35.245 89.5211C35.245 89.5211 35.2312 89.5211 35.245 89.5211C34.9683 89.5211 34.7193 89.4104 34.5256 89.2168C34.1383 88.8156 34.1383 88.193 34.5395 87.7918L38.0119 84.4024L37.085 83.4479C36.7253 83.0744 36.7253 82.4795 37.0988 82.106C37.4723 81.7463 38.0672 81.7463 38.4407 82.1198L41.7056 85.4677C41.8854 85.6475 41.9823 85.8827 41.9685 86.1456C41.9685 86.3946 41.8578 86.6297 41.6779 86.8096C41.3044 87.1693 40.7095 87.1693 40.336 86.7958L39.4091 85.8412L35.9367 89.2306C35.7569 89.4243 35.5079 89.5211 35.245 89.5211ZM37.7628 82.272C37.6245 82.272 37.4862 82.3273 37.3893 82.4241C37.1818 82.6317 37.1818 82.9637 37.3755 83.1712L38.5929 84.4163L34.83 88.0962C34.5948 88.3314 34.5948 88.6911 34.8161 88.9262C34.9268 89.0369 35.079 89.1061 35.2312 89.1061C35.2312 89.1061 35.2312 89.1061 35.245 89.1061C35.3972 89.1061 35.5494 89.0507 35.66 88.9401L39.423 85.274L40.6404 86.5191C40.8479 86.7266 41.1799 86.7266 41.3874 86.5329C41.4843 86.4361 41.5396 86.2977 41.5396 86.1594C41.5396 86.021 41.4843 85.8827 41.3874 85.7859L38.1225 82.438C38.0395 82.3273 37.9012 82.272 37.7628 82.272Z" fill="black"/>
<path d="M39.6846 91.1669C40.0997 91.4851 40.1688 92.0246 39.8507 92.412L39.8368 92.4258C39.5325 92.8132 38.9929 92.8824 38.5779 92.5642C38.1629 92.246 38.0937 91.7065 38.4119 91.3191L38.4257 91.3053C38.7439 90.9179 39.2834 90.8487 39.6846 91.1669Z" fill="black"/>
<path d="M39.1594 92.9931C38.9104 92.9931 38.6752 92.9101 38.4677 92.7441C38.2325 92.5643 38.0665 92.3014 38.0388 92.0109C37.9973 91.7204 38.0803 91.4437 38.2602 91.2085L38.274 91.1947C38.6614 90.7105 39.3254 90.6275 39.8234 91.0148C40.3215 91.4022 40.4183 92.0662 40.031 92.5504L40.0171 92.5643C39.8373 92.7994 39.5744 92.9516 39.2839 92.9793C39.2424 92.9793 39.2009 92.9931 39.1594 92.9931ZM39.1179 91.167C38.9242 91.167 38.7305 91.2638 38.5922 91.4298L38.5784 91.4437C38.4677 91.5959 38.4124 91.7619 38.44 91.9417C38.4677 92.1216 38.5645 92.2876 38.7167 92.3982C38.8689 92.5228 39.0487 92.5781 39.2286 92.5504C39.4084 92.5366 39.5606 92.4398 39.6713 92.2876L39.6851 92.2737C39.9203 91.9694 39.8649 91.5682 39.5468 91.3192C39.4223 91.2223 39.2701 91.167 39.1179 91.167Z" fill="black"/>
<path d="M83.8295 91.6786L84.286 89.05C84.4935 87.9018 84.4935 87.3623 84.1062 86.9057C83.705 86.4354 83.1793 86.4492 82.7504 86.8227C82.4046 87.1271 82.2939 87.4729 82.2662 88.0678C82.2662 88.22 82.1971 88.4275 82.0034 88.5935C81.699 88.8564 81.2425 88.8287 80.9796 88.5105C80.869 88.3722 80.7998 88.1923 80.7998 88.0125C80.7998 87.1271 81.0627 86.38 81.8927 85.6607C83.0271 84.6784 84.369 84.6923 85.2544 85.7298L85.2683 85.7437C86.0568 86.6706 85.9738 87.5283 85.6556 89.1192L85.3513 90.5857L87.2742 88.9394C87.5647 88.6904 88.0074 88.718 88.2565 89.0085C88.5055 89.2991 88.464 89.7279 88.1735 89.9769L85.1853 92.5501C84.8117 92.8683 84.3552 92.896 84.037 92.5363C83.8295 92.3149 83.7603 92.0244 83.8295 91.6786Z" fill="black"/>
<path d="M84.5772 93.0344C84.3144 93.0344 84.0653 92.9238 83.8717 92.7024C83.6365 92.4257 83.5396 92.066 83.6226 91.651L84.0792 89.0225C84.2867 87.8466 84.259 87.4177 83.9408 87.058C83.6365 86.6984 83.2491 86.6845 82.8756 87.0027C82.5989 87.2517 82.4882 87.5284 82.4606 88.1094C82.4606 88.2339 82.4191 88.5383 82.1285 88.7873C81.9349 88.9533 81.6997 89.0363 81.4507 89.0087C81.2016 88.9948 80.9803 88.8703 80.8143 88.6905C80.6759 88.5245 80.5791 88.2893 80.5791 88.0541C80.5791 87.0165 80.9388 86.2418 81.755 85.5363C82.9863 84.4849 84.4527 84.5125 85.4073 85.6331L85.4211 85.6469C86.265 86.6292 86.1958 87.5284 85.85 89.2024L85.6701 90.0739L87.1227 88.815C87.4962 88.4968 88.0773 88.5383 88.3955 88.9118C88.5476 89.0917 88.6306 89.3269 88.603 89.562C88.5891 89.7972 88.4646 90.0186 88.2848 90.1707L85.2966 92.7439C85.0891 92.9238 84.8262 93.0344 84.5772 93.0344ZM83.4151 86.3525C83.7195 86.3525 84.0238 86.4908 84.2728 86.7814C84.7294 87.3071 84.7155 87.9296 84.508 89.0917L84.0515 91.7202C83.9962 91.9969 84.0515 92.2459 84.2175 92.4257C84.4804 92.7301 84.8262 92.6194 85.0752 92.4119L88.0634 89.8387C88.1603 89.7557 88.2294 89.6312 88.2294 89.5067C88.2433 89.3822 88.2018 89.2577 88.1188 89.1608C87.9389 88.9533 87.6346 88.9395 87.4271 89.1055L85.0476 91.153L85.4764 89.0917C85.7946 87.5146 85.8638 86.7399 85.1306 85.896L85.1167 85.8821C84.3143 84.9414 83.1108 84.9276 82.0455 85.8406C81.3262 86.4632 81.0218 87.1134 81.0218 88.0403C81.0218 88.1648 81.0771 88.3031 81.1601 88.4C81.257 88.5106 81.3815 88.566 81.5198 88.5798C81.6582 88.5936 81.7965 88.5521 81.8934 88.4553C82.0594 88.317 82.087 88.1371 82.087 88.0818C82.1147 87.5007 82.2115 87.0442 82.6404 86.6845C82.8756 86.4632 83.1523 86.3525 83.4151 86.3525Z" fill="black"/>
<path d="M87.8419 85.274L87.8281 85.2601C86.1265 84.0289 85.5593 81.9952 86.6937 80.432C87.8143 78.8825 89.9032 78.7857 91.6049 80.0169L91.6187 80.0308C93.3203 81.262 93.9013 83.2818 92.7531 84.8589C91.6049 86.436 89.5436 86.5052 87.8419 85.274ZM90.6641 81.3727L90.6503 81.3589C89.5851 80.5841 88.3953 80.515 87.8419 81.2897C87.2886 82.0644 87.7036 83.1296 88.7688 83.9182L88.7827 83.932C89.8617 84.7067 91.0238 84.7759 91.591 84.0012C92.1582 83.2126 91.7294 82.1474 90.6641 81.3727Z" fill="black"/>
<path d="M90.2771 86.3394C89.4193 86.3394 88.5201 86.0212 87.7177 85.4402L87.7039 85.4263C86.8323 84.7899 86.2236 83.9322 85.9885 83.0192C85.7533 82.0646 85.9331 81.11 86.5142 80.3076C87.6762 78.7029 89.862 78.5092 91.7158 79.8511L91.7297 79.865C92.6012 80.5013 93.2238 81.359 93.4451 82.2721C93.6803 83.2267 93.5004 84.1812 92.9194 84.9836C92.3384 85.786 91.4945 86.2564 90.5261 86.3255C90.4431 86.3394 90.3601 86.3394 90.2771 86.3394ZM87.9667 85.1081C88.7691 85.6892 89.6684 85.9797 90.4984 85.9105C91.3561 85.8552 92.0755 85.4401 92.5874 84.7346C93.0992 84.0291 93.2653 83.2128 93.0439 82.3689C92.8364 81.5527 92.283 80.778 91.4806 80.197L91.4668 80.1831C89.8067 78.9796 87.8699 79.1317 86.8462 80.5428C86.3343 81.2484 86.1821 82.0646 86.3896 82.9085C86.5972 83.7247 87.1505 84.4994 87.9391 85.0805L87.9667 85.1081ZM90.4431 84.7623C89.8897 84.7623 89.2672 84.5409 88.6585 84.0982L88.6446 84.0844C88.0774 83.6694 87.6762 83.1852 87.4964 82.6733C87.3027 82.1338 87.358 81.5942 87.6762 81.1654C87.9806 80.7365 88.4786 80.5152 89.0596 80.529C89.613 80.5428 90.2217 80.778 90.7751 81.1792L90.7889 81.193C91.9787 82.0508 92.3799 83.2543 91.7712 84.1121C91.453 84.5548 90.9826 84.7623 90.4431 84.7623ZM88.9905 80.9579C88.6861 80.9579 88.2849 81.0409 88.0082 81.4144C87.7177 81.8156 87.7869 82.2444 87.8837 82.535C88.0359 82.9638 88.3956 83.3927 88.8936 83.7524L88.9075 83.7662C89.9174 84.4994 90.9549 84.5409 91.4253 83.8769C91.9095 83.2128 91.5498 82.2721 90.5399 81.5389L90.5261 81.5251C90.0419 81.1654 89.5162 80.9717 89.0458 80.9579C89.032 80.9579 89.0043 80.9579 88.9905 80.9579Z" fill="black"/>
<path d="M94.6065 78.7163L93.8456 76.157C93.5136 75.0364 93.2784 74.5522 92.725 74.3308C92.1578 74.0957 91.7013 74.3447 91.4799 74.8704C91.3001 75.2854 91.3554 75.6589 91.6044 76.2123C91.6736 76.3506 91.7013 76.572 91.6044 76.7933C91.4523 77.1669 91.0234 77.3329 90.6499 77.1807C90.4839 77.1115 90.3455 76.9732 90.2625 76.821C89.8613 76.0186 89.7645 75.2439 90.1933 74.2202C90.7744 72.8368 91.9641 72.2557 93.223 72.7814L93.2369 72.7952C94.3575 73.2656 94.6756 74.068 95.0907 75.6451L95.478 77.0839L96.4464 74.7459C96.5986 74.3862 96.9998 74.2202 97.3595 74.3724C97.7192 74.5245 97.8714 74.9257 97.7192 75.2716L96.1974 78.91C96.0037 79.3665 95.6025 79.6017 95.1598 79.408C94.897 79.2835 94.7033 79.0483 94.6065 78.7163Z" fill="black"/>
<path d="M95.4785 79.6852C95.354 79.6852 95.2295 79.6575 95.0912 79.6022C94.7453 79.4638 94.5101 79.1733 94.3994 78.7721L93.6386 76.2128C93.2927 75.0645 93.0852 74.7048 92.6287 74.5112C92.1998 74.3313 91.8401 74.4835 91.6464 74.94C91.5081 75.2859 91.5358 75.5902 91.7709 76.1159C91.8263 76.2266 91.9231 76.5171 91.7709 76.863C91.5634 77.3472 91.0377 77.5685 90.5535 77.361C90.346 77.278 90.1662 77.0982 90.0555 76.9045C89.5851 75.9776 89.5575 75.1199 89.9725 74.1376C90.595 72.6435 91.9231 72.021 93.2789 72.5882L93.2927 72.602C94.4824 73.1001 94.8283 73.9301 95.271 75.5902L95.5062 76.448L96.2532 74.6772C96.4469 74.2206 96.9726 73.9993 97.4291 74.193C97.8857 74.3867 98.0932 74.9124 97.8995 75.3689L96.3777 79.0073C96.2671 79.284 96.0872 79.4915 95.852 79.6022C95.7552 79.6437 95.6169 79.6852 95.4785 79.6852ZM92.2966 74.0408C92.4488 74.0408 92.6287 74.0685 92.7947 74.1515C93.4449 74.4143 93.6939 74.9677 94.0397 76.1159L94.8006 78.6753C94.8836 78.952 95.0358 79.1456 95.2572 79.2286C95.4093 79.2978 95.5615 79.2978 95.686 79.2286C95.8244 79.1595 95.935 79.0211 96.0042 78.8413L97.526 75.2029C97.6367 74.9539 97.526 74.6772 97.277 74.5665C97.0279 74.4697 96.7374 74.5803 96.6406 74.8293L95.437 77.7207L94.8975 75.6871C94.4824 74.1376 94.1919 73.4044 93.1544 72.9756L93.1267 72.9617C91.9923 72.4914 90.8994 73.0032 90.3737 74.2898C90.014 75.1614 90.0278 75.8808 90.4428 76.7108C90.4982 76.8215 90.6089 76.9322 90.7195 76.9737C90.9824 77.0843 91.2867 76.9598 91.3974 76.697C91.4804 76.4895 91.4251 76.3234 91.3974 76.2819C91.1622 75.7562 91.0516 75.2997 91.2591 74.774C91.4804 74.3036 91.8539 74.0408 92.2966 74.0408Z" fill="black"/>
<path d="M93.3615 69.516L93.3891 70.0971C93.3891 70.1801 93.3891 70.3046 93.3753 70.3738C93.2923 70.7334 92.9326 70.9963 92.5591 70.9133C92.2409 70.8441 92.0195 70.5951 91.9919 70.2493L91.9089 69.184C91.895 68.8658 91.8812 68.6445 91.9365 68.4231V68.4093C92.0195 67.9804 92.4484 67.7038 92.8634 67.8006L98.5908 69.0042C99.0197 69.0872 99.2963 69.516 99.1995 69.9311C99.1165 70.3599 98.6876 70.6366 98.2726 70.5398L93.3615 69.516Z" fill="black"/>
<path d="M92.684 71.1351C92.6287 71.1351 92.5733 71.1351 92.5042 71.1213C92.0891 71.0383 91.8124 70.7063 91.7848 70.2774L91.7018 69.2122C91.6741 68.8801 91.6741 68.6311 91.7294 68.3959V68.3683C91.7848 68.1054 91.9369 67.8841 92.1583 67.7457C92.3796 67.5936 92.6425 67.5521 92.9053 67.6074L98.6327 68.811C99.1723 68.9216 99.5181 69.4473 99.4074 69.9869C99.3521 70.2497 99.1999 70.4711 98.9786 70.6094C98.7572 70.7616 98.4944 70.8031 98.2315 70.7478L93.5832 69.7655L93.5971 70.0699C93.5971 70.1114 93.5971 70.2774 93.5694 70.4019C93.4864 70.8308 93.099 71.1351 92.684 71.1351ZM92.7117 67.9947C92.601 67.9947 92.4903 68.0224 92.3935 68.0916C92.269 68.1746 92.1721 68.3129 92.1445 68.4651V68.4928C92.103 68.6865 92.103 68.894 92.1306 69.1983L92.2136 70.2636C92.2275 70.4987 92.3935 70.6924 92.6148 70.7339C92.7393 70.7616 92.8638 70.7339 92.9745 70.6648C93.0852 70.5956 93.1544 70.4849 93.182 70.3604C93.1959 70.3051 93.1959 70.2082 93.1959 70.1252L93.1544 69.2813L98.3284 70.3742C98.4805 70.4019 98.6327 70.3742 98.7711 70.2912C98.8956 70.2082 98.9924 70.0699 99.0201 69.9177C99.0893 69.5995 98.8817 69.2952 98.5774 69.226L92.85 68.0224C92.7947 67.9947 92.7532 67.9947 92.7117 67.9947Z" fill="black"/>
<path d="M64.3106 92.8555H59.4824V107.132H64.3106V92.8555Z" fill="#4AC2FF"/>
<path d="M64.311 108.169H59.4829C58.9157 108.169 58.4453 107.699 58.4453 107.132V92.855C58.4453 92.2877 58.9157 91.8174 59.4829 91.8174H64.311C64.8782 91.8174 65.3486 92.2877 65.3486 92.855V107.132C65.3486 107.713 64.8782 108.169 64.311 108.169ZM60.5204 106.094H63.2735V93.8925H60.5204V106.094Z" fill="black"/>
<path d="M57.1177 87.7223C55.5268 87.5702 54.1157 87.169 52.9398 86.5326C52.5524 86.3251 50.3251 85.0385 49.1077 81.7736L49.0939 81.7321L41.2222 56.1941L41.2084 56.1664C41.1392 55.8897 39.5206 49.4015 47.8073 44.9745C54.4201 41.4329 59.5802 41.0456 62.7483 41.3361C63.3708 41.3914 63.9795 41.4883 64.5467 41.6128C68.2128 42.4013 71.0765 45.2097 72.1971 47.4785C73.207 49.526 78.5332 67.5243 79.6814 71.3841C80.0273 72.2418 81.7427 76.9731 78.547 80.3072C76.0568 82.8527 65.1278 88.4694 57.1177 87.7223Z" fill="black"/>
<path d="M50.7953 81.1369L42.9513 55.6819C42.9513 55.6819 41.5402 50.3557 48.651 46.5375C55.7618 42.7192 61.2402 42.7192 64.1592 43.3418C67.0644 43.9782 69.5684 46.2055 70.5783 48.2391C71.5744 50.2727 77.9796 71.951 77.9796 71.951C77.9796 71.951 79.9026 76.2535 77.2326 79.0341C74.5764 81.801 60.4931 88.5659 53.7835 84.9275C53.7835 84.9414 51.8329 83.973 50.7953 81.1369Z" fill="black"/>
<path d="M77.8967 71.7715C77.6062 70.9967 76.9283 70.4019 76.1121 70.2774C74.5903 70.0283 73.5251 70.305 73.5112 70.305C72.3906 70.554 72.0171 68.7833 73.1515 68.5619C73.2069 68.5481 73.9677 68.5342 75.0607 68.4789C75.3235 68.4651 75.5725 68.4789 75.78 68.4927C76.2919 68.5342 76.7069 68.05 76.5548 67.552C76.4856 67.3445 76.3334 67.1785 76.1259 67.0955C75.8492 66.9848 75.4203 66.8603 74.8946 66.8603C74.7148 66.8465 74.535 66.8465 74.3413 66.8603C73.3314 66.7911 72.9163 65.463 73.8571 65.0342C74.1753 64.9512 74.4519 64.9097 74.701 64.8958C75.2405 64.8682 75.6002 64.3563 75.4203 63.8444L75.4065 63.8168C75.3097 63.5401 75.0607 63.3464 74.7701 63.3049C74.1061 63.2219 72.9994 63.1942 72.2108 63.0974C71.9895 63.0697 71.7819 63.0836 71.5606 63.0836L71.3669 63.1112C70.3293 63.2772 70.025 61.7831 70.855 61.4234C71.6159 61.2159 72.6673 61.2713 73.4697 61.3819C74.0231 61.4511 74.4658 60.9254 74.2998 60.3859C74.2306 60.1369 74.0369 59.9432 73.7879 59.874C72.9302 59.625 72.0863 59.5973 71.0072 59.5558C70.606 59.5143 70.3155 59.5282 70.1633 59.542C69.0289 59.6803 68.8214 57.8819 69.9697 57.7712C70.025 57.7712 70.0803 57.7574 70.1218 57.7435C70.7859 57.6467 71.5883 57.7159 72.2523 57.8265C72.861 57.9234 73.359 57.3562 73.1792 56.7613C73.1377 56.623 73.0547 56.4985 72.9579 56.4016C72.861 56.3048 72.7227 56.2356 72.5843 56.2079C71.8096 56.0281 70.3847 55.8482 69.5685 55.9036C69.4025 55.9174 69.2779 55.9312 69.1534 55.9312C68.102 56.0973 67.7977 54.5617 68.6831 54.2296C69.4163 54.119 70.1495 54.119 70.7859 54.1605C71.5329 54.202 72.0725 53.4688 71.8096 52.7632C71.7404 52.5834 71.6298 52.4312 71.4776 52.3205C71.3392 52.2098 71.1594 52.1407 70.9657 52.113C70.4123 52.0577 69.5961 51.9747 68.8352 51.9608C68.7246 51.9608 68.6277 51.9608 68.5447 51.9608C68.5171 51.9608 68.4894 51.9608 68.4756 51.9608C68.3095 51.9747 68.185 52.0023 68.0744 52.0023C66.9261 52.1683 66.7048 50.3699 67.853 50.2454C67.9222 50.2315 68.8352 50.1209 70.1633 50.3422C70.7305 50.4391 71.2147 49.8995 71.0349 49.3461C70.5092 47.6584 69.3333 46.2334 68.5586 45.7216C68.3649 45.5971 68.1435 45.8046 68.2542 46.0121C68.3787 46.2196 68.5032 46.4686 68.6277 46.7315C69.0013 47.5615 67.7838 48.1841 67.355 47.3678C66.4973 45.7492 65.7779 43.2314 62.9419 43.1069C62.6928 43.0931 62.5822 43.3974 62.7758 43.5496C63.5506 44.1998 64.7541 45.4726 65.2522 46.6346C65.7225 47.7414 64.0486 48.4746 63.5506 47.3817C62.762 45.6801 62.1118 43.0377 58.7362 43.1761C58.3766 43.1899 58.2382 43.6326 58.5011 43.854C59.9813 45.1267 61.7798 48.3224 59.9675 48.8481C57.4912 49.4845 58.8331 43.1484 53.6591 44.2966C52.5385 44.6978 51.2519 45.2097 49.9792 45.8322C45.3724 48.0734 40.7932 51.8363 43.7814 57.9372C43.9889 58.3384 44.5008 58.4906 44.8882 58.2416C46.0779 57.4945 48.3606 56.0558 48.3606 56.0558C49.329 55.4332 50.2974 56.955 49.3151 57.5637C49.0246 57.7989 46.2301 59.3345 45.2064 60.1092C44.1549 60.9116 45.2617 62.5025 46.3684 61.797C47.2123 61.2713 49.5641 59.8463 49.5641 59.8463C50.5325 59.21 51.5009 60.7456 50.5049 61.3543C50.5049 61.3543 47.6965 63.1112 46.4099 63.9413C45.3447 64.7022 46.4653 66.3346 47.5858 65.6291L50.8231 63.5816C51.7915 62.959 52.7599 64.4808 51.7776 65.0895C51.4594 65.3385 48.6787 66.888 47.5167 67.8564C46.5344 68.6864 47.6273 70.2082 48.7202 69.5165C49.744 68.8801 51.9713 67.4413 51.9713 67.4413C52.9397 66.8188 53.9081 68.3406 52.912 68.9493C52.6353 69.1568 49.7717 70.7892 48.6649 71.6331C47.6273 72.4217 48.7479 74.0126 49.8408 73.3209C50.6847 72.7814 52.995 71.3426 52.995 71.3426C53.9634 70.7062 54.9318 72.2418 53.9358 72.8505C53.9634 72.7814 50.9614 74.7043 49.7025 75.479C48.6649 76.2123 49.7578 77.7755 50.8231 77.1115L54.1709 75.0502C55.1393 74.4276 56.1077 75.9494 55.1117 76.5581L51.0997 79.0759C50.6155 79.3803 50.3942 79.989 50.5879 80.5285C51.5424 83.4061 53.5069 86.3804 59.3726 85.9654C60.673 85.7994 61.7936 85.578 62.7343 85.3014C72.0033 82.576 65.7779 74.8427 68.1712 74.4138C68.5447 74.3446 68.8491 74.7735 69.0013 75.1194C69.6376 76.5166 70.1495 79.8922 68.8906 82.3962C68.6554 82.8665 69.1811 83.3369 69.61 83.0602C72.4321 81.2479 72.5013 77.0146 71.5606 74.9118C71.3946 74.5383 71.0211 73.6252 71.6989 73.2932C73.5251 72.394 74.2859 76.7795 73.5112 80.0858C73.3729 80.6946 74.1476 81.0681 74.5488 80.5839C76.0706 78.7024 75.9876 75.6866 75.5034 74.317C75.3788 73.9573 75.365 73.3209 75.7109 73.1411C77.1635 72.4217 77.8967 75.2992 76.8453 78.5502C76.7623 78.8269 77.039 79.2281 77.2326 79.0206C79.2663 76.8348 78.8236 74.317 77.8967 71.7715ZM52.1788 54.1743C52.3033 54.1051 54.1294 53.1506 56.7026 52.279C58.6256 51.6288 60.9636 51.0063 63.3431 50.8402C63.8272 50.7987 64.2561 51.1723 64.2976 51.6565C64.3391 52.1407 63.9656 52.5695 63.4814 52.611C61.3094 52.777 59.2204 53.3166 57.4635 53.9114C54.8073 54.8107 52.9259 55.8344 52.7183 55.8482C51.7361 55.9451 51.3073 54.6308 52.1788 54.1743ZM53.5484 59.874C52.5938 59.9847 52.165 58.6704 53.0365 58.2001C54.5583 57.3977 56.5228 56.6921 58.3627 56.1249C61.1711 55.2672 63.6889 54.7277 63.8549 54.6862C65.0032 54.4787 65.3628 56.1388 64.2284 56.4293C64.1731 56.4016 61.7244 56.9827 58.9853 57.8127C57.0623 58.4214 55.0148 59.1408 53.5484 59.874ZM54.5306 61.9491C56.3983 60.9669 58.1414 60.2614 59.6355 59.7495C62.7205 58.6981 64.7956 58.4906 64.9202 58.4767C66.0961 58.4076 66.2482 60.0954 65.0862 60.2475C64.9755 60.2614 63.0249 60.4689 60.1612 61.4511C58.7501 61.9353 57.1038 62.5994 55.3469 63.5262C55.25 63.5816 55.1393 63.6093 55.0425 63.6231C54.0879 63.7199 53.6591 62.4057 54.5306 61.9491ZM55.7619 65.7397C57.4082 64.9373 59.2066 64.2456 60.8114 63.6923C63.3569 62.8207 65.4044 62.295 65.5427 62.2673C66.0131 62.1428 66.4973 62.4333 66.6218 62.9175C66.7463 63.3879 66.4558 63.8721 65.9716 63.9966C65.9439 63.9689 63.8411 64.55 61.2956 65.4354C59.6493 66.0026 57.8232 66.6943 56.2599 67.4275C55.2777 67.5243 54.8627 66.1824 55.7619 65.7397ZM56.3706 69.558C58.1137 68.7556 60.1888 68.0085 61.8905 67.4275C63.7027 66.8188 65.0723 66.4038 65.183 66.3761C66.3174 66.0856 66.8016 67.718 65.681 68.0777C65.6534 68.0501 64.2423 68.5066 62.4162 69.143C60.6592 69.7517 58.5011 70.5402 56.841 71.2458C55.8587 71.3703 55.4575 69.9868 56.3706 69.558ZM68.0882 71.4118C68.0744 71.4118 67.2581 71.5363 65.598 72.0481C65.017 72.228 64.3253 72.4632 63.5367 72.7399C62.098 73.2656 60.2995 73.9849 58.169 74.981C58.086 75.0225 57.9892 75.0502 57.9062 75.064C56.924 75.1747 56.5089 73.8051 57.422 73.3762C59.6493 72.3387 61.5031 71.5916 63.011 71.0382C66.1791 69.89 67.7562 69.6687 67.8392 69.6548C69.0013 69.5303 69.2503 71.2181 68.0882 71.4118ZM70.5369 68.2022C68.8076 68.5896 67.8807 65.1864 69.5546 64.633C70.2602 64.4393 71.0626 65.0757 71.3254 66.0579C71.6021 67.0401 71.2424 68.0085 70.5369 68.2022Z" fill="#4AC2FF"/>
<path d="M62.7201 85.315C61.7655 85.5917 60.6588 85.8269 59.3583 85.9791C53.4926 86.3941 51.542 83.4197 50.5736 80.5422C50.3937 79.9888 50.6013 79.394 51.0855 79.0896L55.0974 76.5718C56.0796 75.9769 55.1112 74.4413 54.1567 75.0638L50.8088 77.1251C49.7435 77.803 48.6645 76.2259 49.6882 75.4927C50.9471 74.718 53.9491 72.795 53.9215 72.8642C54.9037 72.2693 53.9353 70.7337 52.9807 71.3563C52.9807 71.3563 50.6704 72.8089 49.8265 73.3346C48.7198 74.0263 47.6131 72.4492 48.6506 71.6468C49.7574 70.8029 52.6211 69.1843 52.8977 68.9629C53.88 68.3681 52.9116 66.8325 51.957 67.455C51.957 67.455 49.7159 68.8799 48.706 69.5301C47.6131 70.2219 46.5202 68.6863 47.5024 67.87C48.6645 66.9016 51.4451 65.3384 51.7633 65.1032C52.7456 64.5083 51.7772 62.9727 50.8088 63.5953L47.5716 65.6427C46.451 66.3483 45.3304 64.7158 46.3956 63.9549C47.6822 63.1249 50.4906 61.3679 50.4906 61.3679C51.4728 60.7731 50.5044 59.2375 49.5499 59.86C49.5499 59.86 47.198 61.2849 46.3541 61.8106C45.2474 62.5162 44.1407 60.9114 45.1921 60.1229C46.2158 59.3343 48.9965 57.7987 49.3008 57.5774C50.2831 56.9825 49.3147 55.4469 48.3463 56.0694C48.3463 56.0694 46.0636 57.5082 44.8739 58.2552C44.4865 58.5043 43.9747 58.3521 43.7671 57.9509C40.7789 51.85 45.3719 48.0871 49.9649 45.8459C51.8602 45.0435 54.295 47.2847 56.716 52.2512C54.1428 53.1227 52.3305 54.0773 52.1922 54.1465C51.3206 54.6168 51.7495 55.9311 52.7179 55.8204C52.9254 55.8066 54.8069 54.7828 57.463 53.8836C57.7674 54.5892 58.0717 55.3362 58.3761 56.1248C56.5361 56.692 54.5717 57.3975 53.0499 58.1999C52.1784 58.6703 52.6072 59.9845 53.5618 59.8738C55.0282 59.1406 57.0757 58.4074 58.9986 57.8264C59.22 58.4489 59.4275 59.0853 59.6489 59.7493C58.1548 60.2612 56.4116 60.9667 54.544 61.949C53.6725 62.4193 54.1013 63.7336 55.0559 63.6229C55.1666 63.6091 55.2634 63.5814 55.3602 63.5261C57.1172 62.5992 58.7635 61.9351 60.1746 61.4509C60.3959 62.1703 60.6034 62.9174 60.8248 63.6921C59.22 64.2455 57.4215 64.9372 55.7753 65.7396C54.876 66.1823 55.2911 67.538 56.2733 67.4273C57.8366 66.6941 59.6627 66.0024 61.309 65.4352C61.5026 66.1269 61.7102 66.791 61.9038 67.4412C60.2022 68.0222 58.1271 68.7693 56.384 69.5716C55.4709 70.0005 55.8721 71.3701 56.8543 71.2594C58.5144 70.54 60.6588 69.7653 62.4295 69.1566C62.6371 69.8068 62.8307 70.4432 63.0244 71.0519C61.5303 71.5914 59.6627 72.3523 57.4354 73.3899C56.5223 73.8188 56.9235 75.1884 57.9196 75.0777C58.0164 75.0638 58.0994 75.0362 58.1824 74.9947C60.3267 73.9986 62.1114 73.2792 63.5501 72.7535C65.4039 78.7576 66.1371 82.3545 62.7201 85.315Z" fill="white"/>
<path d="M54.9738 92.5782L50.5469 89.4102L50.3809 72.1865L54.2406 72.3664L54.9738 92.5782Z" fill="white"/>
<path d="M68.2248 85.1212L71.8632 83.7793L71.7802 85.3426C71.7802 85.3426 71.6972 90.3921 71.6972 90.4889C71.6972 90.5719 70.881 92.6609 70.9225 92.7716C70.964 92.8822 68.7643 93.823 68.6398 93.823C68.5153 93.823 61.1417 94.4455 61.1417 94.4455L58.029 93.9751L57.6831 92.3289L59.4401 91.5126L61.9441 91.2913L68.4185 90.3506L68.2248 89.5758L68.46 85.0659L68.2248 85.1212Z" fill="white"/>
<path d="M56.7587 73.0581L57.5058 76.2261L57.6164 81.1096C57.6164 81.1096 57.5058 86.0484 57.5058 86.0899C57.5058 86.1314 57.6856 90.3371 57.6856 90.3371L57.8793 92.4814L58.2666 94.0861L60.6738 94.598L68.338 93.8095C68.338 93.8095 70.5376 93.0762 70.5653 93.0624C70.593 93.0486 71.6167 91.6098 71.6167 91.6098C71.6167 91.6098 71.8934 83.5721 71.8934 83.4476C71.8934 83.3231 72.5436 83.4614 72.5436 83.4614L74.5495 82.4515L75.2551 83.0879C75.2551 83.0879 75.1583 89.9635 75.1583 90.088C75.1583 90.2125 74.6187 93.6573 74.6187 93.6573C74.6187 93.6573 73.5258 95.1929 73.429 95.2205C73.346 95.2621 71.0495 96.3273 71.0495 96.3273L67.2589 96.936L59.8161 97.8214L56.9524 96.9222L55.0848 94.9162L53.9642 91.4438L53.8535 83.4753L54.1994 74.815L54.1579 72.9197L54.2132 72.1865L56.7587 73.0581Z" fill="#4AC2FF"/>
<path d="M57.631 92.7856L57.4097 91.1393L67.5087 89.8665V84.3743L69.1688 83.7656V90.157C69.1688 90.8211 68.6707 91.3745 68.0205 91.4713L57.631 92.7856Z" fill="black"/>
<path d="M60.2006 95.483C59.3567 95.483 58.5405 95.1787 57.8903 94.6115C57.1294 93.9474 56.6867 92.979 56.6867 91.9691V74.7732C56.6867 74.1091 56.244 73.5142 55.6077 73.3344L52.3428 72.3937L52.7993 70.8027L56.0642 71.7435C57.4061 72.1308 58.3468 73.3759 58.3468 74.7732V91.9553C58.3468 92.4948 58.582 93.0067 58.9832 93.3526C59.3844 93.6984 59.9239 93.8644 60.4496 93.7953L69.2897 92.7023C70.2028 92.5778 70.8945 91.7893 70.8945 90.8624V83.0045L72.5546 82.133V90.8624C72.5546 92.6055 71.2542 94.0996 69.5249 94.3486L60.6848 95.4415C60.5188 95.4692 60.3528 95.483 60.2006 95.483Z" fill="black"/>
<path d="M59.8291 98.6649C58.1829 98.6649 56.5919 98.0562 55.3468 96.9218L51.5839 94.0858C50.1867 93.0344 49.3428 91.3466 49.3428 89.5896V73.4589C49.3428 71.951 50.574 70.7197 52.082 70.7197C52.2618 70.7197 52.4278 70.7336 52.6077 70.7751C52.746 70.8027 52.8843 70.8442 53.0088 70.8857C54.1018 71.2731 54.8211 72.3107 54.8211 73.4727V92.0245C54.8211 93.4356 55.3883 94.736 56.4259 95.7044C57.5465 96.7281 59.0406 97.1985 60.5347 96.9771L70.1218 95.7182C72.5705 95.3585 74.4104 93.2281 74.4104 90.7656V82.548L76.0705 81.6073V90.7656C76.0705 94.0581 73.6219 96.8941 70.3708 97.3645L60.7837 98.6234C60.4655 98.6511 60.1473 98.6649 59.8291 98.6649ZM52.082 72.366C51.4871 72.366 51.0029 72.8502 51.0029 73.4451V89.5896C51.0029 90.8209 51.5978 92.0106 52.58 92.7577L53.2855 93.2972C53.2025 92.8822 53.161 92.4395 53.161 91.9968V73.4589C53.161 73.0024 52.8705 72.5874 52.4416 72.4352C52.3863 72.4213 52.331 72.4075 52.2895 72.3937C52.2203 72.3798 52.1511 72.366 52.082 72.366Z" fill="black"/>
<path d="M83.7124 111.056H39.9337C38.2475 111.056 36.8794 112.253 36.8794 113.728C36.8794 115.204 38.2475 116.401 39.9337 116.401H83.7124C85.3986 116.401 86.7667 115.204 86.7667 113.728C86.7667 112.253 85.3986 111.056 83.7124 111.056Z" fill="#4AC2FF"/>
<path d="M83.7082 117.418H39.9385C37.6005 117.418 35.6919 115.76 35.6919 113.728C35.6919 111.696 37.6005 110.037 39.9385 110.037H83.7082C86.0462 110.037 87.9548 111.696 87.9548 113.728C87.9548 115.76 86.0462 117.418 83.7082 117.418ZM39.9385 112.124C38.9206 112.124 38.0776 112.843 38.0776 113.742C38.0776 114.64 38.9046 115.359 39.9385 115.359H83.7082C84.7261 115.359 85.5691 114.64 85.5691 113.742C85.5691 112.843 84.742 112.124 83.7082 112.124H39.9385Z" fill="black"/>
<path d="M23.293 58.8066C23.293 57.437 24.3582 56.3164 25.797 56.3164C26.5163 56.3164 27.0005 56.4824 27.4294 56.7868C27.5262 56.8559 27.6508 57.0081 27.6508 57.2156C27.6508 57.5062 27.4156 57.7413 27.1251 57.7413C26.9729 57.7413 26.876 57.686 26.8069 57.6307C26.5163 57.4231 26.212 57.2986 25.7555 57.2986C24.9946 57.2986 24.3859 57.9765 24.3859 58.7927V58.8066C24.3859 59.6781 24.9946 60.3283 25.8385 60.3283C26.2258 60.3283 26.5579 60.2315 26.8345 60.0378V59.3599H26.129C25.88 59.3599 25.6725 59.1663 25.6725 58.9034C25.6725 58.6544 25.88 58.4469 26.129 58.4469H27.3326C27.6231 58.4469 27.8583 58.6821 27.8583 58.9726V60.1347C27.8583 60.439 27.7476 60.6604 27.4847 60.7987C27.0974 61.0339 26.5302 61.2829 25.8108 61.2829C24.3167 61.2691 23.293 60.2177 23.293 58.8066Z" fill="black"/>
<path d="M25.8108 61.4764C24.2337 61.4764 23.0854 60.3558 23.0854 58.7926V58.7787C23.0854 57.2708 24.289 56.0811 25.8108 56.0811C26.5302 56.0811 27.0697 56.2332 27.5677 56.5791C27.6646 56.6483 27.8721 56.8419 27.8721 57.174C27.8721 57.5752 27.5401 57.9072 27.1389 57.9072C26.9314 57.9072 26.793 57.8242 26.6962 57.755C26.4195 57.5475 26.1428 57.4645 25.7693 57.4645C25.1329 57.4645 24.6072 58.0317 24.6072 58.7372C24.6072 59.5258 25.1191 60.0515 25.8385 60.0515C26.1428 60.0515 26.4057 59.9823 26.6132 59.8578V59.4981H26.1152C25.7416 59.4981 25.4373 59.1938 25.4373 58.8341C25.4373 58.4605 25.7416 58.1562 26.1152 58.1562H27.3187C27.7338 58.1562 28.0658 58.4882 28.0658 58.9032V60.0653C28.0658 60.4527 27.9136 60.7294 27.5954 60.923C27.0559 61.3104 26.4472 61.4764 25.8108 61.4764ZM25.8108 56.5237C24.5242 56.5237 23.5143 57.5198 23.5143 58.7926V58.8064C23.5143 60.1345 24.455 61.0614 25.8246 61.0614C26.378 61.0614 26.9037 60.9092 27.3879 60.6187C27.5816 60.508 27.6508 60.3697 27.6508 60.1345V58.9724C27.6508 58.7926 27.5124 58.6542 27.3326 58.6542H26.129C25.9906 58.6542 25.88 58.7649 25.88 58.9032C25.88 59.0416 25.9906 59.1384 26.129 59.1384H27.0559V60.1483L26.9729 60.2175C26.6685 60.425 26.295 60.5495 25.8523 60.5495C24.8839 60.5495 24.1922 59.8163 24.1922 58.8202C24.1922 57.8657 24.9116 57.1048 25.7831 57.1048C26.2397 57.1048 26.5993 57.2155 26.959 57.4783C27.0144 57.5198 27.0697 57.5475 27.1527 57.5475C27.3187 57.5475 27.4571 57.4091 27.4571 57.2431C27.4571 57.1048 27.3602 57.0218 27.3326 56.9941C26.8899 56.6483 26.4333 56.5237 25.8108 56.5237Z" fill="black"/>
<path d="M29.4214 56.8978C29.4214 56.6073 29.6566 56.3721 29.9471 56.3721H30.0578C30.2791 56.3721 30.4451 56.4827 30.542 56.6488L31.8147 58.7239L33.0875 56.6488C33.1981 56.4689 33.3503 56.3859 33.5578 56.3859H33.6685C33.959 56.3859 34.1942 56.6211 34.1942 56.9116V60.716C34.1942 61.0065 33.959 61.2417 33.6685 61.2417C33.378 61.2417 33.1428 61.0065 33.1428 60.716V58.3227L32.2159 59.7476C32.1052 59.9136 31.9669 60.0105 31.7732 60.0105C31.5795 60.0105 31.4412 59.9136 31.3305 59.7476L30.4175 58.3504V60.7299C30.4175 61.0204 30.1823 61.2417 29.8917 61.2417C29.6012 61.2417 29.3799 61.0204 29.3799 60.7299V56.8978H29.4214Z" fill="black"/>
<path d="M33.6825 61.4354C33.2813 61.4354 32.9493 61.1034 32.9493 60.6883V59.0282L32.4236 59.8445C32.2576 60.0935 32.0501 60.2041 31.801 60.2041C31.552 60.2041 31.3445 60.0796 31.1785 59.8445L30.6666 59.0421V60.7022C30.6666 61.1034 30.3346 61.4354 29.9334 61.4354C29.5322 61.4354 29.2002 61.1172 29.2002 60.7022V56.8839C29.2002 56.4689 29.5322 56.1369 29.9472 56.1369H30.0579C30.3346 56.1369 30.5698 56.2752 30.722 56.5104L31.8149 58.2812L32.9078 56.4966C33.06 56.2476 33.2813 56.123 33.558 56.123H33.6687C34.0837 56.123 34.4157 56.4551 34.4157 56.8701V60.6745C34.4157 61.1172 34.0975 61.4354 33.6825 61.4354ZM33.3781 57.5895V60.7022C33.3781 60.8682 33.5165 61.0204 33.6825 61.0204C33.8623 61.0204 34.0007 60.882 34.0007 60.7022V56.8978C34.0007 56.7179 33.8623 56.5796 33.6825 56.5796H33.5718C33.4335 56.5796 33.3505 56.6211 33.2813 56.7456L31.8149 59.1251L30.3623 56.7594C30.2931 56.6487 30.1963 56.5934 30.0718 56.5934H29.9611C29.7812 56.5934 29.6429 56.7318 29.6429 56.9116V60.7298C29.6429 60.8959 29.7674 61.0342 29.9472 61.0342C30.1133 61.0342 30.2516 60.9097 30.2516 60.7298V57.631L31.552 59.6369C31.6489 59.7891 31.7319 59.803 31.8149 59.803C31.8979 59.803 31.967 59.7891 32.0777 59.6369L33.3781 57.5895Z" fill="black"/>
<path d="M88.5898 58.8066C88.5898 57.437 89.6551 56.3164 91.0938 56.3164C91.8132 56.3164 92.2974 56.4824 92.7263 56.7868C92.8231 56.8559 92.9476 57.0081 92.9476 57.2156C92.9476 57.5062 92.7125 57.7413 92.4219 57.7413C92.2698 57.7413 92.1729 57.686 92.1037 57.6307C91.8132 57.4231 91.5089 57.2986 91.0523 57.2986C90.2915 57.2986 89.6827 57.9765 89.6827 58.7927V58.8066C89.6827 59.6781 90.2915 60.3283 91.1353 60.3283C91.5227 60.3283 91.8547 60.2315 92.1314 60.0378V59.3599H91.4259C91.1768 59.3599 90.9693 59.1663 90.9693 58.9034C90.9693 58.6544 91.1768 58.4469 91.4259 58.4469H92.6294C92.92 58.4469 93.1551 58.6821 93.1551 58.9726V60.1347C93.1551 60.439 93.0445 60.6604 92.7816 60.7987C92.3943 61.0339 91.8271 61.2829 91.1077 61.2829C89.6136 61.2691 88.5898 60.2177 88.5898 58.8066Z" fill="black"/>
<path d="M91.1077 61.4764C89.5306 61.4764 88.3823 60.3558 88.3823 58.7926V58.7787C88.3823 57.2708 89.5859 56.0811 91.1077 56.0811C91.8271 56.0811 92.3666 56.2332 92.8646 56.5791C92.9615 56.6483 93.169 56.8419 93.169 57.174C93.169 57.5752 92.8369 57.9072 92.4358 57.9072C92.2282 57.9072 92.0899 57.8242 91.9931 57.755C91.7164 57.5475 91.4397 57.4645 91.0662 57.4645C90.4298 57.4645 89.9041 58.0317 89.9041 58.7372C89.9041 59.5258 90.416 60.0515 91.1353 60.0515C91.4397 60.0515 91.7025 59.9823 91.9101 59.8578V59.4981H91.412C91.0385 59.4981 90.7341 59.1938 90.7341 58.8341C90.7341 58.4605 91.0385 58.1562 91.412 58.1562H92.6156C93.0306 58.1562 93.3627 58.4882 93.3627 58.9032V60.0653C93.3627 60.4527 93.2105 60.7294 92.8923 60.923C92.3389 61.3104 91.744 61.4764 91.1077 61.4764ZM91.0938 56.5237C89.8072 56.5237 88.7974 57.5198 88.7974 58.7926V58.8064C88.7974 60.1345 89.7381 61.0614 91.1077 61.0614C91.661 61.0614 92.1867 60.9092 92.6709 60.6187C92.8646 60.508 92.9338 60.3697 92.9338 60.1345V58.9724C92.9338 58.7926 92.7954 58.6542 92.6156 58.6542H91.412C91.2737 58.6542 91.163 58.7649 91.163 58.9032C91.163 59.0416 91.2737 59.1384 91.412 59.1384H92.3389V60.1483L92.2559 60.2175C91.9516 60.425 91.578 60.5495 91.1353 60.5495C90.1669 60.5495 89.4752 59.8163 89.4752 58.8202C89.4752 57.8657 90.1946 57.1048 91.0662 57.1048C91.5227 57.1048 91.8824 57.2155 92.2421 57.4783C92.2974 57.5198 92.3528 57.5475 92.4358 57.5475C92.6018 57.5475 92.7401 57.4091 92.7401 57.2431C92.7401 57.1048 92.6433 57.0218 92.6156 56.9941C92.1867 56.6483 91.7302 56.5237 91.0938 56.5237Z" fill="black"/>
<path d="M94.7046 56.8968C94.7046 56.6063 94.9398 56.3711 95.2303 56.3711H95.341C95.5623 56.3711 95.7283 56.4818 95.8252 56.6478L97.0979 58.7229L98.3707 56.6478C98.4813 56.4679 98.6335 56.3849 98.841 56.3849H98.9517C99.2422 56.3849 99.4774 56.6201 99.4774 56.9106V60.7151C99.4774 61.0056 99.2422 61.2408 98.9517 61.2408C98.6612 61.2408 98.426 61.0056 98.426 60.7151V58.3217L97.4991 59.7467C97.3884 59.9127 97.2501 60.0095 97.0564 60.0095C96.8627 60.0095 96.7244 59.9127 96.6137 59.7467L95.7007 58.3494V60.7289C95.7007 61.0194 95.4655 61.2408 95.175 61.2408C94.8844 61.2408 94.6631 61.0194 94.6631 60.7289V56.8968H94.7046Z" fill="black"/>
<path d="M98.9657 61.4344C98.5645 61.4344 98.2325 61.1024 98.2325 60.6874V59.0273L97.7068 59.8435C97.5408 60.0925 97.3333 60.2032 97.0842 60.2032C96.8352 60.2032 96.6277 60.0787 96.4617 59.8435L95.9498 59.0411V60.7012C95.9498 61.1024 95.6178 61.4344 95.2166 61.4344C94.8154 61.4344 94.4834 61.1162 94.4834 60.7012V56.883C94.4834 56.4679 94.8154 56.1359 95.2305 56.1359H95.3411C95.6178 56.1359 95.853 56.2742 96.0052 56.5094L97.0981 58.2802L98.191 56.4956C98.3432 56.2466 98.5645 56.1221 98.8412 56.1221H98.9519C99.3669 56.1221 99.6989 56.4541 99.6989 56.8691V60.6735C99.7127 61.1162 99.3807 61.4344 98.9657 61.4344ZM98.6613 57.5885V60.7012C98.6613 60.8672 98.7997 61.0194 98.9657 61.0194C99.1455 61.0194 99.2839 60.8811 99.2839 60.7012V56.8968C99.2839 56.7169 99.1455 56.5786 98.9657 56.5786H98.855C98.7167 56.5786 98.6337 56.6201 98.5645 56.7446L97.0981 59.1241L95.6455 56.7584C95.5763 56.6478 95.4795 56.5924 95.355 56.5924H95.2443C95.0644 56.5924 94.9261 56.7308 94.9261 56.9106V60.7289C94.9261 60.8949 95.0506 61.0332 95.2305 61.0332C95.3965 61.0332 95.5348 60.9087 95.5348 60.7289V57.63L96.8352 59.636C96.9321 59.7881 97.0151 59.802 97.0981 59.802C97.1811 59.802 97.2502 59.7881 97.3609 59.636L98.6613 57.5885Z" fill="black"/>
<path d="M50.408 75.5615H48.5542V77.2908H50.408V75.5615Z" fill="black"/>
<path d="M68.6196 88.1797V84.2272L75.3623 81.2715L75.1644 85.7783L68.6196 88.1797Z" fill="black"/>
<path d="M62.6488 85.3249C59.0483 86.525 58.3024 81.4884 58.3367 78.7246L57.457 86.4131L62.2355 86.5798L62.6488 85.3249Z" fill="black"/>
<path d="M44.1586 20.2609C35.4355 23.9809 27.8004 30.4616 22.6936 39.3068C10.1576 61.0199 17.5934 88.7708 39.3065 101.307C61.0195 113.843 88.7705 106.407 101.307 84.694C113.843 62.9809 106.407 35.23 84.6937 22.6939C76.2726 17.832 66.9565 15.9753 57.9566 16.7891" stroke="black" stroke-width="2.34419" stroke-miterlimit="10" stroke-linecap="round" stroke-linejoin="round"/>
<path d="M71.7114 105.644H51.9008C50.4344 105.644 49.2446 106.833 49.2446 108.3C49.2446 109.766 50.4344 110.956 51.9008 110.956H71.6976C73.164 110.956 74.3538 109.766 74.3538 108.3C74.3538 106.833 73.1779 105.644 71.7114 105.644Z" fill="white"/>
<path d="M71.7114 111.994H51.9008C49.8671 111.994 48.207 110.334 48.207 108.3C48.207 106.267 49.8671 104.606 51.9008 104.606H71.6976C73.7312 104.606 75.3913 106.267 75.3913 108.3C75.3913 110.334 73.7451 111.994 71.7114 111.994ZM51.9008 106.682C51.0154 106.682 50.2822 107.401 50.2822 108.3C50.2822 109.199 51.0016 109.919 51.9008 109.919H71.6976C72.583 109.919 73.3162 109.199 73.3162 108.3C73.3162 107.401 72.5968 106.682 71.6976 106.682H51.9008Z" fill="black"/>
</svg>
