<svg width="29" height="33" viewBox="0 0 29 33" fill="none" xmlns="http://www.w3.org/2000/svg">
<g clip-path="url(#clip0_324_566)">
<path d="M27.5301 9.06381L16.2102 15.6116C15.4334 16.0555 14.4346 16.0555 13.5467 15.6116L2.11588 9.06381C1.56098 8.73088 1.56098 7.84304 2.11588 7.51011L13.4358 0.962332C14.2126 0.518415 15.2114 0.518415 16.0993 0.962332L27.4191 7.51011C28.085 7.84304 28.085 8.73088 27.5301 9.06381Z" fill="#4AC2FF"/>
<path d="M11.8821 32.7024L2.11593 27.0425C1.33908 26.4876 0.78418 25.7107 0.78418 24.7119V13.392C0.78418 12.7262 1.56103 12.2822 2.11593 12.6152L11.8821 18.2751C12.659 18.719 13.2139 19.6069 13.2139 20.6057V31.9256C13.2139 32.5914 12.437 33.0353 11.8821 32.7024Z" fill="#4AC2FF"/>
<path d="M27.4192 27.0425L17.653 32.7024C17.0981 33.0353 16.3213 32.5914 16.3213 31.9256V20.6057C16.3213 19.6069 16.8762 18.83 17.653 18.2751L27.4192 12.6152C27.9741 12.2822 28.751 12.7262 28.751 13.392V24.7119C28.751 25.7107 28.307 26.4876 27.4192 27.0425Z" fill="#4AC2FF"/>
</g>
<defs>
<clipPath id="clip0_324_566">
<rect width="27.9668" height="32.184" fill="white" transform="translate(0.78418 0.629395)"/>
</clipPath>
</defs>
</svg>
