<svg width="199" height="190" viewBox="0 0 199 190" fill="none" xmlns="http://www.w3.org/2000/svg">
<path d="M187.474 95.3468C187.474 104.29 186.262 112.779 183.836 120.965C172.77 159.619 137.147 187.966 94.8548 187.966C93.6421 187.966 92.4294 187.966 91.2167 187.966C90.004 187.966 88.9429 187.815 87.7302 187.815C82.4247 187.36 77.2707 186.602 72.2684 185.238C67.266 184.025 62.4152 182.357 57.7161 180.235C52.1074 177.81 46.9534 174.778 41.951 171.443C38.4646 169.018 35.2812 166.441 32.0979 163.561C27.3987 159.165 23.0027 154.314 19.3646 149.008C17.2424 146.128 15.4234 143.097 13.6043 139.913C13.6043 139.913 13.6043 139.913 13.6043 139.762C9.35992 131.879 6.1766 123.39 4.20598 114.295C3.9028 112.931 3.75122 111.718 3.44804 110.354C3.29646 109.899 3.29646 109.293 3.14487 108.838C2.53852 104.442 2.23535 100.046 2.23535 95.4983C2.23535 64.4231 17.5456 36.8343 41.0415 20.0082C56.2002 9.24555 74.6938 2.87891 94.8548 2.87891C116.077 2.87891 135.783 10.0035 151.397 22.1304C155.641 25.3137 159.431 28.9518 162.917 32.7415C166.555 36.6827 169.89 41.0787 172.922 45.6263C182.169 59.8755 187.474 77.0048 187.474 95.3468Z" fill="#FFB800"/>
<path d="M94.8553 189.937C93.6426 189.937 92.4299 189.937 91.2172 189.785C90.0045 189.785 88.7918 189.634 87.5791 189.634C82.2736 189.179 76.968 188.421 71.8141 187.057C66.8117 185.844 61.8094 184.025 56.9586 181.903C51.3499 179.477 45.8928 176.446 40.8904 172.808C37.4039 170.382 33.9174 167.654 30.8857 164.774C26.0349 160.378 21.6389 155.375 17.8492 149.918C15.727 147.038 13.7564 143.855 12.0889 140.671V140.52C7.69293 132.334 4.35803 123.542 2.53899 114.598C2.23581 113.234 2.08423 111.87 1.78105 110.506L1.47788 108.99C0.871533 104.442 0.568359 99.8945 0.568359 95.3469C0.568359 64.878 15.4238 36.0765 40.2841 18.3409C56.0491 6.8203 74.9974 0.756836 94.8553 0.756836C115.926 0.756836 135.935 7.57823 152.61 20.4631C156.854 23.6464 160.795 27.2845 164.434 31.2258C168.223 35.3186 171.71 39.7146 174.59 44.4138C184.291 59.5725 189.445 77.1565 189.445 95.3469C189.445 104.291 188.233 113.083 185.807 121.571C174.135 161.742 136.845 189.937 94.8553 189.937ZM94.8553 4.69809C75.9069 4.69809 57.7165 10.4584 42.2547 21.5242C18.4556 38.5019 4.20644 66.0907 4.20644 95.3469C4.20644 99.7429 4.50961 104.139 5.11596 108.535L5.26755 110.051C5.41913 111.263 5.7223 112.628 6.02548 113.84C7.84452 122.481 11.0278 130.818 15.2723 138.701V138.852C16.9397 141.884 18.7588 144.916 20.881 147.644C24.519 152.798 28.7635 157.649 33.4627 161.893C36.4944 164.622 39.6777 167.199 43.0126 169.624C47.8634 172.959 53.0173 175.991 58.4745 178.265C63.1736 180.235 67.8728 181.903 72.7236 183.116C77.726 184.328 82.7283 185.238 87.8823 185.541C89.095 185.693 90.1561 185.693 91.3688 185.693C92.5814 185.693 93.7941 185.693 94.8553 185.693C135.026 185.693 170.8 158.71 182.018 120.207C184.291 112.021 185.504 103.684 185.504 95.1953C185.504 77.7628 180.653 60.9367 171.255 46.3844C168.375 41.9884 165.191 37.744 161.553 33.8027C158.067 30.0131 154.277 26.5266 150.184 23.3432C134.116 11.2163 115.016 4.69809 94.8553 4.69809Z" fill="black"/>
<path d="M183.836 120.965C172.77 159.619 137.147 187.966 94.8544 187.966C93.6417 187.966 92.429 187.966 91.2163 187.966C90.0036 187.966 88.9425 187.814 87.7298 187.814C82.4243 187.359 77.2703 186.602 72.268 185.237L68.6299 180.235L74.2386 148.705L91.0647 117.023L111.377 120.055C114.561 115.053 120.018 111.718 126.384 111.718C132.751 111.718 138.36 115.053 141.391 120.207C145.787 113.082 153.518 108.383 162.462 108.383C171.557 108.383 179.591 113.385 183.836 120.965Z" fill="#FDF7F4"/>
<path d="M94.8548 189.482C93.6421 189.482 92.4294 189.482 91.2168 189.33C90.0041 189.33 88.7914 189.179 87.5787 189.179C82.2731 188.724 76.9676 187.966 71.8137 186.602C71.5105 186.45 71.2073 186.299 70.9041 185.995L67.2661 180.993C66.9629 180.69 66.9629 180.235 66.9629 179.78L72.5716 148.25C72.5716 148.099 72.7232 147.947 72.7232 147.796L89.7009 116.266C90.0041 115.659 90.6104 115.356 91.2168 115.508L110.468 118.388C114.106 113.234 119.867 110.202 126.233 110.202C132.145 110.202 137.602 112.931 141.24 117.478C146.243 110.808 153.822 106.867 162.311 106.867C171.709 106.867 180.501 112.021 185.2 120.207C185.352 120.51 185.504 120.965 185.352 121.42C173.831 161.438 136.541 189.482 94.8548 189.482ZM73.0264 183.722C77.8771 184.934 82.7279 185.692 87.7303 185.995C88.943 186.147 90.0041 186.147 91.2168 186.147C92.4294 186.147 93.6421 186.147 94.8548 186.147C135.025 186.147 170.8 159.316 182.169 120.965C177.924 113.992 170.497 109.747 162.311 109.747C154.277 109.747 146.849 113.84 142.605 120.813C142.301 121.268 141.847 121.571 141.24 121.571C140.786 121.571 140.179 121.268 139.876 120.813C136.844 115.962 131.842 113.082 126.082 113.082C120.473 113.082 115.319 115.962 112.439 120.813C112.136 121.268 111.529 121.571 110.923 121.571L91.6715 118.691L75.6033 149.16L70.1462 179.78L73.0264 183.722Z" fill="black"/>
<path d="M46.6505 95.4989L49.2274 105.807L22.3966 115.357L16.1815 114.902L4.05461 114.144C3.75144 112.78 3.59985 111.567 3.29668 110.203C3.14509 109.748 3.14509 109.142 2.9935 108.687C2.38716 104.291 2.08398 99.8949 2.08398 95.3474C2.08398 74.4284 9.05697 55.0253 20.8807 39.5635C26.641 31.9841 33.3108 25.4659 41.0417 20.0088C48.9243 22.8889 54.3814 30.4683 54.3814 39.2603C54.3814 43.5047 53.1687 47.2944 51.0465 50.6293C60.8996 53.2063 68.1758 62.1499 68.1758 72.7609C68.1758 84.7363 58.6258 94.741 46.6505 95.4989Z" fill="#FDF7F4"/>
<path d="M22.5482 116.872L2.84194 115.659L2.69035 114.447C2.38718 113.082 2.23559 111.718 1.93242 110.506L1.62925 108.99C1.0229 104.442 0.719727 99.8944 0.719727 95.3468C0.719727 74.5795 7.23795 55.0248 19.8196 38.6534C25.5799 31.0741 32.4013 24.4043 40.2838 18.7956L40.8902 18.3408L41.6481 18.644C50.2886 21.8273 56.0489 30.1646 56.0489 39.2598C56.0489 42.8979 55.1393 46.5359 53.4719 49.7193C63.1734 53.0542 69.8432 62.3009 69.8432 72.7604C69.8432 85.0389 60.748 95.3468 48.6211 96.8627L51.0465 106.716L22.5482 116.872ZM5.41891 112.779L22.0934 113.84L47.4084 104.745L44.6799 93.9826L46.4989 93.831C57.8679 93.2246 66.6599 83.9778 66.6599 72.6088C66.6599 62.9073 60.1417 54.4184 50.5917 51.9931L48.4695 51.3867L49.6822 49.5677C51.8044 46.3843 52.8655 42.8979 52.8655 39.1082C52.8655 31.3773 48.1663 24.5559 41.1934 21.5241C33.9172 26.8297 27.5506 33.1963 22.0934 40.3209C9.96651 56.2375 3.59987 75.1858 3.59987 95.1952C3.59987 99.5913 3.90305 103.987 4.50939 108.383L4.66098 109.899C5.11574 110.96 5.26733 111.87 5.41891 112.779Z" fill="black"/>
<path d="M34.6751 105.807C34.6751 105.958 24.3672 111.112 16.1815 115.053L4.05461 114.295C3.75144 112.931 3.59985 111.719 3.29668 110.354C3.14509 109.899 3.14509 109.293 2.9935 108.838C2.38716 104.442 2.08398 100.046 2.08398 95.4987C2.08398 74.5798 9.05697 55.1767 20.8807 39.7148C11.9371 54.2672 15.272 99.8947 33.0077 96.2567C33.0077 95.9535 34.6751 105.503 34.6751 105.807Z" fill="#4AC2FF"/>
<path d="M101.221 145.522C99.5536 156.588 142.604 181.6 165.645 154.921L158.521 163.41L150.184 168.715L137.147 177.659L119.108 184.632L101.676 188.573L90.7616 187.815L84.0918 185.996L86.0624 176.295L93.187 160.681L95.6124 150.525L101.221 145.522Z" fill="#4AC2FF"/>
<path d="M94.8553 189.937C93.6426 189.937 92.4299 189.937 91.2172 189.785C90.0045 189.785 88.7918 189.634 87.5791 189.634C82.2736 189.179 76.968 188.421 71.8141 187.057C66.8117 185.844 61.8094 184.025 56.9586 181.903C51.3499 179.477 45.8928 176.446 40.8904 172.808C37.4039 170.382 33.9174 167.654 30.8857 164.774C26.0349 160.378 21.6389 155.375 17.8492 149.918C15.727 147.038 13.7564 143.855 12.0889 140.671V140.52C7.69293 132.334 4.35803 123.542 2.53899 114.598C2.23581 113.234 2.08423 111.87 1.78105 110.506L1.47788 108.99C0.871533 104.442 0.568359 99.8945 0.568359 95.3469C0.568359 64.878 15.4238 36.0765 40.2841 18.3409C56.0491 6.8203 74.9974 0.756836 94.8553 0.756836C115.926 0.756836 135.935 7.57823 152.61 20.4631C156.854 23.6464 160.795 27.2845 164.434 31.2258C168.223 35.3186 171.71 39.7146 174.59 44.4138C184.291 59.5725 189.445 77.1565 189.445 95.3469C189.445 104.291 188.233 113.083 185.807 121.571C174.135 161.742 136.845 189.937 94.8553 189.937ZM94.8553 4.69809C75.9069 4.69809 57.7165 10.4584 42.2547 21.5242C18.4556 38.5019 4.20644 66.0907 4.20644 95.3469C4.20644 99.7429 4.50961 104.139 5.11596 108.535L5.26755 110.051C5.41913 111.263 5.7223 112.628 6.02548 113.84C7.84452 122.481 11.0278 130.818 15.2723 138.701V138.852C16.9397 141.884 18.7588 144.916 20.881 147.644C24.519 152.798 28.7635 157.649 33.4627 161.893C36.4944 164.622 39.6777 167.199 43.0126 169.624C47.8634 172.959 53.0173 175.991 58.4745 178.265C63.1736 180.235 67.8728 181.903 72.7236 183.116C77.726 184.328 82.7283 185.238 87.8823 185.541C89.095 185.693 90.1561 185.693 91.3688 185.693C92.5814 185.693 93.7941 185.693 94.8553 185.693C135.026 185.693 170.8 158.71 182.018 120.207C184.291 112.021 185.504 103.684 185.504 95.1953C185.504 77.7628 180.653 60.9367 171.255 46.3844C168.375 41.9884 165.191 37.744 161.553 33.8027C158.067 30.0131 154.277 26.5266 150.184 23.3432C134.116 11.2163 115.016 4.69809 94.8553 4.69809Z" fill="black"/>
<path d="M182.776 12.7323L141.999 53.3576L124.415 71.0932L117.897 77.6114L114.107 81.4011L94.5527 100.956L88.0345 107.474L78.4845 117.024L32.099 163.409C27.3999 159.013 23.0038 154.163 19.3658 148.857C17.2435 145.977 15.4245 142.794 13.6055 139.61L66.964 86.2519L83.3353 69.8805L100.161 53.0544C101.223 51.9933 102.284 50.9322 103.496 49.8711C107.438 46.3846 111.682 43.0497 116.23 40.3211L118.503 38.9568C120.474 37.7441 122.445 36.5314 124.415 35.4703C131.085 31.5291 138.058 28.0426 145.031 24.8593L151.398 21.9791L174.742 11.3681C175.045 11.2165 175.197 11.2165 175.5 11.0649C175.955 10.9133 176.41 10.7617 176.864 10.7617C177.167 10.7617 177.319 10.7617 177.471 10.7617C177.774 10.7617 178.077 10.7617 178.38 10.7617C178.532 10.7617 178.835 10.7617 178.986 10.9133C180.199 11.2165 181.26 11.6712 182.17 12.4292C182.17 12.4292 182.321 12.4292 182.321 12.5808C182.473 12.5808 182.625 12.7323 182.776 12.7323Z" fill="#FDF7F4"/>
<path d="M32.0988 164.925C31.7956 164.925 31.3409 164.773 31.0377 164.47C26.1869 160.074 21.7909 155.072 18.0012 149.766C15.879 146.886 13.9084 143.703 12.0894 140.368C11.7862 139.761 11.9378 139.004 12.3925 138.549L82.1224 68.8189L82.274 68.6673L98.9485 51.9928C99.858 51.0832 100.919 50.0221 102.283 48.8095C106.225 45.1714 110.621 41.988 115.168 39.1079L117.442 37.7436C119.261 36.5309 121.232 35.4698 123.354 34.1055C129.872 30.3159 136.845 26.6778 144.121 23.3429L173.984 9.85168C174.135 9.7001 174.287 9.7001 174.59 9.7001L174.893 9.54851C175.651 9.24534 176.106 9.24534 176.712 9.09375C176.864 9.09375 177.167 9.09375 177.47 9.09375C177.925 9.09375 178.228 9.09375 178.683 9.09375C178.986 9.09375 179.289 9.24534 179.593 9.24534C180.957 9.54851 182.321 10.1549 183.382 11.0644L183.534 11.216C183.685 11.3675 183.685 11.3675 183.837 11.5191C184.443 12.1255 184.443 13.035 183.837 13.6413L33.1599 164.47C32.8567 164.773 32.402 164.925 32.0988 164.925ZM15.4243 139.913C16.9401 142.642 18.7592 145.37 20.5782 147.947C24.0647 152.798 27.8544 157.194 32.0988 161.287L180.502 12.8834C180.047 12.5802 179.441 12.4287 178.835 12.2771C178.531 12.2771 178.38 12.1255 178.228 12.1255C178.077 12.1255 177.774 12.1255 177.47 12.1255C177.319 12.1255 177.167 12.1255 177.016 12.1255C176.712 12.1255 176.258 12.2771 175.955 12.4287L175.651 12.5802C175.5 12.5802 175.5 12.7318 175.348 12.7318L145.486 26.223C138.361 29.4064 131.388 33.0444 125.021 36.8341C122.899 38.0468 120.929 39.2595 119.11 40.3206L116.836 41.6849C112.44 44.4134 108.195 47.5968 104.406 51.0833C103.041 52.2959 102.132 53.2055 101.071 54.115L84.3962 70.9411L84.2446 71.0927L15.4243 139.913Z" fill="black"/>
<path d="M103.307 49.9752L66.9707 86.3115L88.0865 107.427L124.423 71.091L103.307 49.9752Z" fill="#4AC2FF"/>
<path d="M88.0337 108.989C87.5789 108.989 87.2757 108.837 86.9726 108.534L65.902 87.312C65.2957 86.7057 65.2957 85.7962 65.902 85.1898L102.131 48.9606C102.738 48.3543 103.647 48.3543 104.253 48.9606L125.324 70.0312C125.93 70.6375 125.93 71.547 125.324 72.1534L89.0948 108.534C88.7916 108.837 88.4884 108.989 88.0337 108.989ZM69.0853 86.2509L88.0337 105.351L122.141 71.2439L103.192 52.1439L69.0853 86.2509Z" fill="black"/>
<path d="M145.485 92.3154L142.302 95.4987C143.363 94.4376 144.424 93.3765 145.485 92.3154Z" fill="#4AC2FF"/>
<path d="M142.302 97.0141C141.847 97.0141 141.544 96.8625 141.241 96.5593C140.635 95.953 140.635 95.0435 141.241 94.4371C142.302 93.376 143.212 92.3149 144.424 91.1022C144.727 90.799 145.031 90.6475 145.485 90.6475C145.94 90.6475 146.243 90.799 146.546 91.1022C146.85 91.4054 147.001 91.8602 147.001 92.1633C147.001 92.4665 146.85 92.9213 146.546 93.2244L143.363 96.4078C143.06 96.8625 142.605 97.0141 142.302 97.0141Z" fill="black"/>
<path d="M117.896 77.6109L94.5513 100.955C88.1847 94.437 88.1847 84.1291 94.5513 77.6109C101.07 71.2443 111.377 71.2443 117.896 77.6109Z" fill="black"/>
<path d="M94.5522 102.471C94.0974 102.471 93.7943 102.319 93.4911 102.016C90.1562 98.6813 88.1855 94.1337 88.1855 89.283C88.1855 84.4322 90.0046 80.0362 93.4911 76.5497C96.826 73.2148 101.374 71.2441 106.224 71.2441C111.075 71.2441 115.471 73.0632 118.958 76.5497C119.564 77.156 119.564 78.0655 118.958 78.6719L95.6133 102.016C95.3101 102.319 95.0069 102.471 94.5522 102.471ZM106.224 74.2759C102.283 74.2759 98.4934 75.7917 95.6133 78.6719C92.7331 81.552 91.2173 85.1901 91.2173 89.283C91.2173 92.7694 92.43 96.1043 94.5522 98.6813L115.623 77.6108C113.046 75.4886 109.711 74.2759 106.224 74.2759Z" fill="black"/>
<path d="M114.107 81.4005L98.3419 97.1655C93.9459 92.7695 93.9459 85.7965 98.3419 81.4005C102.738 77.0045 109.711 77.0045 114.107 81.4005Z" fill="#FDF7F4"/>
<path d="M98.3422 98.6816C97.8874 98.6816 97.5842 98.5301 97.2811 98.2269C92.2787 93.2245 92.2787 85.1904 97.2811 80.3397C102.283 75.3373 110.318 75.3373 115.168 80.3397C115.775 80.946 115.775 81.8555 115.168 82.4619L99.4033 98.2269C99.1001 98.5301 98.6453 98.6816 98.3422 98.6816ZM106.225 79.5817C103.648 79.5817 101.222 80.6428 99.4033 82.4619C97.5842 84.2809 96.5231 86.7063 96.5231 89.2833C96.5231 91.4055 97.1295 93.3761 98.3422 94.892L111.833 81.4008C110.166 80.3397 108.347 79.5817 106.225 79.5817Z" fill="black"/>
<path d="M78.4859 117.023L72.2709 123.238L63.782 114.749C62.8725 113.84 62.5693 112.778 62.5693 111.566C62.5693 110.505 63.0241 109.292 63.782 108.382C65.4495 106.715 68.3296 106.715 69.9971 108.382L78.4859 117.023Z" fill="#4AC2FF"/>
<path d="M72.2701 124.754C71.8154 124.754 71.5122 124.602 71.209 124.299L62.7202 115.81C61.6591 114.749 61.0527 113.233 61.0527 111.566C61.0527 110.05 61.6591 108.534 62.7202 107.322C64.994 105.048 68.7837 105.048 71.209 107.322L79.6979 115.81C80.0011 116.114 80.1527 116.417 80.1527 116.872C80.1527 117.326 80.0011 117.629 79.6979 117.933L73.4828 124.148C73.0281 124.602 72.5733 124.754 72.2701 124.754ZM66.813 108.686C66.0551 108.686 65.2972 108.989 64.6908 109.595C64.0845 110.202 63.7813 110.808 63.7813 111.566C63.7813 112.324 64.0845 113.082 64.6908 113.688L72.1186 121.116L76.2114 117.023L68.7837 109.595C68.3289 108.989 67.571 108.686 66.813 108.686Z" fill="black"/>
<path d="M62.4164 90.9502L13.6055 139.761C13.6055 139.761 13.6055 139.761 13.6055 139.61C8.75475 130.666 5.26826 120.661 3.44922 110.202C15.4246 101.561 29.3705 95.801 44.226 93.5272L62.4164 90.9502Z" fill="#FDF7F4"/>
<path d="M13.6052 141.278C13.4536 141.278 13.4536 141.278 13.302 141.278C12.8472 141.278 12.3925 140.974 12.2409 140.52C7.08693 131.121 3.60044 120.965 1.93299 110.506C1.7814 109.899 2.08457 109.444 2.53933 108.99C14.8179 100.198 29.067 94.2858 43.9225 92.1636L62.2645 89.435C62.8708 89.2834 63.4772 89.7382 63.7803 90.1929C64.0835 90.7993 63.9319 91.5572 63.4772 92.012L14.6663 140.823C14.3631 141.126 13.9083 141.278 13.6052 141.278ZM5.11631 110.96C6.63217 120.056 9.66391 128.999 13.9083 137.185L58.02 93.0731L44.2257 95.0437C30.2797 97.1659 16.7885 102.623 5.11631 110.96Z" fill="black"/>
<path d="M182.775 12.7314L142.15 53.3566L124.263 35.6209C130.933 31.6797 137.905 28.1932 144.878 25.0099L174.741 11.3671C175.044 11.2155 175.196 11.2155 175.499 11.0639C175.954 10.9123 176.408 10.7607 176.863 10.7607C177.015 10.7607 177.318 10.7607 177.47 10.7607C177.773 10.7607 178.076 10.7607 178.379 10.7607C178.682 10.7607 178.834 10.7607 179.137 10.9123C180.35 11.2155 181.411 11.6703 182.32 12.4282C182.32 12.4282 182.472 12.4282 182.472 12.5798C182.472 12.5798 182.624 12.7314 182.775 12.7314Z" fill="#4AC2FF"/>
<path d="M142.15 54.8725C141.695 54.8725 141.392 54.7209 141.089 54.4177L123.202 36.6821C122.899 36.3789 122.747 35.9241 122.747 35.4694C122.747 35.0146 123.05 34.5599 123.505 34.4083C130.023 30.6186 137.148 26.9805 144.272 23.6456L174.135 10.1544C174.438 10.0028 174.741 10.0028 174.893 9.85124C175.499 9.69966 176.106 9.54807 176.56 9.39648C176.712 9.39648 177.015 9.39648 177.318 9.39648C177.773 9.39648 178.076 9.39648 178.531 9.39648C178.834 9.39648 179.137 9.39648 179.44 9.54807C180.805 9.85124 182.169 10.4576 183.23 11.3671C183.382 11.3671 183.382 11.5187 183.533 11.5187C183.685 11.6703 183.685 11.6703 183.836 11.8219C184.14 12.125 184.291 12.4282 184.291 12.883C184.291 13.3377 184.14 13.6409 183.836 13.9441L143.211 54.4177C142.908 54.7209 142.453 54.8725 142.15 54.8725ZM126.688 35.9241L142.15 51.386L180.502 12.883C180.047 12.5798 179.44 12.4282 178.834 12.2766C178.683 12.2766 178.531 12.2766 178.379 12.125C178.076 12.125 177.925 12.125 177.621 12.125C177.47 12.125 177.318 12.125 177.167 12.125C176.712 12.125 176.409 12.2766 176.106 12.4282C175.954 12.4282 175.651 12.5798 175.499 12.7314L145.637 26.2226C138.967 29.2543 132.752 32.4377 126.688 35.9241Z" fill="black"/>
<path d="M102.889 134.911L100.16 153.102C98.341 165.38 94.0966 177.052 87.73 187.663C77.1189 186.905 66.9626 184.328 57.7158 180.084L86.6689 151.131L102.889 134.911Z" fill="#4AC2FF"/>
<path d="M87.7304 189.179C87.7304 189.179 87.5788 189.179 87.7304 189.179C76.9678 188.421 66.8115 185.844 57.1099 181.599C56.6552 181.448 56.352 180.993 56.2004 180.538C56.0488 180.083 56.2004 179.477 56.6552 179.174L101.828 133.85C102.283 133.395 103.041 133.243 103.647 133.546C104.253 133.85 104.557 134.456 104.405 135.062L101.676 153.253C99.8574 165.834 95.6129 177.507 88.9431 188.269C88.7915 188.876 88.1852 189.179 87.7304 189.179ZM60.2932 179.629C68.7821 183.115 77.7257 185.237 86.8209 185.995C92.8844 175.839 96.8256 164.622 98.6447 152.798L100.615 139.155L60.2932 179.629Z" fill="black"/>
<path d="M159.885 71.2439L142.149 53.3567L182.775 12.7314C182.926 12.883 182.926 12.883 183.078 13.0346L183.229 13.1862C183.381 13.4894 183.684 13.641 183.836 13.9441C183.987 14.0957 184.139 14.3989 184.139 14.5505C184.139 14.7021 184.291 14.7021 184.291 14.8537C184.291 15.0052 184.442 15.1568 184.442 15.3084C184.442 15.3084 184.594 15.46 184.594 15.6116C184.745 15.9148 184.745 16.0664 184.745 16.3695C184.745 16.6727 184.897 16.9759 184.897 17.279C184.897 17.5822 184.897 17.7338 184.897 18.037C184.897 18.1886 184.897 18.4917 184.897 18.6433C184.897 19.0981 184.745 19.5528 184.594 20.0076C184.442 20.3108 184.442 20.4624 184.291 20.7655L170.799 50.4765C167.464 57.6011 163.826 64.5741 159.885 71.2439Z" fill="black"/>
<path d="M159.886 72.76C159.431 72.76 159.128 72.6084 158.824 72.3052L140.937 54.418C140.331 53.8117 140.331 52.9021 140.937 52.2958L181.562 11.6706C181.866 11.3674 182.169 11.2158 182.624 11.2158C183.078 11.2158 183.381 11.3674 183.685 11.6706C183.836 11.8222 183.836 11.8222 183.988 11.9738L184.139 12.1253C184.443 12.4285 184.594 12.7317 184.746 13.0349C184.897 13.1864 185.049 13.4896 185.049 13.6412C185.2 13.7928 185.2 13.9444 185.352 14.096C185.352 14.2476 185.504 14.2476 185.504 14.3991C185.504 14.5507 185.655 14.7023 185.655 14.8539C185.807 15.1571 185.807 15.4602 185.807 15.6118C185.958 15.915 185.958 16.2182 185.958 16.6729C185.958 16.9761 185.958 17.2793 185.958 17.734C185.958 18.0372 185.958 18.3404 185.958 18.492C185.958 19.0983 185.807 19.5531 185.504 20.1594C185.352 20.4626 185.352 20.7658 185.2 20.9174L171.709 50.6283C168.526 57.7529 164.888 64.7259 160.947 71.5473C160.643 72.0021 160.34 72.1536 159.886 72.3052C160.037 72.76 160.037 72.76 159.886 72.76ZM144.272 53.3569L159.582 68.6672C163.069 62.6037 166.404 56.2371 169.284 49.7188L182.775 20.0078C182.927 19.8563 182.927 19.5531 183.078 19.4015C183.23 19.0983 183.23 18.6436 183.381 18.3404C183.381 18.1888 183.381 17.8856 183.381 17.734C183.381 17.5825 183.381 17.2793 183.381 17.1277C183.381 16.9761 183.381 16.6729 183.23 16.5214C183.23 16.2182 183.078 16.0666 183.078 15.915V15.7634C183.078 15.6118 182.927 15.6118 182.927 15.4602C182.927 15.4602 182.775 15.3087 182.775 15.1571C182.775 15.0055 182.624 15.0055 182.624 14.8539C182.624 14.8539 182.623 14.7023 182.472 14.7023L144.272 53.3569Z" fill="black"/>
<path d="M145.486 92.1626L124.415 71.0921L142.151 53.3564L160.038 71.2437C158.825 73.2143 157.764 75.3365 156.4 77.3071L155.036 79.5809C152.155 83.9769 148.972 88.2214 145.486 92.1626Z" fill="#4AC2FF"/>
<path d="M145.486 93.6787C145.031 93.6787 144.728 93.5271 144.425 93.224L123.354 72.1534C122.748 71.5471 122.748 70.6376 123.354 70.0312L140.938 52.2956C141.545 51.6892 142.454 51.6892 143.06 52.2956L160.948 70.1828C161.402 70.6376 161.554 71.3955 161.251 72.0018C159.887 74.2756 158.825 76.2463 157.613 78.0653L156.248 80.3391C153.368 84.8867 150.185 89.2827 146.547 93.224C146.244 93.5271 145.941 93.6787 145.486 93.6787ZM126.538 71.0923L145.334 89.8891C148.366 86.4026 151.246 82.6129 153.672 78.6717L155.036 76.3979C155.945 74.882 157.006 73.2145 158.068 71.3955L142.151 55.4789L126.538 71.0923Z" fill="black"/>
<path d="M114.107 97.1654C109.711 101.561 102.738 101.561 98.3418 97.1654L114.107 81.4004C118.503 85.7964 118.503 92.7694 114.107 97.1654Z" fill="#4AC2FF"/>
<path d="M106.225 102.016C103.041 102.016 99.7063 100.804 97.2809 98.3781C96.6746 97.7718 96.6746 96.8623 97.2809 96.2559L113.046 80.4909C113.652 79.8845 114.562 79.8845 115.168 80.4909C117.594 82.9163 118.806 86.0996 118.806 89.4345C118.806 92.7694 117.442 95.9527 115.168 98.3781C112.743 100.652 109.408 102.016 106.225 102.016ZM100.464 97.1654C104.254 99.894 109.559 99.5908 112.894 96.1043C114.713 94.2853 115.774 91.8599 115.774 89.2829C115.774 87.1607 115.168 85.1901 113.955 83.6742L100.464 97.1654Z" fill="black"/>
<path d="M117.897 100.956C111.53 107.322 101.071 107.322 94.5527 100.956L98.3424 97.166C102.738 101.562 109.711 101.562 114.107 97.166C118.503 92.77 118.503 85.797 114.107 81.401L117.897 77.6113C124.264 84.1296 124.264 94.4374 117.897 100.956Z" fill="black"/>
<path d="M106.224 107.17C101.677 107.17 96.9774 105.351 93.4909 101.865C92.8845 101.258 92.8845 100.349 93.4909 99.7425L97.2806 95.9528C97.8869 95.3464 98.7964 95.3464 99.4028 95.9528C103.192 99.7425 109.256 99.7425 113.046 95.9528C114.865 94.1338 115.926 91.7084 115.926 89.1314C115.926 86.5544 114.865 84.129 113.046 82.31C112.439 81.7036 112.439 80.7941 113.046 80.1878L116.835 76.3981C117.442 75.7918 118.351 75.7918 118.957 76.3981C125.93 83.3711 125.93 94.7401 118.957 101.865C115.471 105.503 110.772 107.17 106.224 107.17ZM96.8258 100.804C102.738 105.654 111.378 105.2 116.835 99.7425C122.292 94.2853 122.596 85.6449 117.896 79.733L116.229 81.4005C118.048 83.6743 118.957 86.4028 118.957 89.283C118.957 92.6179 117.593 95.8012 115.319 98.2266C110.772 102.774 103.496 103.077 98.4933 99.2877L96.8258 100.804Z" fill="black"/>
<path d="M142.302 95.4982L109.256 128.544L88.0342 107.474L94.5524 100.955C100.919 107.322 111.379 107.322 117.897 100.955C124.263 94.5887 124.263 84.1292 117.897 77.611L124.415 71.0928L145.486 92.1633C144.424 93.376 143.363 94.4371 142.302 95.4982Z" fill="black"/>
<path d="M109.257 130.06C108.802 130.06 108.499 129.908 108.195 129.605L86.9733 108.535C86.367 107.928 86.367 107.019 86.9733 106.412L93.4915 99.8943C94.0979 99.2879 95.0074 99.2879 95.6138 99.8943C101.374 105.655 110.924 105.655 116.684 99.8943C122.445 94.134 122.445 84.584 116.684 78.8237C116.078 78.2174 116.078 77.3078 116.684 76.7015L123.203 70.1833C123.809 69.5769 124.718 69.5769 125.325 70.1833L146.395 91.2538C147.002 91.8602 147.002 92.7697 146.395 93.376C145.334 94.5887 144.273 95.6498 143.212 96.7109L110.318 129.605C110.014 129.908 109.56 130.06 109.257 130.06ZM90.1566 107.474L109.105 126.422L141.241 94.4371C141.999 93.6792 142.606 93.0729 143.364 92.1633L124.415 73.215L120.019 77.611C125.931 84.7356 125.628 95.1951 118.958 101.865C112.288 108.535 101.677 108.838 94.7042 102.926L90.1566 107.474Z" fill="black"/>
<path d="M86.9725 131.727C85.305 133.395 82.4249 133.395 80.7574 131.727L72.2686 123.238L78.4836 117.023L86.9725 125.512C87.882 126.422 88.3367 127.483 88.3367 128.696C88.3367 129.757 87.882 130.969 86.9725 131.727Z" fill="black"/>
<path d="M83.941 134.608C83.7894 134.608 83.7894 134.608 83.941 134.608C82.2735 134.608 80.9092 134.001 79.6965 132.789L71.2077 124.3C70.9045 123.997 70.7529 123.693 70.7529 123.239C70.7529 122.784 70.9045 122.481 71.2077 122.178L77.4227 115.963C78.0291 115.356 78.9386 115.356 79.545 115.963L88.0338 124.451C89.0949 125.513 89.7013 127.028 89.7013 128.696C89.7013 130.363 89.0949 131.728 88.0338 132.94C86.9727 134.001 85.4568 134.608 83.941 134.608ZM74.391 123.239L81.8188 130.666C82.4251 131.273 83.183 131.576 83.941 131.576C84.6989 131.576 85.4568 131.273 86.0632 130.666C86.6695 130.06 86.9727 129.454 86.9727 128.544C86.9727 127.635 86.6695 127.028 86.0632 126.422L78.6354 118.994L74.391 123.239Z" fill="black"/>
<path d="M109.256 128.543L57.7168 180.083C52.1081 177.657 46.9541 174.626 41.9518 171.291C38.4653 168.865 35.282 166.288 32.0986 163.408L72.2691 123.238L80.7579 131.727C82.4254 133.394 85.3055 133.394 86.973 131.727C87.8825 130.817 88.3373 129.756 88.3373 128.543C88.3373 127.331 87.8825 126.27 86.973 125.36L78.4841 116.871L88.0341 107.321L109.256 128.543Z" fill="#4AC2FF"/>
<path d="M57.5656 181.599C57.4141 181.599 57.1109 181.599 56.9593 181.447C51.3506 179.022 46.0451 175.99 40.8911 172.504C37.4046 170.078 34.0697 167.35 30.8864 164.47C30.5832 164.167 30.4316 163.863 30.4316 163.409C30.4316 162.954 30.5832 162.651 30.8864 162.347L71.0569 122.177C71.6632 121.571 72.5727 121.571 73.1791 122.177L81.6679 130.666C82.729 131.727 84.6997 131.727 85.7608 130.666C86.3671 130.06 86.6703 129.453 86.6703 128.544C86.6703 127.634 86.3671 127.028 85.7608 126.421L77.2719 117.933C76.6656 117.326 76.6656 116.417 77.2719 115.81L86.8219 106.26C87.125 105.957 87.4282 105.806 87.883 105.806C88.3377 105.806 88.6409 105.957 88.9441 106.26L110.166 127.483C110.773 128.089 110.773 128.998 110.166 129.605L58.6268 181.144C58.4752 181.447 58.0204 181.599 57.5656 181.599ZM34.2213 163.409C36.9499 165.834 39.6784 167.956 42.7102 170.078C47.2578 173.262 52.1085 176.142 57.2625 178.416L106.983 128.695L88.0346 109.595L80.6068 117.023L88.0346 124.451C89.0957 125.512 89.8536 127.028 89.8536 128.695C89.8536 130.363 89.2473 131.727 88.0346 132.94C86.9735 134.001 85.4576 134.607 83.7901 134.607C82.2743 134.607 80.7584 134.001 79.5457 132.94L72.118 125.512L34.2213 163.409Z" fill="black"/>
<path d="M147.154 154.163C149.882 147.038 146.244 139.004 139.12 136.276C131.995 133.547 123.961 137.185 121.232 144.31" fill="#FDF7F4"/>
<path d="M147.153 155.679C147.002 155.679 146.85 155.679 146.547 155.527C145.789 155.224 145.334 154.315 145.638 153.557C148.063 147.19 144.88 140.065 138.361 137.64C131.995 135.215 124.87 138.398 122.445 144.916C122.142 145.674 121.232 146.129 120.474 145.826C119.716 145.523 119.262 144.613 119.565 143.855C122.596 135.973 131.54 131.88 139.423 134.912C147.305 137.943 151.398 146.887 148.366 154.769C148.366 155.376 147.76 155.679 147.153 155.679Z" fill="black"/>
<path d="M71.6622 45.6262C74.6761 45.6262 77.1193 43.1829 77.1193 40.169C77.1193 37.1551 74.6761 34.7119 71.6622 34.7119C68.6483 34.7119 66.2051 37.1551 66.2051 40.169C66.2051 43.1829 68.6483 45.6262 71.6622 45.6262Z" fill="#FDF7F4"/>
<path d="M71.6624 47.1423C67.8728 47.1423 64.6895 43.9589 64.6895 40.1693C64.6895 36.3796 67.8728 33.1963 71.6624 33.1963C75.4521 33.1963 78.6354 36.3796 78.6354 40.1693C78.6354 43.9589 75.4521 47.1423 71.6624 47.1423ZM71.6624 36.228C69.5402 36.228 67.7212 38.0471 67.7212 40.1693C67.7212 42.2915 69.5402 44.1105 71.6624 44.1105C73.7846 44.1105 75.6037 42.2915 75.6037 40.1693C75.6037 38.0471 73.7846 36.228 71.6624 36.228Z" fill="black"/>
<path d="M187.475 93.8305C192.582 93.8305 196.722 89.6906 196.722 84.5837C196.722 79.4768 192.582 75.3369 187.475 75.3369C182.368 75.3369 178.229 79.4768 178.229 84.5837C178.229 89.6906 182.368 93.8305 187.475 93.8305Z" fill="#FDF7F4"/>
<path d="M187.476 95.3466C181.564 95.3466 176.713 90.4958 176.713 84.5839C176.713 78.6721 181.564 73.8213 187.476 73.8213C193.387 73.8213 198.238 78.6721 198.238 84.5839C198.238 90.4958 193.387 95.3466 187.476 95.3466ZM187.476 76.853C183.231 76.853 179.745 80.3395 179.745 84.5839C179.745 88.8284 183.231 92.3149 187.476 92.3149C191.72 92.3149 195.206 88.8284 195.206 84.5839C195.206 80.3395 191.72 76.853 187.476 76.853Z" fill="black"/>
</svg>
