<svg width="206" height="90" viewBox="0 0 206 90" fill="none" xmlns="http://www.w3.org/2000/svg">
<path d="M74.4712 48.3809H65.4324C63.408 48.3809 61.8545 49.9344 61.8545 51.9587V72.4843C61.8545 74.5086 63.408 76.0622 65.4324 76.0622C67.4567 76.0622 69.0102 74.5086 69.0102 72.4843V67.4942H72.541L77.8607 74.3203C78.8022 75.4973 79.885 76.0622 81.2503 76.0622C82.945 76.0622 84.6869 74.7911 84.6869 72.7197C84.6869 71.5428 84.169 70.7896 83.6041 70.0834L80.2146 65.9406C83.3687 64.34 85.0164 61.5154 85.0164 57.7492V57.655C85.0164 55.0187 84.169 52.8061 82.5684 51.2055C80.6853 49.3695 77.8607 48.3809 74.4712 48.3809ZM77.7666 57.9846V58.0787C77.7666 59.9618 76.4013 61.0446 74.0945 61.0446H68.9631V54.9717H73.9533C75.6952 54.9717 77.7666 55.4895 77.7666 57.9846Z" fill="black"/>
<path d="M105.389 50.6873C104.635 48.9454 103.223 48.0039 101.434 48.0039H101.105C99.3157 48.0039 97.9034 48.9454 97.1031 50.6873L88.0172 71.1658C87.8289 71.5895 87.6406 72.1074 87.6406 72.6723C87.6406 74.5554 89.1 76.0619 90.9831 76.0619C92.4425 76.0619 93.6665 75.2145 94.2785 73.8492L95.9262 69.9889H106.424L107.978 73.6609C108.637 75.2145 109.861 76.0619 111.367 76.0619C113.298 76.0619 114.804 74.5554 114.804 72.6252C114.804 72.2015 114.71 71.7308 114.427 71.1658L105.389 50.6873ZM103.694 63.5393H98.6096L101.152 57.4664L103.694 63.5393Z" fill="black"/>
<path d="M129.663 48.3809H122.366C120.342 48.3809 118.788 49.9344 118.788 51.9587V72.2489C118.788 74.2733 120.342 75.8268 122.366 75.8268H129.663C138.09 75.8268 144.21 70.0363 144.21 62.1274V62.0332C144.163 54.1243 138.09 48.3809 129.663 48.3809ZM129.663 69.2831H125.944V54.9717H129.663C133.947 54.9717 136.819 57.8434 136.819 62.1274V62.2215C136.772 66.4114 133.9 69.2831 129.663 69.2831Z" fill="black"/>
<path d="M153.258 48.1924C151.233 48.1924 149.68 49.7459 149.68 51.7702V72.5312C149.68 74.5556 151.233 76.1091 153.258 76.1091C155.282 76.1091 156.835 74.5556 156.835 72.5312V51.7702C156.835 49.7459 155.282 48.1924 153.258 48.1924Z" fill="black"/>
<path d="M176.783 47.957C168.592 47.957 162.189 54.1712 162.189 62.1272V62.2214C162.189 70.2716 168.404 76.2974 176.689 76.2974C184.881 76.2974 191.283 70.0833 191.283 62.1272V62.0331C191.283 54.03 185.069 47.957 176.783 47.957ZM169.628 62.0331C169.628 57.7961 172.688 54.642 176.736 54.642C180.832 54.642 183.892 57.8432 183.892 62.1272V62.2214C183.892 66.4583 180.832 69.6125 176.783 69.6125C172.688 69.6125 169.628 66.4113 169.628 62.1272V62.0331Z" fill="black"/>
<path d="M74.4712 17.2334H65.4324C63.408 17.2334 61.8545 18.7869 61.8545 20.8113V41.3369C61.8545 43.3612 63.408 44.9147 65.4324 44.9147C67.4567 44.9147 69.0102 43.3612 69.0102 41.3369V36.3467H72.541L77.9078 43.1729C78.8493 44.3498 79.9321 44.9147 81.2973 44.9147C82.9921 44.9147 84.734 43.6437 84.734 41.5723C84.734 40.3953 84.2161 39.6421 83.6512 38.9359L80.2616 34.7932C83.4158 33.1925 85.0635 30.3679 85.0635 26.6017V26.5076C85.0635 23.8713 84.2161 21.6586 82.6155 20.058C80.6853 18.222 77.9078 17.2334 74.4712 17.2334ZM77.8136 26.8371V26.9313C77.8136 28.8144 76.4484 29.8971 74.1416 29.8971H69.0102V23.8242H74.0004C75.7422 23.8242 77.8136 24.342 77.8136 26.8371Z" fill="black"/>
<path d="M109.697 17.0449C107.673 17.0449 106.12 18.5985 106.12 20.6228V32.9099C106.12 36.5348 104.425 38.465 101.224 38.465C97.175 38.465 96.3276 35.3579 96.3276 32.7216V20.6228C96.3276 18.5985 94.774 17.0449 92.7497 17.0449C90.7254 17.0449 89.1719 18.5985 89.1719 20.6228V32.8628C89.1719 40.6776 93.55 45.15 101.129 45.15C108.85 45.15 113.275 40.6305 113.275 32.6745V20.6228C113.275 18.5985 111.722 17.0449 109.697 17.0449Z" fill="black"/>
<path d="M140.155 28.2964H133.611C131.869 28.2964 130.41 29.7087 130.41 31.4976C130.41 33.2395 131.822 34.6518 133.611 34.6518H136.765V37.2881C135.494 38.0884 133.894 38.5121 132.058 38.5121C127.915 38.5121 124.902 35.3579 124.902 30.9798V30.8856C124.902 26.7899 127.962 23.4945 131.681 23.4945C133.752 23.4945 135.353 24.0124 136.954 25.1422C137.424 25.4718 138.083 25.8954 139.119 25.8954C141.049 25.8954 142.65 24.2948 142.65 22.3647C142.65 20.764 141.614 19.8225 141.143 19.493C138.507 17.6099 135.73 16.8096 131.869 16.8096C123.819 16.8096 117.511 23.0237 117.511 30.9798V31.0739C117.511 39.2183 123.584 45.15 131.916 45.15C135.259 45.15 138.46 44.2555 141.379 42.4666C142.979 41.525 143.733 40.1127 143.733 38.2296V31.8742C143.733 29.8499 142.179 28.2964 140.155 28.2964Z" fill="black"/>
<path d="M33.8189 60.9727H28.1133V77.8442H33.8189V60.9727Z" fill="#4AC2FF"/>
<path d="M33.8184 79.0703H28.1128C27.4426 79.0703 26.8867 78.5145 26.8867 77.8442V60.9727C26.8867 60.3024 27.4426 59.7466 28.1128 59.7466H33.8184C34.4887 59.7466 35.0446 60.3024 35.0446 60.9727V77.8442C35.0446 78.5308 34.4887 79.0703 33.8184 79.0703ZM29.339 76.6181H32.5923V62.1988H29.339V76.6181Z" fill="black"/>
<path d="M25.318 54.9074C23.438 54.7276 21.7704 54.2535 20.3808 53.5015C19.9231 53.2562 17.291 51.7358 15.8523 47.8776L15.836 47.8286L6.53375 17.6495L6.5174 17.6168C6.43566 17.2898 4.5229 9.62247 14.3156 4.39099C22.1301 0.20581 28.228 -0.251947 31.9718 0.0913684C32.7075 0.156762 33.4268 0.2712 34.0971 0.418336C38.4294 1.35019 41.8135 4.66891 43.1377 7.35004C44.3312 9.7696 50.6253 31.0388 51.9822 35.6C52.3909 36.6136 54.4181 42.2047 50.6416 46.1447C47.6989 49.1528 34.7837 55.7902 25.318 54.9074Z" fill="black"/>
<path d="M17.8465 47.1257L8.577 17.0447C8.577 17.0447 6.90946 10.7506 15.3125 6.23844C23.7156 1.72629 30.1895 1.72629 33.639 2.46196C37.0722 3.21399 40.0312 5.84607 41.2247 8.24928C42.4018 10.6525 49.971 36.2704 49.971 36.2704C49.971 36.2704 52.2435 41.3547 49.0882 44.6407C45.9493 47.9104 29.3067 55.9048 21.3778 51.6051C21.3778 51.6215 19.0726 50.4771 17.8465 47.1257Z" fill="black"/>
<path d="M49.8738 36.0579C49.5305 35.1424 48.7294 34.4394 47.7649 34.2923C45.9666 33.998 44.7077 34.325 44.6914 34.325C43.3672 34.6193 42.9258 32.5267 44.2663 32.2651C44.3317 32.2488 45.2309 32.2324 46.5224 32.167C46.833 32.1507 47.1273 32.167 47.3725 32.1834C47.9774 32.2324 48.4679 31.6602 48.288 31.0717C48.2063 30.8265 48.0265 30.6303 47.7812 30.5322C47.4543 30.4014 46.9475 30.2543 46.3262 30.2543C46.1137 30.2379 45.9012 30.2379 45.6723 30.2543C44.4789 30.1725 43.9884 28.6031 45.1001 28.0963C45.4761 27.9982 45.8031 27.9491 46.0973 27.9328C46.7349 27.9001 47.16 27.2952 46.9475 26.6903L46.9311 26.6576C46.8167 26.3307 46.5224 26.1018 46.1791 26.0527C45.3944 25.9546 44.0865 25.922 43.1546 25.8075C42.8931 25.7748 42.6478 25.7912 42.3863 25.7912L42.1574 25.8239C40.9313 26.02 40.5716 24.2544 41.5525 23.8294C42.4517 23.5841 43.6941 23.6495 44.6423 23.7803C45.2963 23.8621 45.8194 23.2408 45.6232 22.6032C45.5415 22.309 45.3126 22.0801 45.0184 21.9983C44.0048 21.7041 43.0075 21.6714 41.7323 21.6223C41.2582 21.5733 40.9149 21.5896 40.7351 21.606C39.3945 21.7695 39.1493 19.6442 40.5062 19.5134C40.5716 19.5134 40.637 19.497 40.686 19.4807C41.4708 19.3663 42.419 19.448 43.2037 19.5788C43.923 19.6932 44.5116 19.0229 44.299 18.32C44.25 18.1565 44.1519 18.0093 44.0375 17.8949C43.923 17.7805 43.7595 17.6987 43.596 17.666C42.6805 17.4535 40.9967 17.241 40.0321 17.3064C39.8359 17.3227 39.6888 17.3391 39.5417 17.3391C38.2992 17.5352 37.9395 15.7206 38.9858 15.3282C39.8523 15.1974 40.7187 15.1974 41.4708 15.2465C42.3536 15.2955 42.9912 14.4291 42.6805 13.5953C42.5988 13.3828 42.468 13.2029 42.2882 13.0721C42.1247 12.9414 41.9122 12.8596 41.6833 12.8269C41.0294 12.7615 40.0648 12.6634 39.1656 12.6471C39.0349 12.6471 38.9204 12.6471 38.8223 12.6471C38.7896 12.6471 38.7569 12.6471 38.7406 12.6471C38.5444 12.6634 38.3973 12.6961 38.2665 12.6961C36.9096 12.8923 36.648 10.767 38.0049 10.6199C38.0866 10.6035 39.1656 10.4728 40.7351 10.7343C41.4054 10.8488 41.9776 10.2112 41.765 9.55724C41.1438 7.56274 39.7542 5.87886 38.8387 5.27397C38.6098 5.12684 38.3482 5.37207 38.479 5.61729C38.6261 5.86252 38.7733 6.15678 38.9204 6.4674C39.3618 7.4483 37.9232 8.18398 37.4164 7.21943C36.4028 5.30667 35.5527 2.33127 32.2012 2.18413C31.907 2.16778 31.7762 2.52745 32.0051 2.70728C32.9206 3.47565 34.3429 4.9797 34.9314 6.35297C35.4873 7.66084 33.5091 8.5273 32.9206 7.23578C31.9887 5.22493 31.2203 2.10239 27.2313 2.26587C26.8063 2.28222 26.6428 2.80537 26.9534 3.06695C28.7027 4.57099 30.828 8.34747 28.6863 8.9687C25.76 9.72073 27.3458 2.23318 21.2315 3.59009C19.9073 4.06419 18.3869 4.66908 16.8828 5.40476C11.4388 8.05319 6.02751 12.4999 9.55876 19.7096C9.80398 20.1837 10.4089 20.3635 10.8666 20.0692C12.2726 19.1864 14.9701 17.4862 14.9701 17.4862C16.1145 16.7505 17.2588 18.5488 16.0981 19.2682C15.7548 19.5461 12.4524 21.3608 11.2426 22.2763C10.0002 23.2245 11.308 25.1045 12.6159 24.2708C13.6132 23.6495 16.3924 21.9656 16.3924 21.9656C17.5368 21.2136 18.6811 23.0283 17.5041 23.7476C17.5041 23.7476 14.1853 25.8239 12.6649 26.8048C11.4061 27.7039 12.7303 29.633 14.0546 28.7993L17.8801 26.3797C19.0245 25.644 20.1688 27.4423 19.0081 28.1617C18.6321 28.4559 15.3461 30.287 13.9728 31.4313C12.8121 32.4122 14.1036 34.2106 15.3951 33.3932C16.6049 32.6411 19.237 30.9409 19.237 30.9409C20.3814 30.2052 21.5258 32.0035 20.3487 32.7229C20.0217 32.9681 16.6376 34.8972 15.3297 35.8944C14.1036 36.8263 15.4278 38.7064 16.7193 37.889C17.7166 37.2514 20.4468 35.5511 20.4468 35.5511C21.5912 34.7991 22.7355 36.6138 21.5585 37.3331C21.5912 37.2514 18.0436 39.5238 16.5559 40.4393C15.3297 41.3058 16.6213 43.1531 17.8801 42.3684L21.8364 39.9325C22.9808 39.1968 24.1252 40.9951 22.9481 41.7145L18.207 44.6899C17.6349 45.0495 17.3733 45.7689 17.6022 46.4064C18.7302 49.8069 21.0517 53.3218 27.9834 52.8314C29.5201 52.6352 30.8443 52.3736 31.956 52.0466C42.9094 48.826 35.5527 39.6873 38.3809 39.1805C38.8223 39.0987 39.182 39.6055 39.3618 40.0142C40.1138 41.6654 40.7187 45.6544 39.231 48.6135C38.9531 49.1693 39.5744 49.7252 40.0811 49.3982C43.4162 47.2566 43.498 42.254 42.3863 39.769C42.1901 39.3276 41.7487 38.2486 42.5498 37.8563C44.7077 36.7936 45.6069 41.976 44.6914 45.8833C44.5279 46.6026 45.4434 47.044 45.9175 46.4718C47.7158 44.2485 47.6177 40.6845 47.0456 39.066C46.8984 38.641 46.8821 37.8889 47.2908 37.6764C49.0074 36.8263 49.8738 40.2268 48.6313 44.0686C48.5332 44.3956 48.8602 44.8697 49.0891 44.6245C51.4923 42.0414 50.9692 39.066 49.8738 36.0579ZM19.4822 15.2628C19.6294 15.1811 21.7873 14.053 24.8281 13.0231C27.1006 12.2547 29.8634 11.519 32.6753 11.3229C33.2475 11.2738 33.7543 11.7152 33.8034 12.2874C33.8524 12.8596 33.411 13.3664 32.8388 13.4155C30.2721 13.6116 27.8035 14.2492 25.7273 14.9522C22.5884 16.0148 20.365 17.2246 20.1198 17.241C18.9591 17.3554 18.4523 15.8023 19.4822 15.2628ZM21.1007 21.9983C19.9727 22.1291 19.4659 20.576 20.4958 20.0202C22.2941 19.072 24.6156 18.2382 26.7899 17.5679C30.1087 16.5543 33.0841 15.9168 33.2802 15.8677C34.6371 15.6225 35.0622 17.5843 33.7216 17.9276C33.6562 17.8949 30.7626 18.5815 27.5256 19.5624C25.2532 20.2818 22.8336 21.1319 21.1007 21.9983ZM22.2614 24.4506C24.4685 23.2899 26.5284 22.4561 28.294 21.8512C31.9397 20.6087 34.3919 20.3635 34.5391 20.3472C35.9287 20.2654 36.1085 22.2599 34.7352 22.4398C34.6044 22.4561 32.2993 22.7013 28.9152 23.8621C27.2477 24.4342 25.3022 25.219 23.226 26.3143C23.1116 26.3797 22.9808 26.4124 22.8663 26.4287C21.7383 26.5432 21.2315 24.9901 22.2614 24.4506ZM23.7164 28.93C25.6619 27.9818 27.7872 27.1644 29.6836 26.5105C32.6917 25.4805 35.1112 24.8593 35.2747 24.8266C35.8306 24.6795 36.4028 25.0228 36.5499 25.595C36.697 26.1508 36.3537 26.723 35.7815 26.8702C35.7488 26.8375 33.2639 27.5241 30.2558 28.5704C28.3103 29.2407 26.1523 30.0581 24.305 30.9245C23.1442 31.039 22.6538 29.4532 23.7164 28.93ZM24.4358 33.4422C26.4957 32.494 28.9479 31.6112 30.9588 30.9245C33.1004 30.2052 34.7189 29.7148 34.8497 29.6821C36.1902 29.3388 36.7624 31.2679 35.4382 31.6929C35.4055 31.6602 33.738 32.1997 31.58 32.9517C29.5038 33.6711 26.9534 34.6029 24.9916 35.4367C23.8309 35.5838 23.3568 33.949 24.4358 33.4422ZM38.2828 35.6329C38.2665 35.6329 37.3019 35.78 35.3401 36.3849C34.6535 36.5974 33.8361 36.8753 32.9042 37.2023C31.204 37.8236 29.0787 38.6737 26.5611 39.8508C26.463 39.8998 26.3485 39.9325 26.2504 39.9488C25.0897 40.0796 24.5993 38.4611 25.6782 37.9543C28.3103 36.7282 30.501 35.8454 32.283 35.1915C36.0268 33.8346 37.8905 33.573 37.9886 33.5566C39.3618 33.4095 39.6561 35.404 38.2828 35.6329ZM41.1765 31.8401C39.1329 32.2978 38.0376 28.2761 40.0158 27.6222C40.8495 27.3933 41.7977 28.1453 42.1083 29.3061C42.4353 30.4668 42.0103 31.6112 41.1765 31.8401Z" fill="#4AC2FF"/>
<path d="M31.9385 52.0627C30.8105 52.3896 29.5026 52.6675 27.9659 52.8474C21.0341 53.3378 18.729 49.8229 17.5846 46.4225C17.3721 45.7685 17.6173 45.0656 18.1895 44.7059L22.9306 41.7305C24.0913 41.0275 22.9469 39.2128 21.8189 39.9485L17.8626 42.3844C16.6037 43.1855 15.3286 41.3218 16.5384 40.4553C18.0261 39.5398 21.5736 37.2674 21.541 37.3491C22.7017 36.6461 21.5573 34.8315 20.4293 35.5672C20.4293 35.5672 17.6991 37.2837 16.7018 37.905C15.394 38.7224 14.0861 36.8587 15.3122 35.9105C16.6201 34.9132 20.0042 33.0005 20.3312 32.7389C21.4919 32.0359 20.3475 30.2212 19.2195 30.9569C19.2195 30.9569 16.571 32.6408 15.3776 33.4092C14.0861 34.2266 12.7946 32.4119 13.9553 31.4474C15.3286 30.303 18.6146 28.4556 18.9906 28.1777C20.1513 27.4747 19.007 25.66 17.8626 26.3957L14.0371 28.8153C12.7128 29.6491 11.3886 27.7199 12.6474 26.8208C14.1678 25.8399 17.4866 23.7636 17.4866 23.7636C18.6473 23.0607 17.5029 21.246 16.3749 21.9817C16.3749 21.9817 13.5956 23.6655 12.5984 24.2868C11.2905 25.1206 9.98266 23.2241 11.2251 22.2923C12.4349 21.3604 15.7209 19.5458 16.0806 19.2842C17.2413 18.5812 16.0969 16.7665 14.9526 17.5022C14.9526 17.5022 12.2551 19.2024 10.8491 20.0853C10.3914 20.3795 9.78648 20.1997 9.54126 19.7256C6.01001 12.516 11.4377 8.06921 16.8653 5.42078C19.105 4.47257 21.9824 7.12101 24.8433 12.9901C21.8025 14.02 19.6609 15.1481 19.4974 15.2298C18.4675 15.7856 18.9743 17.3387 20.1186 17.2079C20.3639 17.1916 22.5872 15.9818 25.7261 14.9192C26.0858 15.7529 26.4455 16.6358 26.8051 17.5676C24.6308 18.2379 22.3093 19.0717 20.511 20.0199C19.4811 20.5757 19.9879 22.1288 21.1159 21.998C22.8488 21.1316 25.2684 20.2651 27.5408 19.5785C27.8024 20.3141 28.0476 21.0662 28.3092 21.8509C26.5435 22.4558 24.4837 23.2895 22.2766 24.4503C21.2467 25.0061 21.7535 26.5592 22.8815 26.4284C23.0123 26.4121 23.1267 26.3794 23.2412 26.314C25.3174 25.2186 27.2629 24.4339 28.9304 23.8617C29.192 24.7118 29.4372 25.5947 29.6988 26.5102C27.8024 27.1641 25.6771 27.9815 23.7316 28.9297C22.669 29.4529 23.1594 31.055 24.3202 30.9242C26.1675 30.0578 28.3255 29.2403 30.271 28.5701C30.4999 29.3875 30.7451 30.1722 30.974 30.9406C28.9631 31.6272 26.5108 32.51 24.451 33.4582C23.372 33.965 23.8461 35.5835 25.0068 35.4527C26.9686 34.6026 29.5026 33.6871 31.5952 32.9678C31.8404 33.7361 32.0693 34.4882 32.2982 35.2075C30.5325 35.8451 28.3255 36.7442 25.6934 37.9704C24.6144 38.4772 25.0885 40.0957 26.2656 39.9649C26.3801 39.9485 26.4782 39.9158 26.5762 39.8668C29.1102 38.6897 31.2192 37.8396 32.9194 37.2183C35.1101 44.3135 35.9766 48.5641 31.9385 52.0627Z" fill="white"/>
<path d="M21.9186 63.4482L17.5536 58.9556L17.3574 36.5483L21.9186 36.7609V63.4482Z" fill="white"/>
<path d="M38.4448 51.8338L42.7444 50.248L42.6463 52.0954C42.6463 52.0954 42.5482 58.0626 42.5482 58.177C42.5482 58.2751 41.5836 60.7437 41.6327 60.8745C41.6817 61.0053 39.0823 62.117 38.9352 62.117C38.7881 62.117 30.0744 62.8526 30.0744 62.8526L26.396 62.2968L25.9873 60.3513L28.0635 59.3868L31.0226 59.1252L38.6736 58.0135L38.4448 57.098L38.7227 51.7684L38.4448 51.8338Z" fill="white"/>
<path d="M24.8912 37.5783L25.774 41.3221L25.9048 47.093C25.9048 47.093 25.774 52.9294 25.774 52.9784C25.774 53.0275 25.9865 57.9974 25.9865 57.9974L26.2154 60.5314L26.6731 62.4278L29.5177 63.0327L38.5747 62.1008C38.5747 62.1008 41.1741 61.2344 41.2068 61.218C41.2395 61.2017 42.4493 59.5014 42.4493 59.5014C42.4493 59.5014 42.7763 50.003 42.7763 49.8559C42.7763 49.7088 43.5446 49.8723 43.5446 49.8723L45.9152 48.6788L46.7489 49.4309C46.7489 49.4309 46.6345 57.556 46.6345 57.7031C46.6345 57.8503 45.9969 61.921 45.9969 61.921C45.9969 61.921 44.7054 63.7357 44.5909 63.7684C44.4928 63.8174 41.779 65.0762 41.779 65.0762L37.2996 65.7956L28.5042 66.8419L25.12 65.7792L22.913 63.4087L21.5888 59.3053L21.458 49.8886L21.8667 39.6545L21.8177 37.4148L21.8831 36.5483L24.8912 37.5783Z" fill="#4AC2FF"/>
<path d="M25.9247 60.8911L25.6631 58.9456L37.5974 57.4416V50.9513L39.5592 50.2319V57.7849C39.5592 58.5696 38.9707 59.2235 38.2023 59.338L25.9247 60.8911Z" fill="black"/>
<path d="M28.9636 64.079C27.9664 64.079 27.0018 63.7194 26.2334 63.0491C25.3343 62.2644 24.8111 61.12 24.8111 59.9266V39.6056C24.8111 38.8208 24.288 38.1179 23.5359 37.9053L19.6777 36.7936L20.2172 34.9136L24.0754 36.0253C25.6612 36.483 26.7729 37.9544 26.7729 39.6056V59.9102C26.7729 60.5478 27.0508 61.1527 27.5249 61.5614C27.9991 61.9701 28.6366 62.1663 29.2579 62.0845L39.7045 60.793C40.7835 60.6459 41.6009 59.714 41.6009 58.6187V49.3328L43.5627 48.3029V58.6187C43.5627 60.6786 42.0259 62.4442 39.9824 62.7385L29.5358 64.03C29.3396 64.0627 29.1434 64.079 28.9636 64.079Z" fill="black"/>
<path d="M28.5239 67.8391C26.5784 67.8391 24.6984 67.1198 23.227 65.7792L18.7803 62.4278C17.1291 61.1853 16.1318 59.1908 16.1318 57.1146V38.0524C16.1318 36.2704 17.5868 34.8154 19.3688 34.8154C19.5813 34.8154 19.7775 34.8318 19.9901 34.8808C20.1535 34.9135 20.317 34.9626 20.4642 35.0116C21.7557 35.4694 22.6058 36.6955 22.6058 38.0688V59.9919C22.6058 61.6594 23.2761 63.1962 24.5022 64.3406C25.8264 65.5504 27.592 66.1062 29.3577 65.8446L40.6871 64.3569C43.5807 63.9319 45.7551 61.4142 45.7551 58.5042V48.7933L47.7169 47.6816V58.5042C47.7169 62.3951 44.8232 65.7465 40.9813 66.3024L29.6519 67.7901C29.2759 67.8228 28.8999 67.8391 28.5239 67.8391ZM19.3688 36.7609C18.6658 36.7609 18.0936 37.3331 18.0936 38.0361V57.1146C18.0936 58.5696 18.7966 59.9756 19.9574 60.8584L20.7911 61.496C20.693 61.0055 20.644 60.4824 20.644 59.9592V38.0524C20.644 37.5129 20.3007 37.0225 19.7939 36.8426C19.7285 36.8263 19.6631 36.8099 19.614 36.7936C19.5323 36.7772 19.4506 36.7609 19.3688 36.7609Z" fill="black"/>
<path d="M56.7493 82.4805H5.01466C3.02198 82.4805 1.40527 83.8951 1.40527 85.6387C1.40527 87.3823 3.02198 88.7969 5.01466 88.7969H56.7493C58.742 88.7969 60.3587 87.3823 60.3587 85.6387C60.3587 83.8951 58.742 82.4805 56.7493 82.4805Z" fill="#4AC2FF"/>
<path d="M56.7424 90H5.01829C2.25541 90 0 88.0399 0 85.6387C0 83.2375 2.25541 81.2773 5.01829 81.2773H56.7424C59.5053 81.2773 61.7607 83.2375 61.7607 85.6387C61.7607 88.0399 59.5053 90 56.7424 90ZM5.01829 83.7439C3.8154 83.7439 2.81926 84.5933 2.81926 85.655C2.81926 86.7168 3.79661 87.5662 5.01829 87.5662H56.7424C57.9453 87.5662 58.9414 86.7168 58.9414 85.655C58.9414 84.5933 57.9641 83.7439 56.7424 83.7439H5.01829Z" fill="black"/>
<path d="M17.3899 40.5371H15.1992V42.5807H17.3899V40.5371Z" fill="black"/>
<path d="M38.9121 55.4488V50.778L46.8801 47.2852L46.6462 52.6111L38.9121 55.4488Z" fill="black"/>
<path d="M31.855 52.0746C27.6002 53.4929 26.7187 47.541 26.7592 44.2749L25.7197 53.3607L31.3665 53.5576L31.855 52.0746Z" fill="black"/>
<path d="M42.5654 76.0864H19.1545C17.4216 76.0864 16.0156 77.4924 16.0156 79.2253C16.0156 80.9582 17.4216 82.3642 19.1545 82.3642H42.549C44.2819 82.3642 45.6879 80.9582 45.6879 79.2253C45.6879 77.4924 44.2983 76.0864 42.5654 76.0864Z" fill="white"/>
<path d="M42.5659 83.5904H19.1551C16.7518 83.5904 14.79 81.6286 14.79 79.2254C14.79 76.8222 16.7518 74.8604 19.1551 74.8604H42.5496C44.9528 74.8604 46.9146 76.8222 46.9146 79.2254C46.9146 81.6286 44.9691 83.5904 42.5659 83.5904ZM19.1551 77.3126C18.1088 77.3126 17.2423 78.1627 17.2423 79.2254C17.2423 80.288 18.0924 81.1381 19.1551 81.1381H42.5496C43.5959 81.1381 44.4623 80.288 44.4623 79.2254C44.4623 78.1627 43.6122 77.3126 42.5496 77.3126H19.1551Z" fill="black"/>
<path d="M197.352 45.9245H196.34C196.07 45.9245 195.844 46.1431 195.844 46.4199C195.844 46.6895 196.063 46.9081 196.34 46.9081H196.828V47.3162C196.631 47.44 196.383 47.5056 196.099 47.5056C195.458 47.5056 194.992 47.0174 194.992 46.3398V46.3252C194.992 45.6913 195.465 45.1812 196.041 45.1812C196.361 45.1812 196.609 45.2614 196.857 45.4363C196.93 45.4873 197.032 45.5528 197.192 45.5528C197.491 45.5528 197.739 45.3051 197.739 45.0064C197.739 44.7586 197.578 44.6129 197.505 44.5619C197.09 44.2704 196.66 44.1538 196.07 44.1538C194.824 44.1466 193.848 45.1084 193.848 46.3398V46.3544C193.848 47.6149 194.788 48.533 196.077 48.533C196.595 48.533 197.09 48.3946 197.542 48.1177C197.79 47.972 197.906 47.7534 197.906 47.4619V46.4855C197.906 46.1722 197.666 45.9245 197.352 45.9245Z" fill="black"/>
<path d="M202.578 44.1977H202.483C202.272 44.1977 202.104 44.2924 201.995 44.4746L201.011 46.0703L200.035 44.4746C199.925 44.2924 199.75 44.1904 199.539 44.1904H199.444C199.131 44.1904 198.891 44.4309 198.891 44.7442V47.9575C198.891 48.2636 199.131 48.4967 199.43 48.4967C199.729 48.4967 199.976 48.2563 199.976 47.9575V46.3254L200.545 47.1997C200.669 47.3819 200.814 47.4693 201.004 47.4693C201.193 47.4693 201.339 47.3819 201.463 47.1924L202.038 46.3035V47.943C202.038 48.249 202.286 48.4967 202.585 48.4967C202.898 48.4967 203.139 48.2563 203.139 47.943V44.7442C203.131 44.4382 202.891 44.1977 202.578 44.1977Z" fill="black"/>
<circle cx="198.571" cy="46.3241" r="6.63075" stroke="black" stroke-width="1.29094"/>
</svg>
