<svg width="691" height="477" viewBox="0 0 691 477" fill="none" xmlns="http://www.w3.org/2000/svg">
<rect width="691" height="477" rx="10" fill="#FFB800"/>
<path d="M555.082 129.786H310.371V374.036H469.202H555.236H640.962V215.82C640.962 168.263 602.486 129.786 555.082 129.786Z" fill="#4AC2FF"/>
<path d="M644.04 377.268H307.138V126.708H554.928C604.024 126.708 644.04 166.724 644.04 215.82V377.268ZM313.294 371.112H637.884V215.82C637.884 170.11 600.638 132.864 554.928 132.864H313.294V371.112Z" fill="black"/>
<path d="M641.268 215.82V374.19H592.326V215.82C592.326 168.263 553.849 129.786 506.292 129.786H555.234C602.791 129.786 641.268 168.263 641.268 215.82Z" fill="black"/>
<path d="M644.346 377.268H589.248V215.82C589.248 170.11 552.002 132.864 506.292 132.864V126.708H555.234C604.331 126.708 644.346 166.724 644.346 215.82V377.268ZM595.404 371.112H638.19V215.82C638.19 170.11 600.945 132.864 555.234 132.864H538.92C572.01 145.946 595.404 178.113 595.404 215.82V371.112Z" fill="black"/>
<path d="M396.25 374.19H224.336V215.82C224.336 168.417 262.813 129.786 310.37 129.786C357.774 129.786 396.404 168.263 396.404 215.82V374.19H396.25Z" fill="#FDF7F4"/>
<path d="M399.328 377.268H221.258V215.82C221.258 166.724 261.274 126.708 310.37 126.708C359.467 126.708 399.482 166.724 399.482 215.82V377.268H399.328ZM227.415 371.112H393.172V215.82C393.172 170.11 355.927 132.864 310.216 132.864C264.506 132.864 227.261 170.11 227.261 215.82V371.112H227.415Z" fill="black"/>
<path d="M372.549 215.82V350.489H247.885V215.82C247.885 181.499 275.896 153.488 310.217 153.488C317.912 153.488 325.454 154.873 332.226 157.49C355.773 166.416 372.549 189.195 372.549 215.82Z" fill="#4AC2FF"/>
<path d="M375.627 353.567H244.806V215.821C244.806 179.806 274.202 150.41 310.216 150.41C318.22 150.41 325.915 151.795 333.302 154.72C358.543 164.262 375.627 188.887 375.627 215.821V353.567ZM251.116 347.411H369.624V215.821C369.624 191.349 354.234 169.033 331.302 160.414C324.53 157.798 317.604 156.566 310.37 156.566C277.742 156.566 251.116 183.192 251.116 215.821V347.411Z" fill="black"/>
<path d="M372.549 215.821V350.489H292.056V215.821C292.056 189.195 308.832 166.417 332.38 157.49C355.774 166.417 372.549 189.195 372.549 215.821Z" fill="black"/>
<path d="M375.627 353.567H288.978V215.82C288.978 188.887 305.908 164.262 331.302 154.72L332.38 154.258L333.457 154.72C358.698 164.262 375.781 188.887 375.781 215.82V353.567H375.627ZM295.134 347.411H369.471V215.82C369.471 191.811 354.542 169.802 332.226 160.876C309.909 169.802 294.98 191.811 294.98 215.82V347.411H295.134Z" fill="black"/>
<path d="M652.811 331.097H396.249V374.191H652.811V331.097Z" fill="#4AC2FF"/>
<path d="M655.89 377.269H393.171V328.019H655.89V377.269ZM399.328 371.112H649.734V334.175H399.328V371.112Z" fill="black"/>
<path d="M224.336 331.097H200.635V374.191H224.336V331.097Z" fill="#FDF7F4"/>
<path d="M227.415 377.269H197.557V328.019H227.415V377.269ZM203.713 371.112H221.258V334.175H203.713V371.112Z" fill="black"/>
<path d="M419.95 331.097H396.249V374.191H419.95V331.097Z" fill="#FDF7F4"/>
<path d="M423.029 377.269H393.171V328.019H423.029V377.269ZM399.328 371.112H416.873V334.175H399.328V371.112Z" fill="black"/>
<path d="M652.813 331.097H629.111V374.191H652.813V331.097Z" fill="black"/>
<path d="M655.892 377.269H626.034V328.019H655.892V377.269ZM632.19 371.112H649.735V334.175H632.19V371.112Z" fill="black"/>
<path d="M454.12 296.622C436.728 296.622 422.569 276.922 422.569 252.451C422.569 227.979 436.728 208.279 454.12 208.279H480.284V296.622H454.12Z" fill="#FDF7F4"/>
<path d="M483.362 299.7H454.119C435.035 299.7 419.49 278.461 419.49 252.451C419.49 226.44 435.035 205.201 454.119 205.201H483.362V299.7ZM454.119 211.357C438.421 211.357 425.647 229.826 425.647 252.451C425.647 275.075 438.421 293.544 454.119 293.544H477.205V211.357H454.119Z" fill="black"/>
<path d="M480.284 296.622C497.709 296.622 511.835 276.846 511.835 252.451C511.835 228.055 497.709 208.279 480.284 208.279C462.859 208.279 448.733 228.055 448.733 252.451C448.733 276.846 462.859 296.622 480.284 296.622Z" fill="#4AC2FF"/>
<path d="M480.284 299.7C461.199 299.7 445.655 278.461 445.655 252.451C445.655 226.44 461.199 205.201 480.284 205.201C499.368 205.201 514.913 226.44 514.913 252.451C514.759 278.461 499.368 299.7 480.284 299.7ZM480.284 211.357C464.585 211.357 451.811 229.826 451.811 252.451C451.811 275.075 464.585 293.544 480.284 293.544C495.982 293.544 508.757 275.075 508.757 252.451C508.757 229.826 495.982 211.357 480.284 211.357Z" fill="black"/>
<path d="M480.284 277.537C489.634 277.537 497.213 266.305 497.213 252.45C497.213 238.595 489.634 227.363 480.284 227.363C470.934 227.363 463.354 238.595 463.354 252.45C463.354 266.305 470.934 277.537 480.284 277.537Z" fill="#4AC2FF"/>
<path d="M480.283 280.615C469.048 280.615 460.275 268.302 460.275 252.45C460.275 236.598 469.048 224.285 480.283 224.285C491.518 224.285 500.291 236.598 500.291 252.45C500.291 268.302 491.518 280.615 480.283 280.615ZM480.283 230.441C472.742 230.441 466.432 240.445 466.432 252.45C466.432 264.455 472.742 274.459 480.283 274.459C487.825 274.459 494.135 264.455 494.135 252.45C494.135 240.445 487.825 230.441 480.283 230.441Z" fill="black"/>
<path d="M387.169 477V374.19H419.182V477" fill="#4AC2FF"/>
<path d="M422.26 477H416.104V377.269H390.248V477H384.091V371.112H422.26V477Z" fill="black"/>
<path d="M419.182 477V374.19H465.046V477" fill="#FDF7F4"/>
<path d="M468.124 477H461.968V377.269H422.26V477H416.104V371.112H468.124V477Z" fill="black"/>
<path d="M396.25 350.489H212.177V374.191H396.25V350.489Z" fill="#4AC2FF"/>
<path d="M399.328 377.269H209.1V347.411H399.328V377.269ZM215.256 371.113H393.172V353.567H215.256V371.113Z" fill="black"/>
<path d="M259.272 350.489H105.519V374.191H259.272V350.489Z" fill="#FDF7F4"/>
<path d="M262.351 377.269H102.442V347.411H262.351V377.269ZM108.598 371.113H256.195V353.567H108.598V371.113Z" fill="black"/>
<path d="M573.859 109.009H480.284V57.9121H573.859L552.159 83.4606L573.859 109.009Z" fill="#FDF7F4"/>
<path d="M580.477 112.087H477.206V54.834H580.477L556.16 83.4606L580.477 112.087ZM483.362 105.931H567.087L548.003 83.4606L567.087 60.9903H483.362V105.931Z" fill="black"/>
<path d="M480.13 257.991C477.821 257.991 475.974 256.144 475.974 253.835V49.7551C475.974 47.4465 477.821 45.5996 480.13 45.5996C482.438 45.5996 484.285 47.4465 484.285 49.7551V253.835C484.285 256.144 482.438 257.991 480.13 257.991Z" fill="black"/>
<path d="M480.13 261.069C476.128 261.069 472.896 257.837 472.896 253.835V49.7551C472.896 45.7535 476.128 42.5215 480.13 42.5215C484.131 42.5215 487.363 45.7535 487.363 49.7551V253.835C487.363 257.837 484.131 261.069 480.13 261.069ZM480.13 48.6778C479.514 48.6778 479.052 49.1395 479.052 49.7551V253.835C479.052 254.451 479.514 254.913 480.13 254.913C480.745 254.913 481.207 254.451 481.207 253.835V49.7551C481.207 49.1395 480.745 48.6778 480.13 48.6778Z" fill="black"/>
<path d="M321.605 310.473H143.381C138.764 310.473 135.07 306.779 135.07 302.162V206.432C135.07 201.815 138.764 198.121 143.381 198.121H321.605C326.222 198.121 329.916 201.815 329.916 206.432V302.162C329.916 306.779 326.222 310.473 321.605 310.473Z" fill="#FDF7F4"/>
<path d="M321.606 313.551H143.382C137.072 313.551 131.993 308.472 131.993 302.162V206.432C131.993 200.122 137.072 195.043 143.382 195.043H321.606C327.916 195.043 332.995 200.122 332.995 206.432V302.162C332.995 308.472 327.916 313.551 321.606 313.551ZM143.382 201.353C140.612 201.353 138.149 203.662 138.149 206.586V302.316C138.149 305.086 140.458 307.549 143.382 307.549H321.606C324.377 307.549 326.839 305.24 326.839 302.316V206.586C326.839 203.816 324.53 201.353 321.606 201.353H143.382Z" fill="black"/>
<path d="M168.623 228.287C168.623 228.287 180.012 239.368 180.012 250.604C180.012 261.839 168.623 277.229 168.623 277.229L190.169 268.765L202.328 257.991L208.023 250.911L192.786 240.138L177.857 230.596L168.623 228.287Z" fill="#4AC2FF"/>
<path d="M291.132 228.287C291.132 228.287 279.743 239.368 279.743 250.604C279.743 261.839 291.132 277.229 291.132 277.229L269.585 268.765L257.426 257.991L251.732 250.911L266.969 240.138L281.898 230.596L291.132 228.287Z" fill="#4AC2FF"/>
<path d="M200.943 258.914L221.412 272.92C227.107 276.767 234.495 276.921 240.343 273.227L261.274 259.684L234.648 241.215L212.024 252.296L200.943 258.914Z" fill="#4AC2FF"/>
<path d="M309.448 293.697C308.832 293.697 308.37 293.543 307.755 293.235L230.032 243.369L154.617 293.235C153.232 294.158 151.231 293.851 150.308 292.311C149.385 290.926 149.692 288.926 151.231 288.002L228.185 236.905C229.262 236.289 230.493 236.289 231.571 236.905L310.987 288.002C312.372 288.926 312.833 290.772 311.91 292.311C311.448 293.235 310.525 293.697 309.448 293.697Z" fill="black"/>
<path d="M151.385 213.666L230.339 264.147L307.908 213.666" fill="#FDF7F4"/>
<path d="M230.34 267.226C229.724 267.226 229.263 267.072 228.647 266.764L149.693 216.283C148.308 215.359 147.846 213.512 148.769 211.973C149.693 210.588 151.54 210.126 153.079 211.05L230.34 260.454L306.216 211.05C307.601 210.126 309.602 210.588 310.525 211.973C311.449 213.358 310.987 215.359 309.602 216.283L232.033 266.764C231.571 267.072 230.956 267.226 230.34 267.226Z" fill="black"/>
<path d="M96.7475 250.142C96.1319 250.142 95.5163 249.988 94.9007 249.526C77.5092 236.444 76.124 216.898 77.9709 202.892C78.5865 198.891 79.3561 194.889 80.5873 190.888C65.8123 194.889 51.3451 195.813 42.2646 190.426C26.4122 181.345 21.3333 165.339 28.413 146.255C29.0286 144.715 30.7216 143.792 32.4145 144.408C33.9536 145.023 34.877 146.716 34.2614 148.409C28.2591 164.569 32.1067 177.498 45.3427 185.039C53.4998 189.81 68.4287 188.117 83.0498 183.346C89.9756 165.647 101.98 149.948 113.369 145.485C119.834 143.023 124.143 145.023 126.605 147.024C131.684 151.333 132.146 157.336 127.683 163.8C121.219 172.727 105.058 182.577 87.8209 188.579C86.128 193.504 84.8967 198.583 84.1272 203.662C82.4342 216.128 83.5116 233.212 98.5944 244.601C99.9796 245.678 100.287 247.525 99.21 248.91C98.5944 249.68 97.671 250.142 96.7475 250.142ZM119.064 150.41C118.141 150.41 116.909 150.564 115.524 151.18C107.675 154.258 97.671 165.955 91.053 180.576C105.059 175.035 117.833 167.032 122.604 160.26C126.298 154.873 123.835 152.873 122.604 151.795C122.142 151.333 121.065 150.41 119.064 150.41Z" fill="black"/>
<path d="M39.0334 135.789C38.4177 135.789 37.8021 135.635 37.3404 135.327C35.9552 134.404 35.4935 132.403 36.417 131.018C43.9584 119.629 55.0397 108.394 69.353 97.1586C70.7381 96.0812 72.585 96.3891 73.6624 97.7742C74.7397 99.1594 74.4319 101.006 73.0467 102.084C59.3491 112.857 48.5756 123.631 41.4959 134.404C41.0342 135.327 40.1107 135.789 39.0334 135.789Z" fill="black"/>
<path d="M246.345 110.548C225.721 110.548 217.41 86.5389 217.41 66.0693C217.41 86.5389 209.099 110.548 188.476 110.548C209.099 110.548 217.41 134.558 217.41 155.027C217.256 134.558 225.567 110.548 246.345 110.548Z" fill="#FDF7F4"/>
<path d="M217.256 158.567C215.41 158.567 213.87 157.028 213.87 155.181C213.87 135.327 205.867 114.088 188.322 114.088C186.475 114.088 184.936 112.549 184.936 110.702C184.936 108.855 186.475 107.316 188.322 107.316C205.867 107.316 213.87 86.0768 213.87 66.2229C213.87 64.376 215.41 62.8369 217.256 62.8369C219.103 62.8369 220.642 64.376 220.642 66.2229C220.642 86.0768 228.646 107.316 246.191 107.316C248.038 107.316 249.577 108.855 249.577 110.702C249.577 112.549 248.038 114.088 246.191 114.088C228.646 114.088 220.642 135.327 220.642 155.181C220.796 157.028 219.257 158.567 217.256 158.567ZM201.404 110.548C208.945 114.857 214.178 123.014 217.256 132.403C220.335 122.861 225.567 114.857 233.109 110.548C225.567 106.239 220.335 98.0815 217.256 88.6932C214.178 98.0815 208.945 106.239 201.404 110.548Z" fill="black"/>
<path d="M189.551 155.027C176.623 155.027 171.39 139.944 171.39 127.17C171.39 139.944 166.158 155.027 153.229 155.027C166.158 155.027 171.39 170.11 171.39 182.884C171.39 170.11 176.623 155.027 189.551 155.027Z" fill="#FDF7F4"/>
<path d="M171.392 186.27C169.545 186.27 168.006 184.731 168.006 182.884C168.006 174.419 164.927 158.413 153.384 158.413C151.538 158.413 149.999 156.874 149.999 155.027C149.999 153.18 151.538 151.641 153.384 151.641C164.927 151.641 168.006 135.635 168.006 127.17C168.006 125.323 169.545 123.784 171.392 123.784C173.238 123.784 174.778 125.323 174.778 127.17C174.778 135.635 177.856 151.641 189.399 151.641C191.246 151.641 192.785 153.18 192.785 155.027C192.785 156.874 191.246 158.413 189.399 158.413C177.856 158.413 174.778 174.419 174.778 182.884C174.778 184.731 173.238 186.27 171.392 186.27ZM163.85 155.027C167.082 157.49 169.699 161.03 171.392 165.185C173.238 161.03 175.701 157.49 178.933 155.027C175.701 152.565 173.085 149.025 171.392 144.869C169.699 149.179 167.082 152.719 163.85 155.027Z" fill="black"/>
</svg>
