<svg width="26" height="21" viewBox="0 0 26 21" fill="none" xmlns="http://www.w3.org/2000/svg">
<path fill-rule="evenodd" clip-rule="evenodd" d="M25.7352 2.40621C24.8156 2.81475 23.8259 3.08989 22.7879 3.21412C23.8476 2.5788 24.6613 1.57329 25.044 0.375187C24.0535 0.963816 22.9538 1.38987 21.7857 1.62082C20.8494 0.623648 19.5146 0 18.0397 0C15.2057 0 12.9079 2.29782 12.9079 5.13175C12.9079 5.53362 12.9538 5.92548 13.0413 6.30151C8.77584 6.08807 4.99477 4.04454 2.46349 0.939639C2.0216 1.69752 1.76898 2.57881 1.76898 3.51928C1.76898 5.29934 2.6736 6.87014 4.05179 7.7906C3.2097 7.76392 2.4193 7.53297 1.72645 7.14861V7.2128C1.72645 9.69989 3.49651 11.7734 5.84269 12.2462C5.41248 12.3629 4.95892 12.4263 4.49118 12.4263C4.16018 12.4263 3.83835 12.3937 3.52486 12.3337C4.17769 14.3722 6.07364 15.8563 8.31894 15.898C6.56306 17.2737 4.35027 18.095 1.94573 18.095C1.53052 18.095 1.12198 18.0708 0.720947 18.0224C2.99209 19.4781 5.68928 20.3286 8.58741 20.3286C18.0263 20.3286 23.1881 12.5088 23.1881 5.72788C23.1881 5.50527 23.1839 5.2835 23.1731 5.06422C24.1769 4.33886 25.0474 3.43507 25.7352 2.40621Z" fill="#FFB800"/>
</svg>
