<svg width="247" height="221" viewBox="0 0 247 221" fill="none" xmlns="http://www.w3.org/2000/svg">
<path d="M187.78 126.346C187.78 177.431 146.397 218.965 95.1602 218.965C75.454 218.965 57.2636 212.75 42.2565 202.291C33.4645 196.227 25.8851 188.648 19.6701 179.856C8.90744 164.697 2.69238 146.204 2.69238 126.346C2.69238 75.2613 44.0755 33.7266 95.3118 33.7266C146.245 33.7266 187.78 75.2613 187.78 126.346Z" fill="#FFB800"/>
<path d="M95.1584 220.936C75.7553 220.936 56.9586 215.024 41.042 203.958C32.0984 197.743 24.3675 190.012 18.0008 181.069C6.63182 165.001 0.568359 146.052 0.568359 126.346C0.568359 74.2001 43.0126 31.7559 95.1584 31.7559C147.304 31.7559 189.748 74.2001 189.748 126.346C189.748 178.492 147.304 220.936 95.1584 220.936ZM95.1584 35.6971C45.1348 35.6971 4.50961 76.3223 4.50961 126.346C4.50961 145.294 10.2699 163.333 21.1841 178.795C27.2476 187.284 34.6754 194.711 43.3158 200.775C58.626 211.386 76.5133 216.995 95.1584 216.995C145.182 216.995 185.807 176.37 185.807 126.346C185.807 76.3223 145.182 35.6971 95.1584 35.6971Z" fill="black"/>
<path d="M162.31 152.419C161.704 153.632 160.946 154.693 160.036 155.602C159.885 155.754 159.733 155.906 159.582 156.057C159.127 156.512 158.672 156.815 158.217 157.118C157.308 157.725 156.398 158.179 155.489 158.483L91.974 183.04L52.8647 198.198L42.102 202.443C33.31 196.379 25.7307 188.8 19.5156 180.008L28.3076 162.272L47.4076 123.466L69.3876 79.0512L72.1162 73.4425C72.2678 73.2909 72.2678 73.1393 72.2678 72.9877C72.4194 72.6845 72.5709 72.3814 72.7225 72.2298C72.8741 71.9266 73.0257 71.6234 73.1773 71.4719C73.3289 71.1687 73.4805 71.0171 73.7836 70.7139C73.9352 70.4107 74.2384 70.2592 74.39 69.956C84.3947 59.7997 111.832 70.8655 135.479 94.513C157.005 116.038 168.071 140.595 162.31 152.419Z" fill="#FDF7F4"/>
<path d="M42.1032 203.807C41.8 203.807 41.4969 203.656 41.1937 203.504C32.2501 197.289 24.5192 189.558 18.1525 180.766C17.8494 180.311 17.8494 179.705 18.0009 179.25L70.7531 72.3817C70.9047 72.0786 71.0563 71.7754 71.2078 71.4722C71.3594 71.169 71.511 70.8659 71.8142 70.5627C71.9658 70.2595 72.269 69.9563 72.4205 69.6532C72.7237 69.35 72.8753 69.0468 73.1785 68.8952C83.9411 58.1326 111.833 68.8952 136.39 93.4523C158.219 115.281 169.588 140.293 163.524 153.026C162.918 154.39 162.008 155.603 160.947 156.664C160.796 156.815 160.492 157.119 160.341 157.27C159.886 157.725 159.28 158.028 158.825 158.483C157.915 159.089 156.854 159.544 155.793 159.999L42.558 203.807C42.558 203.807 42.4064 203.807 42.1032 203.807ZM21.3358 179.705C27.2477 187.739 34.2207 194.712 42.4064 200.624L155.035 157.119C155.945 156.815 156.854 156.361 157.461 155.906C157.915 155.603 158.37 155.3 158.673 154.996C158.825 154.845 158.977 154.693 159.128 154.542C159.886 153.784 160.644 152.723 161.099 151.813C166.556 140.444 155.187 116.342 134.571 95.7261C123.202 84.3571 110.772 75.7166 99.403 71.169C88.6403 66.773 79.9999 66.773 75.6039 71.169C75.4523 71.3206 75.3007 71.4722 75.1491 71.7754C74.9975 71.927 74.8459 72.2301 74.6943 72.3817C74.5428 72.5333 74.3912 72.8365 74.2396 73.1397C74.088 73.2912 73.9364 73.5944 73.7848 73.8976C73.6332 74.2008 73.6332 74.2008 73.4816 74.3524L21.3358 179.705Z" fill="black"/>
<path d="M162.31 152.42C161.704 153.633 160.946 154.694 160.036 155.603C159.885 155.755 159.733 155.906 159.582 156.058C159.127 156.513 158.672 156.816 158.217 157.119C157.308 157.725 156.398 158.18 155.489 158.483L91.974 183.04L52.8647 198.199L42.102 202.444C33.31 196.38 25.7307 188.801 19.5156 180.009L28.3076 162.273C23.9116 171.217 33.6132 188.952 47.7107 186.224C48.7718 186.072 49.6814 185.769 50.7425 185.314C58.1702 182.434 72.4194 176.825 85.4558 171.671C99.8566 166.063 112.59 161.06 112.59 161.06C112.59 161.06 129.871 156.664 120.776 148.933C117.289 145.902 121.837 144.537 128.961 143.931C132.145 143.628 135.934 143.628 139.572 143.628C145.636 143.628 151.548 143.931 154.883 144.083C156.702 144.234 157.763 144.234 157.763 144.234L162.31 152.42Z" fill="#4AC2FF"/>
<path d="M162.462 152.419C161.856 153.632 161.098 154.693 160.188 155.602C160.037 155.754 159.885 155.906 159.734 156.057C159.279 156.512 158.824 156.815 158.369 157.118C157.46 157.725 156.55 158.179 155.641 158.483C147.455 161.211 134.57 157.421 120.776 148.629C113.651 144.082 106.223 138.17 99.0989 131.045C77.7252 109.823 66.6594 85.4178 72.1165 73.4425C72.2681 73.2909 72.2681 73.1393 72.2681 72.9877C72.4197 72.6845 72.5713 72.3814 72.7228 72.2298C72.8744 71.9266 73.026 71.6234 73.1776 71.4719C73.3292 71.1687 73.4808 71.0171 73.7839 70.7139C73.9355 70.4107 74.2387 70.2592 74.3903 69.956C84.395 59.7997 111.832 70.8655 135.48 94.513C157.005 116.038 168.071 140.595 162.462 152.419Z" fill="#FDF7F4"/>
<path d="M149.579 160.908C141.545 160.908 131.085 157.119 119.868 149.994C112.288 145.143 105.012 139.231 98.0392 132.258C76.3623 110.582 64.9933 85.5698 70.7536 72.8365L71.0568 72.3817C71.2084 72.0786 71.3599 71.7754 71.5115 71.4722C71.6631 71.169 71.8147 70.8659 72.1179 70.5627C72.2695 70.2595 72.5726 69.9563 72.7242 69.6532C73.0274 69.35 73.179 69.0468 73.4821 68.8952C84.2448 58.1326 112.137 68.8952 136.694 93.4523C158.522 115.281 169.891 140.293 163.828 153.026C163.221 154.39 162.312 155.603 161.251 156.664C161.099 156.815 160.796 157.119 160.644 157.27C160.19 157.725 159.583 158.028 159.129 158.483C158.219 159.089 157.158 159.544 156.097 159.999C154.126 160.605 152.004 160.908 149.579 160.908ZM85.1543 67.8341C81.0615 67.8341 77.8782 68.8952 75.6044 71.169C75.4528 71.3206 75.3012 71.4722 75.1496 71.7754C74.998 71.927 74.8464 72.2301 74.6948 72.3817C74.5433 72.5333 74.3917 72.8365 74.2401 73.1397C74.0885 73.2912 73.9369 73.5944 73.7853 73.8976C73.6337 74.0492 73.6337 74.2008 73.6337 74.3524C68.4798 85.7213 79.8488 109.824 100.313 130.136C106.983 136.806 114.411 142.87 121.687 147.569C135.178 156.209 147.76 159.847 155.187 157.27C156.097 156.967 156.855 156.512 157.613 156.058C158.067 155.754 158.522 155.451 158.825 155.148C158.977 154.996 159.129 154.845 159.28 154.693C160.038 153.935 160.796 153.026 161.251 151.965C166.708 140.596 155.339 116.493 134.723 95.8777C123.354 84.5087 110.924 75.8682 99.5551 71.3206C93.9464 68.8952 89.0956 67.8341 85.1543 67.8341Z" fill="black"/>
<path d="M153.216 148.781C152.003 149.994 149.881 150.145 148.214 150.145C146.243 150.145 143.969 149.842 141.392 149.084C131.842 146.507 118.503 138.776 104.86 125.134C94.552 114.826 86.6695 103.608 82.5767 93.4519C81.9703 91.7844 81.364 90.117 80.9092 88.7527C79.0902 82.2345 79.8481 78.4448 81.2124 76.929C82.4251 75.7163 84.5473 75.4131 86.2148 75.4131C95.3099 75.4131 112.288 83.144 129.569 100.425C151.245 122.102 158.218 143.779 153.216 148.781Z" fill="#4AC2FF"/>
<path d="M148.214 151.662C146.092 151.662 143.667 151.207 141.09 150.601C129.872 147.418 116.229 138.625 103.951 126.195C93.4915 115.736 85.4574 104.367 81.213 94.059C80.455 92.24 80.0003 90.5725 79.5455 89.2083C77.878 82.9932 78.0296 78.1424 80.3034 76.0202C81.5161 74.8075 83.6383 74.2012 86.3669 74.2012C95.7653 74.2012 113.198 82.0837 130.782 99.6677C151.549 120.435 160.493 143.931 154.429 149.994C152.762 151.359 150.185 151.662 148.214 151.662ZM86.3669 77.0813C84.5479 77.0813 83.1836 77.3845 82.4256 78.1424C81.6677 78.9004 80.6066 82.0837 82.4256 88.4503C82.8804 89.8146 83.3352 91.3305 83.9415 92.9979C87.8828 103.003 95.7653 114.068 105.922 124.225C123.051 141.051 136.845 146.205 141.848 147.721C144.273 148.327 146.395 148.782 148.214 148.782C150.033 148.782 151.398 148.479 152.156 147.721C156.097 143.779 149.882 122.86 128.508 101.638C111.682 84.6606 95.1589 77.0813 86.3669 77.0813Z" fill="black"/>
<path d="M141.543 149.084C131.993 146.507 118.653 138.777 105.01 125.134C94.7024 114.826 86.8199 103.608 82.727 93.4521C82.1207 91.7847 81.5143 90.1172 81.0596 88.7529C90.6095 91.3299 103.949 99.0608 117.592 112.704C131.083 126.195 138.814 139.686 141.543 149.084Z" fill="black"/>
<path d="M141.544 150.601C141.392 150.601 141.241 150.601 141.089 150.601C129.872 147.417 116.229 138.625 103.951 126.195C93.4911 115.736 85.457 104.367 81.2126 94.0589C80.4546 92.2399 79.9999 90.5724 79.5451 89.2081C79.3935 88.7534 79.5451 88.147 79.9999 87.6923C80.4547 87.2375 80.9094 87.0859 81.5158 87.2375C92.7332 90.4208 106.376 99.2129 118.654 111.643C130.63 123.618 139.725 137.564 143.06 148.782C143.212 149.236 143.06 149.843 142.605 150.298C142.302 150.449 141.847 150.601 141.544 150.601ZM83.3348 91.0272C83.4864 91.6335 83.7896 92.2399 84.0927 92.8462C88.034 102.851 95.9165 113.917 106.073 124.073C120.625 138.625 132.752 144.537 139.119 146.811C135.481 136.503 127.143 124.376 116.381 113.765C101.98 99.2129 89.853 93.301 83.3348 91.0272Z" fill="black"/>
<path d="M149.579 160.908C141.545 160.908 131.085 157.119 119.868 149.994C112.288 145.143 105.012 139.231 98.0392 132.258C76.3623 110.582 64.9933 85.5698 70.7536 72.8365L71.0568 72.3817C71.2084 72.0786 71.3599 71.7754 71.5115 71.4722C71.6631 71.169 71.8147 70.8659 72.1179 70.5627C72.2695 70.2595 72.5726 69.9563 72.7242 69.6532C73.0274 69.35 73.179 69.0468 73.4821 68.8952C84.2448 58.1326 112.137 68.8952 136.694 93.4523C158.522 115.281 169.891 140.293 163.828 153.026C163.221 154.39 162.312 155.603 161.251 156.664C161.099 156.815 160.796 157.119 160.644 157.27C160.19 157.725 159.583 158.028 159.129 158.483C158.219 159.089 157.158 159.544 156.097 159.999C154.126 160.605 152.004 160.908 149.579 160.908ZM85.1543 67.8341C81.0615 67.8341 77.8782 68.8952 75.6044 71.169C75.4528 71.3206 75.3012 71.4722 75.1496 71.7754C74.998 71.927 74.8464 72.2301 74.6948 72.3817C74.5433 72.5333 74.3917 72.8365 74.2401 73.1397C74.0885 73.2912 73.9369 73.5944 73.7853 73.8976C73.6337 74.0492 73.6337 74.2008 73.6337 74.3524C68.4798 85.7213 79.8488 109.824 100.313 130.136C106.983 136.806 114.411 142.87 121.687 147.569C135.178 156.209 147.76 159.847 155.187 157.27C156.097 156.967 156.855 156.512 157.613 156.058C158.067 155.754 158.522 155.451 158.825 155.148C158.977 154.996 159.129 154.845 159.28 154.693C160.038 153.935 160.796 153.026 161.251 151.965C166.708 140.596 155.339 116.493 134.723 95.8777C123.354 84.5087 110.924 75.8682 99.5551 71.3206C93.9464 68.8952 89.0956 67.8341 85.1543 67.8341Z" fill="black"/>
<path d="M42.1032 203.807C41.8 203.807 41.4969 203.656 41.1937 203.504C32.2501 197.289 24.5192 189.558 18.1525 180.766C17.8494 180.311 17.8494 179.705 18.0009 179.25L70.7531 72.3817C70.9047 72.0786 71.0563 71.7754 71.2078 71.4722C71.3594 71.169 71.511 70.8659 71.8142 70.5627C71.9658 70.2595 72.269 69.9563 72.4205 69.6532C72.7237 69.35 72.8753 69.0468 73.1785 68.8952C83.9411 58.1326 111.833 68.8952 136.39 93.4523C158.219 115.281 169.588 140.293 163.524 153.026C162.918 154.39 162.008 155.603 160.947 156.664C160.796 156.815 160.492 157.119 160.341 157.27C159.886 157.725 159.28 158.028 158.825 158.483C157.915 159.089 156.854 159.544 155.793 159.999L42.558 203.807C42.558 203.807 42.4064 203.807 42.1032 203.807ZM21.3358 179.705C27.2477 187.739 34.2207 194.712 42.4064 200.624L155.035 157.119C155.945 156.815 156.854 156.361 157.461 155.906C157.915 155.603 158.37 155.3 158.673 154.996C158.825 154.845 158.977 154.693 159.128 154.542C159.886 153.784 160.644 152.723 161.099 151.813C166.556 140.444 155.187 116.342 134.571 95.7261C123.202 84.3571 110.772 75.7166 99.403 71.169C88.6403 66.773 79.9999 66.773 75.6039 71.169C75.4523 71.3206 75.3007 71.4722 75.1491 71.7754C74.9975 71.927 74.8459 72.2301 74.6943 72.3817C74.5428 72.5333 74.3912 72.8365 74.2396 73.1397C74.088 73.2912 73.9364 73.5944 73.7848 73.8976C73.6332 74.2008 73.6332 74.2008 73.4816 74.3524L21.3358 179.705Z" fill="black"/>
<path d="M92.1268 184.555C91.6721 184.555 91.0657 184.252 90.9141 183.797C59.5357 134.835 67.7214 79.3539 67.8729 78.8992C68.0245 78.1412 68.7825 77.5349 69.5404 77.6865C70.2983 77.8381 70.9047 78.596 70.7531 79.3539C70.6015 79.9603 62.719 134.228 93.1879 182.281C93.6427 183.039 93.4911 183.949 92.7332 184.403C92.5816 184.403 92.2784 184.555 92.1268 184.555Z" fill="black"/>
<path d="M53.0169 199.563C52.5621 199.563 51.9558 199.259 51.6526 198.805C38.313 176.067 40.132 134.683 46.0439 122.708C46.3471 121.95 47.2566 121.647 48.0145 121.95C48.7725 122.253 49.0756 123.163 48.7725 123.921C43.6185 134.229 41.1931 174.854 54.2296 197.137C54.6843 197.895 54.3812 198.805 53.6232 199.259C53.4716 199.563 53.32 199.563 53.0169 199.563Z" fill="black"/>
<path d="M153.822 126.195C142.453 126.195 135.632 123.011 135.177 122.86C134.267 122.405 133.813 121.192 134.267 120.283C134.722 119.373 135.935 118.918 136.844 119.373C136.996 119.373 152.458 126.649 176.408 118.312C185.2 115.28 192.78 108.914 198.388 101.941C191.415 95.1193 188.687 85.2662 190.051 78.2932C191.264 72.6845 194.902 69.0464 200.056 68.1369C206.271 67.0758 210.667 69.6528 212.031 74.8067C213.547 81.1733 210.364 91.4812 203.542 101.183C203.997 101.486 204.452 101.789 204.907 102.092C215.215 108.459 228.857 105.882 243.561 94.8161C244.471 94.2098 245.683 94.3614 246.29 95.1193C246.896 96.0288 246.745 97.2415 245.987 97.8479C224.31 114.371 209.757 109.672 202.936 105.427C202.33 105.124 201.875 104.669 201.269 104.215C195.205 111.794 187.019 118.464 177.621 121.799C168.374 125.133 160.34 126.195 153.822 126.195ZM202.936 71.775C202.33 71.775 201.723 71.775 200.965 71.9266C196.418 72.6845 194.75 76.171 194.144 78.8995C192.931 84.6598 195.205 92.6939 200.965 98.4542C206.877 89.9654 209.909 81.0218 208.545 75.5646C208.242 74.6551 207.484 71.775 202.936 71.775Z" fill="black"/>
<path d="M154.732 91.4816C156.992 91.4816 158.824 89.6492 158.824 87.3887C158.824 85.1283 156.992 83.2959 154.732 83.2959C152.471 83.2959 150.639 85.1283 150.639 87.3887C150.639 89.6492 152.471 91.4816 154.732 91.4816Z" fill="black"/>
<path d="M194.599 32.9689C196.859 32.9689 198.692 31.1365 198.692 28.876C198.692 26.6156 196.859 24.7832 194.599 24.7832C192.338 24.7832 190.506 26.6156 190.506 28.876C190.506 31.1365 192.338 32.9689 194.599 32.9689Z" fill="black"/>
<path d="M183.534 60.7089C187.05 60.7089 189.9 57.8584 189.9 54.3422C189.9 50.826 187.05 47.9756 183.534 47.9756C180.017 47.9756 177.167 50.826 177.167 54.3422C177.167 57.8584 180.017 60.7089 183.534 60.7089Z" fill="black"/>
<path d="M145.94 68.4401C140.18 69.3497 134.874 72.0782 130.933 76.3227C129.265 73.2909 127.749 70.2592 126.082 67.0759C130.023 62.8314 135.329 60.1029 141.089 59.1934C142.757 62.3767 144.272 65.4084 145.94 68.4401Z" fill="#FDF7F4"/>
<path d="M130.932 77.8383H130.781C130.326 77.8383 129.871 77.5352 129.719 77.0804L124.869 67.8336C124.565 67.2273 124.717 66.6209 125.172 66.0146C129.416 61.6186 135.025 58.5868 141.088 57.6773C141.695 57.5257 142.301 57.8289 142.604 58.4352L147.455 67.682C147.607 68.1368 147.758 68.5915 147.455 69.0463C147.303 69.5011 146.849 69.8042 146.394 69.8042C141.088 70.5622 135.934 73.2907 132.296 77.232C131.69 77.6867 131.235 77.8383 130.932 77.8383ZM127.9 67.3788L131.235 73.7455C134.722 70.5622 138.966 68.44 143.514 67.3788L140.179 61.0122C135.631 61.9217 131.387 64.1955 127.9 67.3788Z" fill="black"/>
<path d="M145.94 68.4401C140.18 69.3497 134.874 72.0782 130.933 76.3227C129.265 73.2909 127.749 70.2592 126.082 67.0759C130.023 62.8314 135.329 60.1029 141.089 59.1934C142.757 62.3767 144.272 65.4084 145.94 68.4401Z" fill="#FDF7F4"/>
<path d="M130.932 77.8383H130.781C130.326 77.8383 129.871 77.5352 129.719 77.0804L124.869 67.8336C124.565 67.2273 124.717 66.6209 125.172 66.0146C129.416 61.6186 135.025 58.5868 141.088 57.6773C141.695 57.5257 142.301 57.8289 142.604 58.4352L147.455 67.682C147.607 68.1368 147.758 68.5915 147.455 69.0463C147.303 69.5011 146.849 69.8042 146.394 69.8042C141.088 70.5622 135.934 73.2907 132.296 77.232C131.69 77.6867 131.235 77.8383 130.932 77.8383ZM127.9 67.3788L131.235 73.7455C134.722 70.5622 138.966 68.44 143.514 67.3788L140.179 61.0122C135.631 61.9217 131.387 64.1955 127.9 67.3788Z" fill="black"/>
<path d="M230.676 63.5878C227.492 58.737 222.945 54.9473 217.336 52.9767C219.458 50.2481 221.58 47.5196 223.854 44.791C229.311 46.7616 234.01 50.3997 237.194 55.4021C235.072 58.1306 232.949 60.8592 230.676 63.5878Z" fill="#FDF7F4"/>
<path d="M230.677 65.1046C230.071 65.1046 229.616 64.8014 229.465 64.3467C226.584 59.7991 222.037 56.3126 217.034 54.4935C216.58 54.3419 216.276 53.8872 216.125 53.4324C215.973 52.9777 216.125 52.5229 216.428 52.0681L222.946 43.8825C223.401 43.4277 224.007 43.1245 224.614 43.4277C230.374 45.3983 235.376 49.4912 238.711 54.6451C239.014 55.2515 239.014 55.8578 238.56 56.4641L232.041 64.6498C231.587 64.953 231.132 65.1046 230.677 65.1046ZM219.915 52.3713C224.159 54.3419 227.949 57.2221 230.829 61.0117L235.376 55.403C232.648 51.6134 228.858 48.5816 224.462 46.7626L219.915 52.3713Z" fill="black"/>
<path d="M230.676 63.5878C227.492 58.737 222.945 54.9473 217.336 52.9767C219.458 50.2481 221.58 47.5196 223.854 44.791C229.311 46.7616 234.01 50.3997 237.194 55.4021C235.072 58.1306 232.949 60.8592 230.676 63.5878Z" fill="#FDF7F4"/>
<path d="M230.677 65.1046C230.071 65.1046 229.616 64.8014 229.465 64.3467C226.584 59.7991 222.037 56.3126 217.034 54.4935C216.58 54.3419 216.276 53.8872 216.125 53.4324C215.973 52.9777 216.125 52.5229 216.428 52.0681L222.946 43.8825C223.401 43.4277 224.007 43.1245 224.614 43.4277C230.374 45.3983 235.376 49.4912 238.711 54.6451C239.014 55.2515 239.014 55.8578 238.56 56.4641L232.041 64.6498C231.587 64.953 231.132 65.1046 230.677 65.1046ZM219.915 52.3713C224.159 54.3419 227.949 57.2221 230.829 61.0117L235.376 55.403C232.648 51.6134 228.858 48.5816 224.462 46.7626L219.915 52.3713Z" fill="black"/>
<path d="M147.152 21.5991C152.913 21.2959 158.521 19.0221 162.917 15.2324C164.282 18.4157 165.494 21.5991 166.859 24.7824C162.463 28.572 157.005 30.8458 151.094 31.149C149.729 27.9657 148.365 24.7824 147.152 21.5991Z" fill="#4AC2FF"/>
<path d="M150.943 32.666C150.337 32.666 149.731 32.3628 149.579 31.7565L145.638 22.2065C145.486 21.7518 145.486 21.297 145.789 20.8422C146.092 20.3875 146.547 20.2359 147.002 20.0843C152.459 19.7811 157.613 17.6589 161.857 14.0208C162.161 13.7177 162.767 13.5661 163.222 13.7177C163.676 13.8693 164.131 14.1724 164.283 14.6272L168.224 24.1771C168.527 24.7835 168.376 25.5414 167.769 25.8446C163.07 29.9374 157.158 32.3628 150.943 32.666C151.095 32.666 151.095 32.666 150.943 32.666ZM149.276 22.8129L152.004 29.4827C156.703 29.0279 161.251 27.2089 164.889 24.1771L162.161 17.5073C158.371 20.3875 153.975 22.2065 149.276 22.8129Z" fill="black"/>
<path d="M108.498 61.3153C108.195 61.3153 107.891 61.1637 107.437 61.0121C106.527 60.4058 106.224 59.1931 106.679 58.2836C112.591 48.1273 113.652 34.9392 109.559 22.9639C109.256 21.9028 109.71 20.8417 110.771 20.5385C111.833 20.2353 112.894 20.6901 113.197 21.7512C117.593 34.7876 116.38 49.1884 109.862 60.2542C109.862 60.8605 109.104 61.3153 108.498 61.3153Z" fill="black"/>
<path d="M106.376 13.7172C105.77 13.7172 105.163 13.414 104.709 12.8077C102.283 9.32119 99.5546 6.44104 96.3713 4.16724C95.4618 3.5609 95.3102 2.34821 95.9165 1.43869C96.5229 0.529165 97.7356 0.377579 98.6451 0.983925C102.132 3.5609 105.315 6.74422 107.892 10.6855C108.498 11.595 108.195 12.8077 107.437 13.414C107.134 13.7172 106.831 13.7172 106.376 13.7172Z" fill="black"/>
</svg>
