<svg width="139" height="202" viewBox="0 0 139 202" fill="none" xmlns="http://www.w3.org/2000/svg">
<path d="M75.586 136.274H62.834V173.982H75.586V136.274Z" fill="#4AC2FF"/>
<path d="M75.5891 176.722H62.8371C61.339 176.722 60.0967 175.48 60.0967 173.982V136.274C60.0967 134.776 61.339 133.534 62.8371 133.534H75.5891C77.0871 133.534 78.3295 134.776 78.3295 136.274V173.982C78.3295 175.517 77.0871 176.722 75.5891 176.722ZM65.5775 171.242H72.8487V139.014H65.5775V171.242Z" fill="black"/>
<path d="M56.5902 122.718C52.3883 122.316 48.6613 121.257 45.5555 119.576C44.5324 119.028 38.6497 115.63 35.4343 107.007L35.3978 106.897L14.6073 39.4467L14.5708 39.3736C14.3881 38.6428 10.1131 21.5062 31.9997 9.81387C49.4652 0.459985 63.0941 -0.563102 71.4614 0.204208C73.1056 0.350363 74.7133 0.606133 76.2114 0.934981C85.8942 3.01768 93.4577 10.435 96.4173 16.4274C99.0846 21.8351 113.152 69.3718 116.185 79.5661C117.098 81.8315 121.629 94.3277 113.188 103.133C106.612 109.857 77.7461 124.691 56.5902 122.718Z" fill="black"/>
<path d="M39.8889 105.325L19.1715 38.0942C19.1715 38.0942 15.4445 24.0268 34.2254 13.9422C53.0062 3.85752 67.4755 3.85752 75.1852 5.50175C82.8583 7.18253 89.4718 13.0652 92.1391 18.4364C94.7699 23.8076 111.687 81.0636 111.687 81.0636C111.687 81.0636 116.766 92.4272 109.714 99.7714C102.699 107.079 65.5024 124.947 47.7812 115.337C47.7812 115.373 42.6293 112.816 39.8889 105.325Z" fill="black"/>
<path d="M111.469 80.5896C110.702 78.5434 108.911 76.9723 106.756 76.6434C102.736 75.9857 99.9229 76.7165 99.8863 76.7165C96.9267 77.3742 95.9401 72.6973 98.9363 72.1126C99.0825 72.0761 101.092 72.0396 103.979 71.8934C104.673 71.8569 105.331 71.8934 105.879 71.9299C107.231 72.0396 108.327 70.7607 107.925 69.4453C107.742 68.8972 107.34 68.4588 106.792 68.2395C106.061 67.9472 104.929 67.6184 103.54 67.6184C103.065 67.5818 102.59 67.5818 102.079 67.6184C99.4113 67.4357 98.3152 63.928 100.8 62.7953C101.64 62.5761 102.371 62.4664 103.029 62.4299C104.454 62.3568 105.404 61.0049 104.929 59.653L104.892 59.5799C104.636 58.8491 103.979 58.3376 103.211 58.228C101.457 58.0087 98.5344 57.9357 96.4517 57.6799C95.8671 57.6068 95.319 57.6433 94.7344 57.6433L94.2228 57.7164C91.4824 58.1549 90.6786 54.2087 92.8709 53.2587C94.8805 52.7106 97.6575 52.8568 99.7767 53.1491C101.238 53.3318 102.407 51.9433 101.969 50.5183C101.786 49.8606 101.275 49.3491 100.617 49.1664C98.3517 48.5087 96.1228 48.4356 93.2728 48.326C92.2132 48.2164 91.4459 48.2529 91.044 48.2895C88.0478 48.6548 87.4997 43.9048 90.5324 43.6125C90.6786 43.6125 90.8247 43.576 90.9344 43.5394C92.6882 43.2837 94.8074 43.4664 96.5613 43.7587C98.169 44.0144 99.4844 42.5163 99.0094 40.9452C98.8998 40.5798 98.6805 40.251 98.4248 39.9952C98.169 39.7394 97.8036 39.5567 97.4382 39.4836C95.3921 39.0086 91.6286 38.5336 89.4728 38.6798C89.0343 38.7163 88.7055 38.7529 88.3767 38.7529C85.5997 39.1913 84.7959 35.1356 87.1343 34.2586C89.0709 33.9663 91.0074 33.9663 92.6882 34.0759C94.6613 34.1856 96.0863 32.249 95.3921 30.3855C95.2094 29.9105 94.9171 29.5086 94.5151 29.2163C94.1497 28.924 93.6747 28.7413 93.1632 28.6682C91.7017 28.5221 89.5459 28.3028 87.5363 28.2663C87.2439 28.2663 86.9882 28.2663 86.7689 28.2663C86.6959 28.2663 86.6228 28.2663 86.5863 28.2663C86.1478 28.3028 85.8189 28.3759 85.5266 28.3759C82.4939 28.8144 81.9093 24.0643 84.942 23.7355C85.1247 23.699 87.5363 23.4067 91.044 23.9913C92.5421 24.247 93.8209 22.822 93.3459 21.3605C91.9574 16.9028 88.8517 13.1393 86.8055 11.7874C86.2939 11.4585 85.7093 12.0066 86.0016 12.5547C86.3305 13.1028 86.6593 13.7605 86.9882 14.4547C87.9747 16.647 84.7593 18.2912 83.6266 16.1355C81.3612 11.8605 79.4612 5.21042 71.9708 4.88158C71.3131 4.84504 71.0208 5.64889 71.5323 6.05081C73.5785 7.76813 76.7574 11.1297 78.0728 14.1989C79.3151 17.122 74.8939 19.0586 73.5785 16.172C71.4958 11.6778 69.7785 4.69888 60.8631 5.06427C59.9131 5.10081 59.5477 6.27005 60.2419 6.85466C64.1516 10.2162 68.9016 18.6566 64.115 20.0451C57.5746 21.7259 61.1188 4.99119 47.4534 8.02389C44.4938 9.08351 41.0957 10.4354 37.7341 12.0797C25.5668 17.9989 13.4725 27.9374 21.3648 44.051C21.9129 45.1106 23.2648 45.5125 24.2879 44.8548C27.4302 42.8817 33.4591 39.0817 33.4591 39.0817C36.0168 37.4375 38.5745 41.4567 35.9803 43.0644C35.213 43.6856 27.8322 47.7414 25.1283 49.7875C22.3514 51.9068 25.2745 56.1087 28.1975 54.2452C30.4264 52.8568 36.638 49.0933 36.638 49.0933C39.1957 47.4125 41.7534 51.4683 39.1226 53.076C39.1226 53.076 31.7052 57.7164 28.3072 59.9087C25.4937 61.9184 28.4533 66.2299 31.4129 64.3664L39.963 58.9587C42.5207 57.3145 45.0784 61.3337 42.4841 62.9414C41.6438 63.5991 34.2995 67.6915 31.2302 70.2492C28.636 72.4415 31.5226 76.4607 34.4091 74.6338C37.113 72.953 42.9957 69.153 42.9957 69.153C45.5534 67.5088 48.1111 71.528 45.4803 73.1357C44.7495 73.6838 37.186 77.9954 34.263 80.2242C31.5226 82.3069 34.4822 86.5089 37.3687 84.6819C39.5976 83.2569 45.6995 79.4569 45.6995 79.4569C48.2572 77.7761 50.815 81.8319 48.1842 83.4396C48.2572 83.2569 40.3284 88.3358 37.0034 90.382C34.263 92.3185 37.1495 96.4474 39.963 94.6935L48.8053 89.2493C51.363 87.605 53.9207 91.6243 51.29 93.232L40.6938 99.882C39.4149 100.686 38.8303 102.294 39.3418 103.719C41.863 111.319 47.0515 119.174 62.5438 118.078C65.9785 117.64 68.9381 117.055 71.4227 116.324C95.9036 109.126 79.4612 88.7012 85.7824 87.5685C86.769 87.3858 87.5728 88.5185 87.9747 89.4319C89.6555 93.1223 91.0074 102.038 87.6824 108.651C87.0613 109.894 88.4497 111.136 89.5824 110.405C97.0363 105.619 97.219 94.4377 94.7344 88.8839C94.2959 87.8973 93.3094 85.4858 95.0998 84.6088C99.9229 82.2338 101.932 93.8166 99.8863 102.549C99.5209 104.157 101.567 105.144 102.627 103.865C106.646 98.8954 106.427 90.93 105.148 87.3127C104.819 86.3627 104.782 84.6819 105.696 84.2069C109.533 82.3069 111.469 89.9069 108.692 98.4935C108.473 99.2243 109.204 100.284 109.715 99.7358C115.086 93.9627 113.917 87.3127 111.469 80.5896ZM43.5438 34.1125C43.8726 33.9298 48.6957 31.4086 55.4919 29.1067C60.5708 27.3894 66.7458 25.7451 73.0304 25.3067C74.3093 25.1971 75.442 26.1836 75.5516 27.4624C75.6612 28.7413 74.6747 29.874 73.3958 29.9836C67.6593 30.4221 62.1419 31.8471 57.5015 33.4182C50.4861 35.7932 45.5168 38.4971 44.9688 38.5336C42.3745 38.7894 41.2418 35.3183 43.5438 34.1125ZM47.1611 49.1664C44.6399 49.4587 43.5072 45.9875 45.8092 44.7452C49.8284 42.626 55.0169 40.7625 59.8765 39.2644C67.2939 36.999 73.9439 35.574 74.3824 35.4644C77.4151 34.9163 78.3651 39.301 75.3689 40.0683C75.2227 39.9952 68.7554 41.5298 61.5208 43.7221C56.4419 45.3298 51.0342 47.2298 47.1611 49.1664ZM49.7553 54.6472C54.688 52.0529 59.2919 50.1895 63.2381 48.8375C71.3862 46.0606 76.867 45.5125 77.1958 45.476C80.3016 45.2933 80.7035 49.751 77.6343 50.1529C77.342 50.1895 72.19 50.7375 64.6266 53.3318C60.8996 54.6106 56.5515 56.3645 51.9111 58.8126C51.6553 58.9587 51.363 59.0318 51.1073 59.0683C48.5861 59.3241 47.4534 55.8529 49.7553 54.6472ZM53.0073 64.6588C57.3554 62.5395 62.1054 60.7126 66.3439 59.251C73.067 56.9491 78.4747 55.5606 78.8401 55.4876C80.0824 55.1587 81.3612 55.926 81.6901 57.2049C82.0189 58.4472 81.2516 59.726 79.9728 60.0549C79.8997 59.9818 74.3458 61.5164 67.6227 63.8549C63.2746 65.353 58.4515 67.1799 54.3227 69.1165C51.7284 69.3722 50.6323 65.828 53.0073 64.6588ZM54.615 74.7434C59.2188 72.6242 64.6996 70.6511 69.1939 69.1165C73.9804 67.5088 77.5978 66.4126 77.8901 66.3395C80.8862 65.5722 82.1651 69.8838 79.2055 70.8338C79.1324 70.7607 75.4054 71.9665 70.5823 73.6473C65.9419 75.255 60.2419 77.3377 55.8573 79.2011C53.263 79.53 52.2034 75.8761 54.615 74.7434ZM85.5632 79.6396C85.5266 79.6396 83.3709 79.9684 78.9862 81.3204C77.4516 81.7954 75.6247 82.4165 73.542 83.1473C69.742 84.5358 64.9919 86.4358 59.365 89.0666C59.1457 89.1762 58.89 89.2493 58.6707 89.2858C56.0765 89.5781 54.9803 85.9608 57.3919 84.8281C63.2746 82.0877 68.1708 80.1146 72.1535 78.6531C80.5208 75.6203 84.6863 75.0357 84.9055 74.9992C87.9747 74.6703 88.6324 79.128 85.5632 79.6396ZM92.0305 71.1626C87.4632 72.1857 85.0151 63.1972 89.4363 61.7357C91.2997 61.2241 93.419 62.9049 94.1132 65.4991C94.844 68.0934 93.894 70.6511 92.0305 71.1626Z" fill="#4ABBFF"/>
<path d="M71.3834 116.36C68.8622 117.091 65.9391 117.712 62.5045 118.114C47.0121 119.21 41.8602 111.355 39.3025 103.755C38.8275 102.293 39.3755 100.722 40.6544 99.9181L51.2506 93.2681C53.8448 91.6969 51.2871 87.6411 48.766 89.2854L39.9236 94.7296C37.1101 96.52 34.2601 92.3546 36.964 90.4181C40.289 88.3719 48.2179 83.293 48.1448 83.4757C50.739 81.9046 48.1813 77.8488 45.6602 79.493C45.6602 79.493 39.5582 83.3296 37.3294 84.718C34.4063 86.545 31.4832 82.3796 34.2236 80.2603C37.1467 78.0315 44.7102 73.7565 45.4409 73.1718C48.0352 71.6007 45.4775 67.5449 42.9563 69.1891C42.9563 69.1891 37.0371 72.9526 34.3697 74.6699C31.4832 76.4969 28.5966 72.4411 31.1909 70.2853C34.2601 67.7276 41.6044 63.5987 42.4448 62.9776C45.039 61.4064 42.4813 57.3506 39.9236 58.9948L31.3736 64.4026C28.414 66.266 25.4543 61.9545 28.2678 59.9449C31.6659 57.7525 39.0832 53.1121 39.0832 53.1121C41.6775 51.541 39.1198 47.4852 36.5986 49.1294C36.5986 49.1294 30.387 52.8929 28.1582 54.2814C25.2351 56.1448 22.312 51.9064 25.0889 49.8237C27.7928 47.741 35.1371 43.6852 35.9409 43.1005C38.5352 41.5294 35.9774 37.4736 33.4197 39.1178C33.4197 39.1178 27.3909 42.9179 24.2486 44.8909C23.2255 45.5486 21.8735 45.1467 21.3255 44.0871C13.4331 27.9736 25.5639 18.0351 37.6948 12.1158C42.7005 9.99656 49.1313 15.9158 55.5256 29.0332C48.7294 31.3351 43.9429 33.8563 43.5775 34.039C41.2755 35.2813 42.4082 38.7525 44.9659 38.4601C45.514 38.4236 50.4833 35.7198 57.4987 33.3447C58.3025 35.2082 59.1064 37.1813 59.9102 39.264C55.0506 40.7621 49.8621 42.6255 45.8429 44.7448C43.5409 45.9871 44.6736 49.4583 47.1948 49.166C51.0679 47.2294 56.4756 45.2929 61.5545 43.7582C62.1391 45.4025 62.6872 47.0833 63.2718 48.8371C59.3256 50.189 54.7218 52.0525 49.789 54.6468C47.4871 55.8891 48.6198 59.3602 51.141 59.0679C51.4333 59.0314 51.689 58.9583 51.9448 58.8122C56.5852 56.3641 60.9333 54.6102 64.6603 53.3314C65.2449 55.2314 65.793 57.2045 66.3776 59.2506C62.1391 60.7122 57.3891 62.5391 53.041 64.6583C50.666 65.8276 51.7621 69.4084 54.3564 69.116C58.4852 67.1795 63.3083 65.3526 67.6564 63.8545C68.168 65.6814 68.716 67.4353 69.2276 69.1526C64.7333 70.6872 59.2525 72.6603 54.6487 74.7795C52.2371 75.9122 53.2967 79.5296 55.891 79.2373C60.2756 77.3372 65.9391 75.2911 70.6161 73.6834C71.1641 75.4007 71.6757 77.0815 72.1872 78.6892C68.241 80.1142 63.3083 82.1238 57.4256 84.8642C55.0141 85.9969 56.0737 89.6142 58.7045 89.3219C58.9602 89.2854 59.1795 89.2123 59.3987 89.1027C65.0622 86.4719 69.7757 84.5719 73.5757 83.1834C78.4719 99.0412 80.4084 108.541 71.3834 116.36Z" fill="white"/>
<path d="M85.9318 115.849L95.5414 112.305L95.3222 116.434C95.3222 116.434 95.103 129.771 95.103 130.026C95.103 130.246 92.9472 135.763 93.0568 136.055C93.1664 136.348 87.3568 138.832 87.0279 138.832C86.6991 138.832 67.224 140.476 67.224 140.476L59.0028 139.234L58.0894 134.886L62.7298 132.73L69.3433 132.146L86.4433 129.661L85.9318 127.615L86.5529 115.703L85.9318 115.849Z" fill="white"/>
<path d="M55.637 83.9885L57.6101 92.3558L57.9024 105.254C57.9024 105.254 57.6101 118.298 57.6101 118.408C57.6101 118.517 58.0851 129.625 58.0851 129.625L58.5966 135.289L59.6197 139.527L65.9774 140.879L86.2198 138.796C86.2198 138.796 92.0294 136.86 92.1025 136.823C92.1756 136.787 94.8794 132.987 94.8794 132.987C94.8794 132.987 95.6102 111.758 95.6102 111.429C95.6102 111.1 97.3275 111.466 97.3275 111.466L102.626 108.798L104.489 110.479C104.489 110.479 104.233 128.639 104.233 128.967C104.233 129.296 102.808 138.394 102.808 138.394C102.808 138.394 99.9218 142.45 99.666 142.523C99.4468 142.633 93.3814 145.446 93.3814 145.446L83.3698 147.054L63.712 149.393L56.1485 147.018L51.2158 141.719L48.2562 132.548L47.9639 111.502L48.8773 88.6289L48.7677 83.6231L48.9139 81.6865L55.637 83.9885Z" fill="#4AC2FF"/>
<path d="M57.9406 136.091L57.356 131.743L84.0291 128.382V113.876L88.4138 112.268V129.149C88.4138 130.903 87.0984 132.364 85.3811 132.62L57.9406 136.091Z" fill="black"/>
<path d="M64.7334 143.217C62.5046 143.217 60.3488 142.413 58.6315 140.915C56.6218 139.161 55.4526 136.603 55.4526 133.936V88.5183C55.4526 86.7645 54.2834 85.1933 52.6026 84.7183L43.9795 82.2337L45.1853 78.0317L53.8084 80.5164C57.3526 81.5395 59.8373 84.8279 59.8373 88.5183V133.899C59.8373 135.324 60.4584 136.676 61.518 137.59C62.5777 138.503 64.0026 138.942 65.3911 138.759L88.7393 135.872C91.1509 135.544 92.9778 133.461 92.9778 131.013V110.259L97.3624 107.957V131.013C97.3624 135.617 93.9278 139.563 89.3605 140.22L66.0123 143.107C65.5738 143.18 65.1353 143.217 64.7334 143.217Z" fill="black"/>
<path d="M63.7519 151.621C59.4038 151.621 55.2019 150.014 51.9134 147.018L41.9749 139.527C38.2845 136.75 36.0557 132.293 36.0557 127.652V85.0481C36.0557 81.0654 39.3076 77.8135 43.2903 77.8135C43.7653 77.8135 44.2038 77.85 44.6788 77.9596C45.0442 78.0327 45.4096 78.1423 45.7384 78.2519C48.6249 79.275 50.525 82.0154 50.525 85.0847V134.083C50.525 137.81 52.023 141.245 54.7634 143.802C57.7231 146.506 61.6692 147.748 65.6154 147.164L90.9367 143.839C97.404 142.889 102.264 137.262 102.264 130.758V109.054L106.648 106.569V130.758C106.648 139.454 100.181 146.945 91.5944 148.187L66.2731 151.512C65.4327 151.585 64.5923 151.621 63.7519 151.621ZM43.2903 82.1616C41.7191 82.1616 40.4403 83.4404 40.4403 85.0116V127.652C40.4403 130.904 42.0115 134.046 44.6057 136.019L46.4692 137.445C46.2499 136.348 46.1403 135.179 46.1403 134.01V85.0481C46.1403 83.8424 45.373 82.7462 44.2403 82.3443C44.0942 82.3077 43.948 82.2712 43.8384 82.2347C43.6557 82.1981 43.473 82.1616 43.2903 82.1616Z" fill="black"/>
<path d="M126.832 184.344H11.2047C6.75104 184.344 3.1377 187.505 3.1377 191.402C3.1377 195.299 6.75104 198.461 11.2047 198.461H126.832C131.285 198.461 134.899 195.299 134.899 191.402C134.899 187.505 131.285 184.344 126.832 184.344Z" fill="#4AC2FF"/>
<path d="M126.819 201.151H11.2159C5.04085 201.151 0 196.77 0 191.403C0 186.036 5.04085 181.655 11.2159 181.655H126.819C132.994 181.655 138.035 186.036 138.035 191.403C138.035 196.77 132.994 201.151 126.819 201.151ZM11.2159 187.168C8.52743 187.168 6.30106 189.066 6.30106 191.439C6.30106 193.812 8.48543 195.711 11.2159 195.711H126.819C129.508 195.711 131.734 193.812 131.734 191.439C131.734 189.066 129.55 187.168 126.819 187.168H11.2159Z" fill="black"/>
<path d="M71.1977 116.387C61.6882 119.557 59.718 106.254 59.8086 98.9546L57.4854 119.261L70.106 119.702L71.1977 116.387Z" fill="black"/>
<path d="M95.1346 170.054H42.8113C38.9382 170.054 35.7959 173.196 35.7959 177.069C35.7959 180.942 38.9382 184.085 42.8113 184.085H95.0981C98.9712 184.085 102.113 180.942 102.113 177.069C102.113 173.196 99.0077 170.054 95.1346 170.054Z" fill="white"/>
<path d="M95.1358 186.825H42.8125C37.4413 186.825 33.0566 182.44 33.0566 177.069C33.0566 171.698 37.4413 167.313 42.8125 167.313H95.0992C100.47 167.313 104.855 171.698 104.855 177.069C104.855 182.44 100.507 186.825 95.1358 186.825ZM42.8125 172.794C40.474 172.794 38.5374 174.694 38.5374 177.069C38.5374 179.444 40.4374 181.344 42.8125 181.344H95.0992C97.4377 181.344 99.3742 179.444 99.3742 177.069C99.3742 174.694 97.4742 172.794 95.0992 172.794H42.8125Z" fill="black"/>
</svg>
