<svg width="82" height="82" viewBox="0 0 82 82" fill="none" xmlns="http://www.w3.org/2000/svg">
<circle cx="40.934" cy="41.1835" r="30.3857" fill="#FFB800"/>
<mask id="mask0_430_2" style="mask-type:alpha" maskUnits="userSpaceOnUse" x="11" y="12" width="60" height="60">
<circle cx="40.8417" cy="41.8417" r="29.8417" fill="#FFB800"/>
</mask>
<g mask="url(#mask0_430_2)">
<path d="M42.6244 55.8008H39.1802V65.9855H42.6244V55.8008Z" fill="#4AC2FF"/>
<path d="M42.6248 66.7256H39.1806C38.776 66.7256 38.4404 66.39 38.4404 65.9854V55.8007C38.4404 55.3961 38.776 55.0605 39.1806 55.0605H42.6248C43.0295 55.0605 43.365 55.3961 43.365 55.8007V65.9854C43.365 66.3999 43.0295 66.7256 42.6248 66.7256ZM39.9208 65.2452H41.8847V56.5409H39.9208V65.2452Z" fill="black"/>
<path d="M37.4937 52.1397C36.3588 52.0311 35.3522 51.7449 34.5133 51.291C34.237 51.1429 32.6481 50.2251 31.7796 47.8961L31.7698 47.8665L26.1544 29.6485L26.1445 29.6288C26.0951 29.4314 24.9405 24.8029 30.852 21.6448C35.5693 19.1184 39.2504 18.842 41.5104 19.0493C41.9545 19.0888 42.3887 19.1579 42.7933 19.2467C45.4086 19.8092 47.4514 21.8126 48.2508 23.4311C48.9712 24.8917 52.7708 37.7311 53.5899 40.4845C53.8366 41.0964 55.0604 44.4716 52.7806 46.85C51.0042 48.6659 43.2078 52.6726 37.4937 52.1397Z" fill="black"/>
<path d="M32.9841 47.4423L27.3884 29.2835C27.3884 29.2835 26.3818 25.484 31.4544 22.7602C36.527 20.0364 40.4351 20.0364 42.5174 20.4805C44.5899 20.9344 46.3761 22.5233 47.0966 23.974C47.8071 25.4248 52.3764 40.8893 52.3764 40.8893C52.3764 40.8893 53.7482 43.9586 51.8435 45.9422C49.9487 47.916 39.9022 52.7419 35.1157 50.1464C35.1157 50.1562 33.7242 49.4654 32.9841 47.4423Z" fill="black"/>
<path d="M52.3169 40.7612C52.1097 40.2085 51.6261 39.7842 51.0438 39.6953C49.9582 39.5177 49.1983 39.7151 49.1885 39.7151C48.3891 39.8927 48.1226 38.6295 48.9319 38.4716C48.9714 38.4617 49.5141 38.4519 50.2938 38.4124C50.4813 38.4025 50.6589 38.4124 50.807 38.4223C51.1721 38.4519 51.4682 38.1064 51.3596 37.7512C51.3103 37.6031 51.2017 37.4847 51.0537 37.4255C50.8563 37.3465 50.5504 37.2577 50.1754 37.2577C50.0471 37.2479 49.9188 37.2479 49.7806 37.2577C49.0602 37.2084 48.7641 36.261 49.4352 35.955C49.6622 35.8958 49.8595 35.8662 50.0372 35.8563C50.4221 35.8366 50.6787 35.4715 50.5504 35.1063L50.5405 35.0866C50.4714 34.8892 50.2938 34.751 50.0865 34.7214C49.6128 34.6622 48.8233 34.6425 48.2608 34.5734C48.1029 34.5536 47.9549 34.5635 47.797 34.5635L47.6588 34.5833C46.9186 34.7017 46.7015 33.6358 47.2936 33.3792C47.8364 33.2312 48.5865 33.2707 49.1589 33.3496C49.5536 33.399 49.8694 33.024 49.751 32.6391C49.7016 32.4614 49.5635 32.3233 49.3858 32.2739C48.774 32.0963 48.172 32.0766 47.4022 32.0469C47.116 32.0173 46.9088 32.0272 46.8002 32.0371C45.9909 32.1358 45.8429 30.8528 46.662 30.7739C46.7015 30.7739 46.741 30.764 46.7706 30.7541C47.2443 30.685 47.8167 30.7344 48.2904 30.8133C48.7246 30.8824 49.0799 30.4778 48.9516 30.0534C48.922 29.9547 48.8628 29.8659 48.7937 29.7968C48.7246 29.7278 48.6259 29.6784 48.5272 29.6587C47.9746 29.5304 46.9581 29.4021 46.3758 29.4416C46.2574 29.4514 46.1686 29.4613 46.0798 29.4613C45.3297 29.5797 45.1126 28.4843 45.7442 28.2474C46.2673 28.1685 46.7903 28.1685 47.2443 28.1981C47.7772 28.2277 48.1621 27.7046 47.9746 27.2013C47.9252 27.073 47.8463 26.9645 47.7377 26.8855C47.639 26.8066 47.5108 26.7572 47.3726 26.7375C46.9778 26.698 46.3956 26.6388 45.8528 26.6289C45.7738 26.6289 45.7047 26.6289 45.6455 26.6289C45.6258 26.6289 45.6061 26.6289 45.5962 26.6289C45.4778 26.6388 45.3889 26.6585 45.31 26.6585C44.4909 26.777 44.333 25.494 45.1521 25.4052C45.2014 25.3953 45.8528 25.3164 46.8002 25.4743C47.2048 25.5433 47.5502 25.1585 47.4219 24.7637C47.0469 23.5597 46.2081 22.5432 45.6554 22.178C45.5172 22.0892 45.3593 22.2373 45.4383 22.3853C45.5271 22.5333 45.6159 22.711 45.7047 22.8985C45.9712 23.4906 45.1027 23.9347 44.7968 23.3524C44.1849 22.1978 43.6718 20.4016 41.6486 20.3128C41.471 20.303 41.392 20.5201 41.5302 20.6286C42.0829 21.0925 42.9415 22.0004 43.2967 22.8294C43.6323 23.6189 42.4381 24.142 42.0829 23.3623C41.5203 22.1484 41.0565 20.2635 38.6485 20.3622C38.3919 20.372 38.2932 20.6878 38.4807 20.8457C39.5367 21.7537 40.8196 24.0334 39.5268 24.4084C37.7603 24.8624 38.7176 20.3424 35.0266 21.1615C34.2272 21.4477 33.3094 21.8129 32.4015 22.257C29.1151 23.8558 25.8485 26.5401 27.9802 30.8923C28.1282 31.1785 28.4934 31.287 28.7697 31.1094C29.6184 30.5765 31.2468 29.5501 31.2468 29.5501C31.9376 29.106 32.6285 30.1916 31.9278 30.6258C31.7205 30.7936 29.727 31.889 28.9967 32.4417C28.2467 33.0141 29.0362 34.149 29.8257 33.6457C30.4277 33.2707 32.1054 32.2542 32.1054 32.2542C32.7962 31.8002 33.487 32.8957 32.7765 33.3299C32.7765 33.3299 30.7731 34.5833 29.8553 35.1754C29.0954 35.7182 29.8948 36.8827 30.6942 36.3794L33.0035 34.9188C33.6943 34.4747 34.3851 35.5603 33.6844 35.9945C33.4574 36.1721 31.4738 37.2775 30.6448 37.9683C29.9441 38.5604 30.7238 39.646 31.5034 39.1526C32.2337 38.6986 33.8226 37.6722 33.8226 37.6722C34.5134 37.2281 35.2042 38.3137 34.4937 38.7479C34.2963 38.896 32.2534 40.0605 31.4639 40.6625C30.7238 41.225 31.5231 42.3599 32.3028 41.8665C32.9048 41.4816 34.5529 40.4552 34.5529 40.4552C35.2437 40.0013 35.9345 41.0967 35.224 41.531C35.2437 41.4816 33.1022 42.8534 32.2041 43.406C31.4639 43.9291 32.2436 45.0443 33.0035 44.5706L35.3917 43.1001C36.0826 42.656 36.7734 43.7416 36.0628 44.1758L33.2009 45.972C32.8554 46.1891 32.6975 46.6233 32.8357 47.0082C33.5167 49.0609 34.918 51.1827 39.1025 50.8867C40.0301 50.7682 40.8295 50.6103 41.5006 50.413C48.1128 48.4688 43.6718 42.9521 45.3791 42.6461C45.6455 42.5968 45.8626 42.9027 45.9712 43.1495C46.4252 44.1462 46.7903 46.5542 45.8923 48.3405C45.7245 48.676 46.0995 49.0116 46.4054 48.8142C48.4187 47.5214 48.468 44.5015 47.797 43.0014C47.6785 42.735 47.4121 42.0836 47.8956 41.8468C49.1983 41.2053 49.7411 44.3337 49.1885 46.6924C49.0898 47.1266 49.6424 47.3931 49.9286 47.0477C51.0142 45.7055 50.955 43.5541 50.6096 42.5771C50.5208 42.3205 50.5109 41.8665 50.7576 41.7382C51.7939 41.225 52.3169 43.2778 51.5669 45.5969C51.5077 45.7943 51.705 46.0805 51.8432 45.9325C53.2939 44.3732 52.9781 42.5771 52.3169 40.7612ZM33.9706 28.2079C34.0594 28.1586 35.3621 27.4776 37.1978 26.8559C38.5695 26.3921 40.2374 25.948 41.9348 25.8295C42.2802 25.7999 42.5862 26.0664 42.6158 26.4118C42.6454 26.7572 42.3789 27.0632 42.0335 27.0928C40.4841 27.2112 38.9939 27.5961 37.7405 28.0204C35.8457 28.6619 34.5035 29.3922 34.3555 29.4021C33.6548 29.4712 33.3489 28.5336 33.9706 28.2079ZM34.9476 32.2739C34.2667 32.3529 33.9608 31.4153 34.5825 31.0798C35.6681 30.5074 37.0695 30.0041 38.382 29.5995C40.3854 28.9876 42.1815 28.6027 42.3 28.5731C43.1191 28.4251 43.3757 29.6093 42.5664 29.8166C42.527 29.7968 40.7802 30.2113 38.8261 30.8035C37.4543 31.2377 35.9937 31.7509 34.9476 32.2739ZM35.6483 33.7543C36.9806 33.0536 38.2241 32.5503 39.29 32.1851C41.4907 31.4351 42.9711 31.287 43.0599 31.2772C43.8987 31.2278 44.0073 32.4318 43.1783 32.5404C43.0994 32.5503 41.7078 32.6983 39.665 33.399C38.6584 33.7444 37.484 34.2181 36.2306 34.8793C36.1615 34.9188 36.0826 34.9385 36.0135 34.9484C35.3325 35.0175 35.0266 34.0799 35.6483 33.7543ZM36.5267 36.4583C37.7011 35.8859 38.984 35.3925 40.1288 34.9977C41.9447 34.376 43.4053 34.001 43.504 33.9812C43.8395 33.8924 44.1849 34.0997 44.2738 34.4451C44.3626 34.7806 44.1553 35.126 43.8099 35.2149C43.7902 35.1951 42.2901 35.6096 40.4742 36.2412C39.2998 36.6459 37.9971 37.1393 36.882 37.6623C36.1813 37.7314 35.8852 36.7741 36.5267 36.4583ZM36.9609 39.1822C38.2044 38.6098 39.6847 38.0768 40.8986 37.6623C42.1914 37.2281 43.1684 36.932 43.2474 36.9123C44.0566 36.7051 44.4021 37.8696 43.6027 38.1262C43.5829 38.1064 42.5763 38.4321 41.2736 38.8861C40.0203 39.3203 38.4807 39.8828 37.2964 40.3862C36.5958 40.475 36.3096 39.4881 36.9609 39.1822ZM45.3199 40.5046C45.31 40.5046 44.7277 40.5934 43.5435 40.9586C43.129 41.0869 42.6355 41.2546 42.073 41.452C41.0466 41.827 39.7637 42.3402 38.2439 43.0508C38.1846 43.0804 38.1156 43.1001 38.0563 43.11C37.3557 43.1889 37.0596 42.2119 37.7109 41.906C39.2998 41.1658 40.6223 40.6329 41.698 40.2381C43.9579 39.419 45.083 39.2611 45.1422 39.2512C45.9712 39.1624 46.1488 40.3664 45.3199 40.5046ZM47.0667 38.215C45.833 38.4913 45.1718 36.0636 46.366 35.6688C46.8693 35.5307 47.4417 35.9846 47.6292 36.6853C47.8266 37.386 47.57 38.0768 47.0667 38.215Z" fill="#4AC2FF"/>
<path d="M41.4912 50.423C40.8102 50.6204 40.0207 50.7881 39.093 50.8967C34.9086 51.1928 33.5171 49.0709 32.8263 47.0182C32.698 46.6235 32.846 46.1991 33.1914 45.982L36.0534 44.1858C36.7541 43.7615 36.0633 42.666 35.3823 43.1101L32.994 44.5806C32.2341 45.0642 31.4644 43.9391 32.1947 43.4161C33.0927 42.8634 35.2343 41.4916 35.2145 41.541C35.9152 41.1166 35.2244 40.0212 34.5435 40.4653C34.5435 40.4653 32.8953 41.5015 32.2933 41.8765C31.5038 42.37 30.7143 41.2449 31.4545 40.6725C32.244 40.0705 34.2869 38.9159 34.4842 38.758C35.1849 38.3336 34.4941 37.2381 33.8132 37.6822C33.8132 37.6822 32.2144 38.6987 31.494 39.1626C30.7143 39.656 29.9347 38.5606 30.6354 37.9783C31.4644 37.2875 33.448 36.1723 33.675 36.0045C34.3757 35.5802 33.6849 34.4847 32.994 34.9288L30.6847 36.3894C29.8853 36.8927 29.086 35.7282 29.8459 35.1854C30.7637 34.5933 32.7671 33.3399 32.7671 33.3399C33.4677 32.9156 32.7769 31.8201 32.096 32.2642C32.096 32.2642 30.4183 33.2807 29.8163 33.6557C29.0267 34.159 28.2372 33.0143 28.9873 32.4517C29.7176 31.8892 31.7012 30.7938 31.9183 30.6358C32.619 30.2115 31.9282 29.116 31.2374 29.5601C31.2374 29.5601 29.609 30.5865 28.7603 31.1194C28.484 31.2971 28.1188 31.1885 27.9708 30.9023C25.8391 26.5501 29.1156 23.8658 32.392 22.267C33.7441 21.6946 35.481 23.2934 37.2081 26.8363C35.3724 27.4581 34.0796 28.139 33.9809 28.1884C33.3592 28.5239 33.6651 29.4615 34.3559 29.3825C34.504 29.3726 35.8461 28.6423 37.741 28.0009C37.9581 28.5042 38.1752 29.0371 38.3923 29.5996C37.0798 30.0042 35.6784 30.5076 34.5928 31.0799C33.9711 31.4155 34.277 32.353 34.9579 32.2741C36.004 31.751 37.4646 31.228 38.8364 30.8135C38.9943 31.2576 39.1424 31.7116 39.3003 32.1853C38.2344 32.5504 36.9909 33.0537 35.6586 33.7544C35.0369 34.09 35.3428 35.0275 36.0238 34.9486C36.1027 34.9387 36.1718 34.9189 36.2409 34.8795C37.4943 34.2183 38.6687 33.7446 39.6753 33.3991C39.8332 33.9123 39.9812 34.4452 40.1391 34.9979C38.9943 35.3927 37.7114 35.8861 36.537 36.4585C35.8955 36.7743 36.1916 37.7415 36.8923 37.6625C38.0074 37.1395 39.3101 36.646 40.4845 36.2414C40.6227 36.7348 40.7707 37.2085 40.9089 37.6724C39.695 38.0869 38.2147 38.6198 36.9712 39.1922C36.3199 39.4981 36.6061 40.4751 37.3067 40.3962C38.491 39.883 40.0207 39.3303 41.2839 38.8961C41.4319 39.36 41.5701 39.8139 41.7083 40.2482C40.6424 40.633 39.3101 41.1758 37.7212 41.916C37.0699 42.2219 37.3561 43.199 38.0666 43.12C38.1357 43.1101 38.1949 43.0904 38.2542 43.0608C39.7838 42.3502 41.0569 41.837 42.0833 41.462C43.4057 45.7451 43.9288 48.311 41.4912 50.423Z" fill="white"/>
<path d="M35.2472 56.7622L32.6885 55.0525V41.0566L35.4419 41.1849L35.2472 56.7622Z" fill="white"/>
<path d="M45.4176 50.2844L48.0131 49.3271L47.9539 50.4423C47.9539 50.4423 47.8947 54.0445 47.8947 54.1136C47.8947 54.1728 47.3124 55.663 47.342 55.7419C47.3716 55.8209 45.8024 56.492 45.7136 56.492C45.6248 56.492 40.3647 56.9361 40.3647 56.9361L38.1442 56.6005L37.8975 55.4261L39.1508 54.8439L40.9371 54.686L45.5557 54.0149L45.4176 53.4622L45.5853 50.245L45.4176 50.2844Z" fill="white"/>
<path d="M37.2365 41.6784L37.7695 43.9384L37.8484 47.4221C37.8484 47.4221 37.7695 50.9453 37.7695 50.9749C37.7695 51.0045 37.8977 54.0046 37.8977 54.0046L38.0359 55.5343L38.3122 56.6791L40.0294 57.0443L45.4968 56.4817C45.4968 56.4817 47.066 55.9587 47.0857 55.9488C47.1054 55.9389 47.8357 54.9126 47.8357 54.9126C47.8357 54.9126 48.0331 49.1787 48.0331 49.0899C48.0331 49.0011 48.4969 49.0998 48.4969 49.0998L49.9279 48.3794L50.4312 48.8333C50.4312 48.8333 50.3622 53.7382 50.3622 53.827C50.3622 53.9158 49.9773 56.3732 49.9773 56.3732C49.9773 56.3732 49.1976 57.4686 49.1286 57.4884C49.0693 57.518 47.4311 58.2779 47.4311 58.2779L44.727 58.7121L39.4176 59.3437L37.3747 58.7022L36.0424 57.2712L35.243 54.7941L35.1641 49.1097L35.4108 42.9317L35.3812 41.5797L35.4207 41.0566L37.2365 41.6784Z" fill="#4AC2FF"/>
<path d="M37.8591 55.7519L37.7012 54.5775L44.9055 53.6696V49.7516L46.0898 49.3174V53.8768C46.0898 54.3505 45.7345 54.7453 45.2707 54.8144L37.8591 55.7519Z" fill="black"/>
<path d="M39.6954 57.6764C39.0934 57.6764 38.5111 57.4593 38.0473 57.0547C37.5045 56.581 37.1887 55.8902 37.1887 55.1697V42.9027C37.1887 42.429 36.8729 42.0046 36.4189 41.8763L34.0898 41.2052L34.4155 40.0703L36.7446 40.7414C37.7019 41.0177 38.3729 41.9059 38.3729 42.9027V55.1599C38.3729 55.5447 38.5407 55.9099 38.8269 56.1566C39.1131 56.4033 39.498 56.5218 39.873 56.4724L46.1792 55.6928C46.8306 55.604 47.324 55.0414 47.324 54.3802V48.7747L48.5083 48.1529V54.3802C48.5083 55.6237 47.5806 56.6895 46.347 56.8672L40.0408 57.6468C39.9224 57.6666 39.8039 57.6764 39.6954 57.6764Z" fill="black"/>
<path d="M39.4269 59.9459C38.2525 59.9459 37.1176 59.5117 36.2294 58.7024L33.5451 56.6793C32.5483 55.9293 31.9463 54.7253 31.9463 53.4719V41.9648C31.9463 40.8891 32.8246 40.0107 33.9003 40.0107C34.0286 40.0107 34.1471 40.0206 34.2753 40.0502C34.374 40.07 34.4727 40.0996 34.5615 40.1292C35.3412 40.4055 35.8544 41.1457 35.8544 41.9747V55.2088C35.8544 56.2155 36.259 57.1432 36.9992 57.834C37.7985 58.5643 38.8644 58.8998 39.9302 58.7419L46.7694 57.8438C48.5162 57.5872 49.8287 56.0674 49.8287 54.3108V48.4486L51.013 47.7776V54.3108C51.013 56.6596 49.2662 58.6827 46.947 59.0182L40.1079 59.9163C39.8809 59.936 39.6539 59.9459 39.4269 59.9459ZM33.9003 41.1851C33.476 41.1851 33.1306 41.5306 33.1306 41.9549V53.4719C33.1306 54.3503 33.5549 55.199 34.2556 55.7319L34.7589 56.1168C34.6997 55.8207 34.6701 55.5049 34.6701 55.1891V41.9648C34.6701 41.6391 34.4629 41.343 34.1569 41.2345C34.1174 41.2246 34.078 41.2147 34.0484 41.2049C33.999 41.195 33.9497 41.1851 33.9003 41.1851Z" fill="black"/>
<path d="M56.4672 68.7852H25.237C24.0341 68.7852 23.0581 69.6391 23.0581 70.6917C23.0581 71.7442 24.0341 72.5982 25.237 72.5982H56.4672C57.6701 72.5982 58.6461 71.7442 58.6461 70.6917C58.6461 69.6391 57.6701 68.7852 56.4672 68.7852Z" fill="#4AC2FF"/>
<path d="M56.4632 73.3242H25.2393C23.5715 73.3242 22.21 72.1409 22.21 70.6914C22.21 69.2419 23.5715 68.0586 25.2393 68.0586H56.4632C58.1311 68.0586 59.4926 69.2419 59.4926 70.6914C59.4926 72.1409 58.1311 73.3242 56.4632 73.3242ZM25.2393 69.5475C24.5132 69.5475 23.9118 70.0603 23.9118 70.7012C23.9118 71.3422 24.5018 71.8549 25.2393 71.8549H56.4632C57.1894 71.8549 57.7907 71.3422 57.7907 70.7012C57.7907 70.0603 57.2007 69.5475 56.4632 69.5475H25.2393Z" fill="black"/>
<path d="M32.7077 43.4648H31.3853V44.6985H32.7077V43.4648Z" fill="black"/>
<path d="M45.7002 52.4661V49.6466L50.5102 47.5381L50.369 50.7531L45.7002 52.4661Z" fill="black"/>
<path d="M41.44 50.4301C38.8715 51.2862 38.3394 47.6933 38.3638 45.7217L37.7363 51.2064L41.1451 51.3253L41.44 50.4301Z" fill="black"/>
<path d="M47.9055 64.9248H33.7732C32.7271 64.9248 31.8784 65.7735 31.8784 66.8196C31.8784 67.8657 32.7271 68.7145 33.7732 68.7145H47.8956C48.9417 68.7145 49.7905 67.8657 49.7905 66.8196C49.7905 65.7735 48.9516 64.9248 47.9055 64.9248Z" fill="white"/>
<path d="M47.905 69.4546H33.7727C32.322 69.4546 31.1377 68.2703 31.1377 66.8196C31.1377 65.3688 32.322 64.1846 33.7727 64.1846H47.8951C49.3458 64.1846 50.5301 65.3688 50.5301 66.8196C50.5301 68.2703 49.3557 69.4546 47.905 69.4546ZM33.7727 65.6649C33.1411 65.6649 32.618 66.1781 32.618 66.8196C32.618 67.461 33.1312 67.9742 33.7727 67.9742H47.8951C48.5267 67.9742 49.0497 67.461 49.0497 66.8196C49.0497 66.1781 48.5366 65.6649 47.8951 65.6649H33.7727Z" fill="black"/>
</g>
<path d="M29.2016 13.3985C23.4331 15.8585 18.3841 20.1442 15.007 25.9934C6.71708 40.352 11.6343 58.7034 25.993 66.9934C40.3516 75.2833 58.703 70.3661 66.9929 56.0074C75.2829 41.6488 70.3657 23.2974 56.007 15.0075C50.4383 11.7923 44.2777 10.5645 38.3261 11.1026" stroke="black" stroke-width="1.53731" stroke-miterlimit="10" stroke-linecap="round" stroke-linejoin="round"/>
</svg>
